<mxfile host="65bd71144e">
    <diagram id="-iBiSh7B0xStrSgWmY5y" name="페이지-1">
        <mxGraphModel dx="1164" dy="802" grid="1" gridSize="10" guides="1" tooltips="1" connect="1" arrows="1" fold="1" page="1" pageScale="1" pageWidth="1169" pageHeight="1654" math="0" shadow="0">
            <root>
                <mxCell id="0"/>
                <mxCell id="1" parent="0"/>
                <mxCell id="2" style="edgeStyle=orthogonalEdgeStyle;rounded=0;orthogonalLoop=1;jettySize=auto;html=1;entryX=0;entryY=0.5;entryDx=0;entryDy=0;" edge="1" parent="1" source="4" target="7">
                    <mxGeometry relative="1" as="geometry"/>
                </mxCell>
                <mxCell id="3" value="Push" style="edgeLabel;html=1;align=center;verticalAlign=middle;resizable=0;points=[];" vertex="1" connectable="0" parent="2">
                    <mxGeometry x="-0.3143" y="-2" relative="1" as="geometry">
                        <mxPoint x="9" y="-2" as="offset"/>
                    </mxGeometry>
                </mxCell>
                <mxCell id="4" value="Developer" style="shape=image;verticalLabelPosition=bottom;labelBackgroundColor=default;verticalAlign=top;aspect=fixed;imageAspect=0;image=https://cdn-icons-png.flaticon.com/512/4974/4974492.png;" vertex="1" parent="1">
                    <mxGeometry x="150" y="470" width="60" height="60" as="geometry"/>
                </mxCell>
                <mxCell id="5" style="edgeStyle=orthogonalEdgeStyle;rounded=0;orthogonalLoop=1;jettySize=auto;html=1;" edge="1" parent="1" source="7" target="8">
                    <mxGeometry relative="1" as="geometry"/>
                </mxCell>
                <mxCell id="6" value="Develop, Main&lt;br&gt;Branch PR" style="edgeLabel;html=1;align=center;verticalAlign=middle;resizable=0;points=[];" vertex="1" connectable="0" parent="5">
                    <mxGeometry x="-0.2571" y="-1" relative="1" as="geometry">
                        <mxPoint x="9" y="17" as="offset"/>
                    </mxGeometry>
                </mxCell>
                <mxCell id="7" value="Github" style="shape=image;verticalLabelPosition=bottom;labelBackgroundColor=default;verticalAlign=top;aspect=fixed;imageAspect=0;image=https://cdn-icons-png.flaticon.com/512/25/25231.png;" vertex="1" parent="1">
                    <mxGeometry x="280" y="470" width="60" height="60" as="geometry"/>
                </mxCell>
                <mxCell id="8" value="Pull Request" style="shape=image;verticalLabelPosition=bottom;labelBackgroundColor=default;verticalAlign=top;aspect=fixed;imageAspect=0;image=https://cdn0.iconfinder.com/data/icons/octicons/1024/git-pull-request-512.png;" vertex="1" parent="1">
                    <mxGeometry x="410" y="470" width="60" height="60" as="geometry"/>
                </mxCell>
                <mxCell id="10" style="edgeStyle=orthogonalEdgeStyle;rounded=0;orthogonalLoop=1;jettySize=auto;html=1;entryX=0;entryY=0.5;entryDx=0;entryDy=0;" edge="1" parent="1" source="12" target="13">
                    <mxGeometry relative="1" as="geometry"/>
                </mxCell>
                <mxCell id="11" value="Transfer BootJar" style="edgeLabel;html=1;align=center;verticalAlign=middle;resizable=0;points=[];" vertex="1" connectable="0" parent="10">
                    <mxGeometry x="-0.211" y="1" relative="1" as="geometry">
                        <mxPoint x="9" y="11" as="offset"/>
                    </mxGeometry>
                </mxCell>
                <mxCell id="12" value="Github Actions" style="shape=image;verticalLabelPosition=bottom;labelBackgroundColor=default;verticalAlign=top;aspect=fixed;imageAspect=0;image=data:image/png,iVBORw0KGgoAAAANSUhEUgAAARgAAAEYCAYAAACHjumMAAAydklEQVR4nOydDYgdV3bnT82IpRIEWwKz8wxGLtUYRmaGdos4WGJadDWuME9kBrUYZ2WPO0hiJm2JJFgGx6omztZ9xLNd9jpIZj1Y7jhYYtuxRBzUghn0ZrdCV6c1SCYe1O51kMKa55IwzAsYpnZXJJVFUMvtvs9qtfrj3Vv31sd75wdNHM2rW7f7X+/Uueeee84W6AFMPzUAYDf7+QYA1Og/s5+1SADgKvvvGwDwzwDQjFztao7TRpCeRyt6AjwYjrcTAB7TLXtQt2z634+wH13ibT4HgE8BIEpa4adJK/wEAD6Og0Yk8R4I0heU3sBQo2I45AQA2Bt4JHmwAACnIlc7W+AcEKRSlM7A6NbwVt2yn9Qt26Y/APAtACjTUi6my6qkFQZJK/xZ0go/Slpzd4qeFIKUkVIZGNNPDwPAJIuhVAXq2bwQuVpY9EQQpGwUamB0a3iLbtlDhkMOAcDTkmMpeXM1Dsg5AJiLg8ZC0ZNBkDJQmIFhOz/vA0C9qDko5EzkakeKngSCFM1Xirip4Xi7AeCzHjUulMOmn84ajldkUBpBCic3D4Yth75vOKTeA8uhbvkCAN5pT9k/SVpznxc9GQTJm9wMjOmn7zPD0o+0AWBf5GoYm0H6CuVLpNr47PdNP/2sj40LsF2xa2zZ9O2iJ4MgeaHUgzH99CQAHFd5jw1YeRxgNTsL3Aqn83omcrWZgu6PILmhxMAYjmcaDnlLcRA3BoBP6E8ckPaKM0VRt2n9huMZzNDQn68bDnmEGZ9B1VnDSSt8M2mFfxIHjUTlfRCkSKQbGJYs967scVewAACNPDwA00+fZx6YKmMTxQHZEweNtqLxEaRQpBoYw/G+YzikKXPMFVDDMhG5mqrx18X000MAQBQZmtORqx1TMC6CFI4UA7NiC/qUxNgGXTo0k1b406QV/m0cNGJJ4wpjON6w4ZBRVhbicYlnpGbigDQwAxjpNaQYGLaUOCVjLAZdOhwo8xfO9NM6y0Q2ZI0ZB2RXmX9nBOHlq1kupp7LQyeiPwaAVwDg32WcC/VYgjggL7anRo4lrblSxyXioPEpALxBjeGWbeZ2GZ4bOz3+i7L/7gjSLZk8GMPxDhrO0gG/rNC39kjkaoUvg0Qx/XQSAFwZY6Eng/QKwh4MC+ieBoCtGe7/OQD85/aU/cdf/M2RyhoXWPZo/g4A5nTLTthWt7BHxzyZv01ac7flzhJB8kXIg5G0FR2zLdobGccpHZJ20+jf51HcwkaqDPdRAXZCOKtxoV+aHb1oXGDZm/k5ABxgcSVRDMMhByVOC0FyR8DALGXoZmGmPWXbVY63dEPkajNJK6yzDGNRXjYcz5Y4LQTJFa4lUsazRX17Bsf002vs+IEoI1iSE6kiXXswtfHZ72cxLkkrHOtH40JpT9nfo55bhiEuGY73mMQpIUgudO3BsJILIqny1HPZg7VQMgfHZyJXOyB5SgiilE09GN0a3mL66QVR48I8l743LrAclzmTtELRXJnvmn76nOQpIYhSujAwNl0ajQqO/0x7auRvBa/tSdpTI68CwBmBS7cAwGnW3RJBKsGmSyTTT6lLf1hgbOkuPTv/89yKei0xywKeiwNypkrtXTMsOd3I1V5VMCUEkc6GHgyr/i9S6rLdnrKlpM0bjvckXaKZfvorALjEvKnOF9NgLWU9wyH/y/TT2dr47CEZ91VN0gp/JJgnc5QVykKQ0rOuB8P6Fn0mcFqYehU7ZOS5mH5KqPEQuHSBncYutUeTIeiLfZeQSrCmB6Nbw1sESxF8HgdkjwzjUhufPSloXCiDhkPmTT89UeaYReRqZwBgWuDSw1g8HKkC6xgYe0iwnu6bMtL/TT89qVt21mLhDwGAbzjkepl3X+KA/JnIdYZDfiR/NggilzUNDOsVzctCe8p+O+uEDMf7joJOBG+afnrJcLxhyeNmhi3jRgXiMXWMxSBlZ80YjOmn/8rZeZF+OR6UFHe5kGFbvBsacUD8slXzF4zHYCwGKTX3eTDsQedt6xpKPLyo+nCfZzhkUvE9uGHxGN6g9CgLxiNIKbnHwOjW8FYA4P7yxcFS4anMmH76tMwatxtw3PTT66afero1/FAO9+uKpBW+w3kJ/VtlPd2OIMpYZWDsJwVqy0Zx0LgoaT55BmN3AgCpjYfzpp8qbbLWLUkr/InAZU+zGj0IUjpWGxje5UkSB0Rmtu5uiWN1C/1yflYbn32r6C8qa81yVODSJxVMB0Eyc0+QV6BuidTjAKafprLGysDTkaudL3ICAscIzkWu9ozCKSGIEF96MCwh7Vs8Fyet8KdKZtUdYdIKxzJWjFuLadNP3zcc75BuDfMGu6WQtMIPOC8ZUjQVBMnECgNDTvB2KkxaYaEnpdtTI+9FrvYoAIywIwoy2LIc1yBnauPhBUljcpG0wp9xXvKQ6acqt/YRRIiVMRje+MtCGdq5wvIWbyh44nsz6nTZaDierHa43SJSP6d0SYQIsmRg2PKIN8A5oWZKYkSudjEOyINJKzyVsZr/agYNh/yD6acndGv4AYnjrgsz3Lw1Yw4XtaRDkPXoeDC89V4XIlfL2vdHOnHQaLenRl4AgEclx2aWzjXlvKXd4Py8oVt2aQ92Iv3JkoHRLZu34j3vw58rkatF7Sl7LwAQALgqcWj6Bb7OzjUpPc1MfwcA+ITzsm8qmg6CCNExMDxvvrgK3QGS1twXkas1IlfbQ70PiUPrywcNyWXTT4nheCqXJR9xfv4RRfNAECE6SySeB5P3rVo4katNxAEZAQDZ2+qe4ZBZw/EOsho6UokDwhXsNRzClWaAIKrpCwMDy/GZMHK17wHAEclB4N2GQ87VxsP/JnHMDh9zfr4056oQhPIVdhq3azc/Dkilm7GzU8sqtrSfZrWDZR7W5P1b572djiAb8hWB8z+Vb1gfudr5OCA74oAcFyiRsBGjAHC9Nj4rJQCctELeuaGBQUqFiIH5Z0VzyZU4aERx0HgjDsgeAJDZ97mmW/abMgZKWnMJ59x000+z9MBGEKlQA/MNzmtKXamflzhotCNXG5F8rmnQ9NO3JAV+eeeEXgxSGr7C+0CWvRWIKCvONZ2SNORR3bIflzDOP3F+voiSFwiyJl/hPCJQqjq2KmhP2X8SB6QOAKcB4HaWsXTL/l0JU8K+3khl4TUwMrNiS0nSmrsTB42fR652LA7I72Q5pc3av+TNwwXcE0HWZNPm9/1MHDSoQd2VIe4k49wSrweD5TOR0oAGZhPYuabfZueaPue8PHPAVWK3BgTJHTQwXdA518SWTDxg+QSkr5F+fqYX0a3hrbplf99wyIucl95RNCUEqQRoYDaBpf5fEGwIx7ukWuv+GFNBKssWtvXcrSvfNwWNDMczdMv+QwB4MUMzOBmJe7wGpud3+pDqsIU9kN2+nfsiS9T00+MA4GXtMhkHRMYRBN45/JuEeyKIFLiDvPTNrmYq5cD0U2pYTkpqYSsjSQ7PFiGV5St41mWZ2vjsftNPr7DtaBk0k1Y4J2Ec3sQ5mQc3ESQTWwROR9d6oWRDB+qRGQ4RDeKuRztytX2SxuL1YPBoAVIaqIFpsnhDt3y9F96SrA/1d9jWs8xatknSCkX6S9+Hbg1v5TQwtzExDykTWyJXu2r63beENhzySByUuqnApph+ehAAzikYmnoPR9pTI1K8CN2yeQ3fFzLuiyCy6AR5efI1KrtVbTjeE6af0uXQtOSh20krfDEOyJ7I1WQuUXhr9fTM0hXpDTqJdp9yFIyu5K6G6aeEcynYLU2J8ZZ7MBzC+7fuyVo9SHXpGBieB7NymaWmn54EgOMKhg7jgDyjYNwOXH/rqhdkR3qPpSVS0go/5bnI9NPnlc1IEro1/JDpp57pp9cVGJerSSscjVxthPWRVgVvdTrcQUJKxZIHk7TCT3SLa5eWfmHfUDarjLDC1xcUeFvUQ9gnOc6yJux34J0/bx8lBFFKJ8j7S87rTNNPDymYTyYMx9tp+um7AHBNsnH5AgBIe8r+7TyMC2OS8/NRr9ZLRqrLkgcTB43PDWepTSlPUJEAwFl1U+PD9NPnWB1d2URxQEby/PKyHJ0652Wl9SiR/mXlWSTeavqm4XjDkufDhW4NG4bjPWf66SUAkNKLaAVR0gr/KA7Io3l7BgLFwpM4ICryehAkE9rK/8f0019zHvI7FbnaC7ImY/pp9xl/ywHNREGbDjrmMdZithCYweTxYK5GrrZH4ZQQRIjVBaducH5hi+zBoyof53DkaucVjd0tuHuE9AT3lGtIWmHAef3jpp/yxgo2orBzNEkrPB0HZEfRxoUFqblKRUiqO4Mg0lltYH7GeT31gN43HE9WcesivigRAOxoT40cK3oXxnA86pUdFrj05wqmgyCZWW1gPhJwtw3dsp+VNJ+3JY3TDVdXbD2XYntXt2yRrX9fcbIfggijrf4H009tAJjlHGchcrVdMiZk+ulnORxH8CNXm1B8Dy5YcfFfcbY6iSJX26FwWgiSiftKZkauFgoUjh40/ZQ3MWxNklaocrt1hp14LpVxMRyvxjKPeYzLHQA4onBaCJKZr67z71t1y+YN3g4BwFzSmsu03NiyzfxH3bJ5+w9tBl1CPBO5WiNpzWVuJSKb2ng4L7Bz9Pf091E0JQSRwnpFv4VqyRoOOZhtOktZxW0Fb+bDkavNSB5TCobj2YJb7rhzhJSeNQ1MHDQWAEAk0WzMcLzvZJ1U5GpnklboZxzmRhyQw3FAHoxc7WLWOanAcDzdcIhIjZokDsh7CqaEIFK5L8i7EtNPZwWLYR+Q4TGYfjoKAO8L9HieiQPyTBw0kqxzUAnLeRHZlm5Eriar+wGCKGO9GEyHOd2yxwDgNznHHdUt+/LtX569mWFu1JO6QY2Fbtn/jxmZBzZY1n0BAP89Dsjx9tTIj5PWXKn7QtfGZ3+4ZZv5nwQu/ShyNVlpAQiilA09GFh+y04CgCsw9o3I1R4Vm9baGI5nGg6hb/zHWLYr9VA+BICFOCDNsnssHVi/6esCnhksL/sapTnFjiAbsamB0a3hh2rj4T8INlxbaE/Z3yvjzk1R1MZnv61b9geCf8+wPWXvS1pzlTCkCLKpgYG71dWuCd5jJnK1A4LX9hwZEgnbkas9qGBKCKKMrnpTsypuotuio6afigQyew4W1BXNUi7lNjuCbMRmQd6VfKpb9g/WKPHQDaO6ZSe3f3n2FwLXVh66LHrg9878fYb2tFF7yj5y59c3/4/kqSGIUrpaInVg28YXMtzvTORqfZXezgK6VwRjLsCykHdgS1ikinS1ROoQudpM0gqzlKY8bPrpZ7Xx2SczjFEZauOzP2S7RaLG5dM4ILvQuCBVhcvAwPJhxD/J2EHQ1C37p70clzEcTzf99F3dst8R2YruEAfkxaJr1CBIFnhiMEuwBLbzumVvBYDHBe+7BQBGDYc8AgDXktZcz7yhDcezDYf8Jf39MgxzGwBeak+NYL4LUmm4YjCrYY3ks3yROoyW9bxQtxiOVzMccklSreDS1atBEBG4l0griQMiq1zAuSovmUw/NQyHvC/JuMRxQLDHEdITcC+RVpK05toAcFG3bJudExKls2Q6rFu2vmWb+Y9VyFY1HG/QcMiJLdvMcwDwiIQhL8cBGWYlKxCk8mRaInVgXzTRTN/1OBq5Wp41ernIcBJ6PWLW5A2NC9IzSDEwcNfI0GXCTlljsu6KH7BuBwtFFrc2HM/ULft3dcv+Lqs+x9VaZANuA8CbdFmExgXpNaQZGLgb6Lwu8cu3mjOsFkpuW7fsHNakQK/objkeuRrGXJCeRKqBgbtG5iAAvJwxLrMRnwDAR3Gw1LD/YwBoJ60wyhK30a3hrbplPwIA3zAcMsjODO1W2OHgU5bnUundMwTZCOkGpgPLB+Ftf5KVkLW//acV/Z0WVmbCstR9k3lZ1JA8zP6vqla0axHHAdmFSXRIr6PMwMDdHkuXsmSz9iDUqJQi/Z/pY68o4LV7Ha2osW6z4l4Ra7Z/o4Ap9x1V10ipgYFlT+YxwyEEAL4reBK7V6Diz7Sn7B/nXYCL9V36tuGQx5mntlPC0i9mS9VP4oBcpQ82K3GKCNCrGik3MB1MP30OAE7ndb+SEUauNpL3Tdly8KSkbOtuoA80waB19/S6RrkZGFi20jsNh+wHgKM5tIctAx/FAXkzaYXn80ocNBxvULfsZ3XLfqrAvzF9iD+IA/JB0grnqpA0mSf9pFGuBqaD4XiG4ZCTkhPVygQV69W8W4soSP6TAXXN95Uh5lQG+k2jQgxMB8Px6JrzRyzHRLRmSlm4AwCX6XIoDsh7cdD4NI+bUmOtW/bzumUfV5h/lBVqcK8mrfD19tTIz4qeTN70s0aFGpgOKzya0RILsBERAByJXC3Xdq6mn9IH1qvY36wSTfFk0e8alcLAdDD9lIrwFgA8XfRcOCiktILpp88DwKm87yuJviidihqVzMB0MBzPBIAnDYc4ADAEAA8VPSdGwvINFuKAUG/l53mfj9Kt4a/XxsNXAOCpim/7X40DcjwOGh8WPRHZoEZ3KaWBWQ0rNj7MgmNFuJp0CfRGHJBzRR5IZB7etR7agaMGew9ri9MToEb3UgkD00G3hnXdsncCwDeZdyMzGn+b9be+QQ1KHJA281Y+LkNKf218dr9u2ad7IBi+GvoAN9tT9jFWX6iyoEb3UykDsxKWQs171ulqJ1oOAP/G/i1cfV6pbLAT3VdyOHIRrVHQvSa5BMd6VLoDKGq0Nn1lYOKA1OOg8XN1s5KLbg1vrY2Hf84SE2U9uJ04UsTSx5dOo2+WQs5S2elD/DXdsgfpD4uPbZU0L2BHKSrlyaBGG9NvBsaNg8ar6mYlF9NPTwCAL2k4+tCeiwPSkLXkY+kFxwHgeYmxsUp5MqjRxvSVgQGA05GrHVM0JamwYGGWpm0rocu/ZyJXa0oY6z7YEZC3MrTGXUllAr+o0eYaZeoqUEGcoifQDbo1nLXdbIerSSs8HAfkQVUPLix5ho0bkauNxAHZkbRCnz2AotBlxhXD8Z6QOEXpoEbdadRvHgxlJO+MW14knFdps7MlhXgB7M1+idUuEeVq5Gp7JE5LKqjREptq1G8eDOWkbg2XtgCW6aeHAGBM8PI7AHCmPWUXusSIXC1uT9nfAwDCtv9F2E2/xIbjlU4r1OhLNtWoHw3MoG7Z3yl6EmtB18mssLlo9ufLkasdSVpzheftJK25LyJXa8QBEf0iUg6zThWlATW6jw016kcDA4ZDynZcfgnDIX8qeOkXAHC8PWX/heQpZSYOGhfjgFA3ekZwiNHa+Ox+ydMSBjVak3U16scYTIddZdqpYJXNPhO5Ng7I4TholL5RfoZe5oVUBFwNarQha2rUlx4M42TRE1jFu4LXUSN5XvJclBAHRDQHaTcLShYNarQ+a2rUzwbGptZat4ZlZjkKYfqpJ5CfcAcAfOraVqW2Shw0rsYBGRUIKurUWy0yOI8abcqaGvWzgYHltWP4wyInwEpTiJTW/GnkahNVeXA7sEZzrwtcOqhb9rCCKW0KatQ192nU7waG4hqOlyUXIBO6ZYsEMOM4IC8rmE4utKfsn7ADp1wYDnlKzYw2BjXqntUaoYEBqBkOuWI4Xp6dHb9Et2yRgNqROGj8o4Lp5ELSmvsCAPYJZJMWZWBQo+65R6N+3kVazQ1WhzS3nSV2PuQa5yncZuRq+xROq2tW1Od5mP3T/05a4UdJa66r9XttfHZSt2yX87bH8+y7hBpl06jK5fxk03mQduVlZAyHnOA94h8HpBTN69iOwewaPb0jADjQTQpA0grfFnh4CQDkaGBQoywa4RJpFYZDRLciRRBxvecUzIMLVnfk2hoPLrBSkbPdLDlZSQLec2EGy6bNC9Qog0ZoYO5n0PTTX5l+6unW8AOqbsJOovLmdhzPu8j4auiDazjkbzapOWsYDnmrm3NEcUCOsVIFPORy0ho1WiaLRmhg1oZaf1IbD+cVJnjxBpXbRfd8Nv100HDIdVYlbTN2Gw7ZtP0Mq9LG9XsZDslr1w81yqgRGpiNoW7er2rjs2/J3mUyHMI7XiDz/rzUxme/z+qf8Bhcr5sPxQE5xZnY9S2OzwqDGt1FVCM0MJuj65Z91HDINdNPL0j0aLjiCHFALku6Lzf0rahb9rRAzdmuWnewJQXP75eLgUGN7iKqERoYPkYB4Nemn16vjc/+V8PxDmYIOPJ+SQppULbirSiSpt918e6kFfLs3Bmmn+YR6EWNViCiEW5Ti7FTt2z680ew7EoDO+r+MTvY1k1AjCuAnGd+TgfWikPkrdjhXLcfpA+vbnEd9amzHlYqQY1WIKJRPxmYBgDsFwjcdcuo4JZmN+T+4LJtztmMrTh4AoP/zDn2SdNPy3QiHjW6H6OfDAy0p+yna+PhOYVGRhVd5yEYjrdbt+z9rCeOzrypG3FAprtNXV+xzSkcb0pa4en21AhP1TbV3ohqUKP7eaKfjgo0IlcjkK2oTlEciFxt02pjpp8+DwCn1vmfu2o1wVzu2Yw9dBZEShSYfppmuGfRoEZr3KMvg7ztKfv3WTpz4XVRu2TTmI7pp3UAeGWDjyy1mmABwTUR3OZczQcZ6p9U2YtBje5nsC8NTNKaux25GvVodmSoQ5obm7VZYdmYl7poEarrlj3N3oD3kGGbcyX0rfj7GeqfVKZl7GpQo7XpSwOzkvaU/UwcLBUB/6TouWTg2xyfXXpLmn56slPNL+M2J7AErONVqtxWAH2pUV8Fedciac0lSWvuLACcNxwySUUoek4CPMT5efqQHq+NL710z2bc5gTWiqPQFPkK0Jca9b0H04Fa9cjVXsjYrU8JCs9DHZWwzUld7rclzqmSoEZrgwZmFZGrnY0Dso0VPn5H4BSpCjbbVv9UcFy9wGDhWnSVtl5SUKM1QAOzBnHQiOOgcTFytT+IXG0b82qKNDSbifrLAuaXNVi4FlU2MKjR/YRoYLqAejXU0MQBGYwDQl1WHwB+yra57+QwhQ3rn9AHKA7Ivhx3YWS/FSHnIlIqQI3uJ+77IC8PcdD4GAA+joPGl/9mOJ7Oal8MMlf2sS5dWp5DHfUu5naVrtcNh6jedlfxVgRWg4eHKIc8JtToXng1+hgNTEaW30yNkLesoOmn/7eLnIgvP244Xi0OGhu+/Vg/m1HDWaoJy/swbMZtAHg5DsjbirY5H+P8/JHNck+yghrdB69GIRqY4vics94IdcEvbvYh9gCDgrek0m1O3ip1qo0LAzVagYhGGIMpDt61eNfBNfYAn+Gf0rrksc3JEzzM64gHanQv3BqhgSkIzuI99O3BVYgjcrUjbKs9a1BRerBwNaw1K88J91zOLKFGdxHVCA1MQfA+vN0EEVdD35Js10sUVcHCezAc4nEmkuVSewU1uouoRmhgioO3vKJu+ulbvDdhD7DIW1L5WxHunjDetLL9SuKAfKRuRveAGmXUCA1MQbBWELyxhKPMVeW9F+9b8kzkar+n/q24dML4fYE0+F8omtI9oEbZNUIDUyy8LTlBt+wfityoy7dkm34mcrUjIvfgRbfsgwJp8DObbQVLBjXKoBEamAKJXO08r1vcKTQuAnuAR9Z5K8dxQA50tlDzQLdskdjDCwqmsi6oUTaN0MAUz1XOzxumnxLRm1G3nxXaOgAAp1nBrWPLRyEavHMRhhVU4u3QGEWuVkQVQtSoe+7RCBPtCiZphTO6ZfPWB/Zq47Pz7amRvxO9L6sfW0g1P90aNll1Ny6SVviBmhltel/UqEtWa4QeTMEkrfC8yHW6Zb8ufzb5UBsPPZE0+aQVvqdmRpveFzXqktUaoYEpGLYLcJhVlOdh0PTTC6w3TiXQreEtpp+eAIAxgcvPFNHYDFAjHu7TCA1MCYhc7SwAvCpw6ajhkOtVeYBr4+EfslIXvEvzOK9dk/VAjTZlTY3QwJSEOCC+YOFxw3DI35T5AV4uaeEdEtnyhWW3e70+QrmCGq3PehphkLckMDf8dcMhIgfghuhbEgAezTlHZFNYvZwrGbppxkkrLEVBcdRoXdbVCD2YcnExQ1lF+pbkTlNXDTvDkqVVbyMOGmWoi9wBNbqfdTVCA1MilmsBL5VVFH2AR00/vVYbn31S8tS4MRzvm6xF74uCQ9wBgOORq5ViedQBNbqHTTVCA1MyWCJVli/VoG7ZQZZEr6yYfjpqOOQy6/8tugz/oKy9llCjL9lUIzQwJaQ9Zf+FhAQrz/TTX9fGZ/9c5PAdL4bjGYbj7Tf99BIAXMjYaiNqT9kvS5yedFCj7jTSMtygUEw/tVlDqm5pRK5W2BtDBOpKZ1wbr+R05GrHJI11D6afPp/xjb6SNgA8GrlameIu64IabQwamBKjW8PfqI2HocTi0AkANOOAhOww3YciOxqG49Ev1BOGQ4YAwJE5v6QVPt2eGsntMF9WUKONQQNTclhL0lmJb8nV0Ie4yYor0f9eWPlmMv10N3s4h1kbD1XzoF+sPZGrFZKtmwXUaH3QwFQA9gBfV9DmokycYr3BKwlqtDYY5K0A9G3VnrLtvGrR5gx1/0l7yv6zoieSBdRobdDAVISkNfdPkavtKur4viJusGBhI2nN3S56MllBje4HDUzFaE/Zv0/fJgU348/KHQA4056y91Vlt4gH1OguaGAqBn2L0LdJxmzSovlR5GpHktZcEdXplIMa3QUPO1YUlk26AwD2Gw55EQC+VfScumA6DsiPWbX+ngc1QgNTadgBs7MAcN5wiAsAJwTaS+RByJrV96THshH9rhFuU/cQpp8ektzvWAaELheKnkRZ6DeNMAbTQ0SudjYOyG8krfAw28koou5IAgBXk1b4YhyQHWhc7qXfNEIPpscx/fQgK4Go+jBdvNxwi7zaLzEWWfSyRhiD6XFY47DzhuPtBIAndMsepD8s4/QhANgqMOwXrHTkjTggC8sN2Bu8fZwRRi9rhB5Mn8Oaa+1kP/9+jXMsEQDcZP83ilwtLGiqfUuVNUIPps9hB9d6Mb29Z6iyRhjkRRBEGWhgEARRBhoYBEGUgQYGQRBloIFBEEQZaGAQBFEGGhgEQZSBBgZBEGWggUEQRBloYBAEUQYeFehzqnzOpV+YaPJpNFkvj0ZoYPoEWSd1TT+FspzU7TWGxpY12j5gDz48IK7RRPNejeanlzW6PI2nqbsGT1N3Ry/XGukVJpr5ajQ/TV69PJ2PRv1kYJQ1Fi8ThuPpumUf1C17FAB2F9BpsFMtbSZphRfjoNF3dXg3Y2jM07cP2AcfHihWo5uL4cytxfDi5Wl1GlXZwBgA8GuOS8LI1UYUTqlw+q3eaxWZaJZTo8m6Go0qa2Bg+QuVcnw8jlxtm8LpFAb1WvqxYn2VoF7L3rHyazRZl6vRV2UOljeGQ45yBMCoqD9JWnP/onhauWE4nkGXQ4ZD6BvxP5Y4aG8CwHHDIY8AwPWkNfdF0RPKi6Exz6DLob1j1dBo79iyRrcW5WhUdQ/m2hpbdusSB2QPa4ZVeQzH22045BL9z6LnIsDhyNXOFj0J1QyNebv3jlVXo8l6do2qnmjH6849pmgeuaFbw1tNP/UqbFwo75h++q5uDaveNSmE7QPDWyeaqVdh40J5Z6KZvrt9IJtGVfdgJgHA5bik8jtJpp9eAIDRouchiRsAsKfXGuBPNHtPo8m6mEaV9mDigPDu5e9WNBXl6NbwN9iSsFceXGCZqddNPz1BPbOiJ5OV7QPD35ho9qZGE830BPXMeC+utAdjON6g4ZBrnJftqNpuBtuSv15AvkSenIpc7YWiJyHKRLM/NJqs82lUaQ9GIAYDVXu7MOMyq/DBpX/D0wBwBABGAGBb5Gpa54f92wH6cClunXGUnYuqHMy45KrRZF3TOj95asTORXVNpT0YWP4CXgKAOsclcXvK3pG05kq/7qfLotp4GEp8cBMAaMYBCdlD+2EcNLh7I1PPEQCeMBwyBACOzPklrfDp9tTIRUnjKYcui559Tb5G89N3Nbo8za/R0NiyRnvH5Gt0czF8+q9f6k6jXjAw1CO5wHNNHJDDcdAo/TYp7zb8JigLcJt++jx7e8qAfpkerUrgl8VcpGk0WVej0URTvkbdBH6rvkSCyNVmAIArt8VwSKmXSWwr+oKEBzdOWuErcUB2qNw9i1ztjTgg2+Jg6e/azDgcfdNe063hr0uanhLYVrQUjW4uhq/MT5MdqowLZbKuvTE/TbbNT8vTaPvA5hpV3oOBuzVNeIO9u1hLztJh+qkHAFlPfhd2epx5le9mzAE5F7naMxKnJZWJphyNJuvFaDTRlKPRZH1jjSrvwcDd3r2fcF52wXC80iV6GY63GwCOZxhiIWmFTpGlKahXGQdLa3/qXd4RHOYptvQqHUNj2TW6uRg6RRkXWPZoZuans2vEll7r0hMeDIi/9aM4II/GQSNRNC0uDMczDId8luGtMhO52gHJ08qEQDLkal6IXE1W7CAzQ2OesXcsm0aT9XJpNNHMrtFkfW2NesKDgeXArchyh3owwwqmI8r+DA9uHAekdFnKcUAaGbdOPWp4JU4pK5k0mp8un0bz09k1ooZ3rf+h0qepV3Fz628d/i7vdpxu2Y8AwHtJa07UTZQCK7lwBgD+g8Dll+OADItsOauG/V3PJq3wU92yqUv+m5xD6HSY2788O6doil3DSi4IazQ/TYZFtpxVc2txWaNbi+GnDw+Ia/Q//8f9GvXMEgmW3XHqkXwmcGnhSwvTT+nyzhO4NGbLvNI9uKvJsJ1dilo+E01xjeanyaNlNC6rybCdHU/W79eoZ5ZIsBxcjFjQipfR2vhsYQFFVonuhMClM1UxLpT2lP0Tttbn9RYN00/fVTStrmCV6IQ0qopxobz3krhGE837NeopDwaWlxq24RCeWr0dEnayN9eta7Y0+leBSxciV9ulYErKYcbiMO91cUB2xUEj99QCtjQS0miyXk2NmLHg1mh+muy6PH1Xo57yYGBpzR9eZuc2eKHryCu18dnvK5jW+je17IMi1yWt8EX5s8mH9pTdYNmgXOiW/ayaGW3M9gExjW4uVlej914S02j7wL0a9aCBmbvDslZF2jLoumVP53nojlX/56XRnhr5OwXTyYWkNUeXsvt4r9Mt+yk1M9oYVv2fl8Zfv1RdjW4timn08MC9GvWcgVnBOcHrqCczm6OR4a1RE/dCfye2FOUtX2qyQH7ecGtUZBKdLCbrYhpNNO9q1LMGhgUURdfrBgBcq43P/qnkad0Da4rGta2etMI31c0oX5JWKLKUPalgKuvCmqJxaXRzsXc0urmYTaOeNTCscv1IlgQi3bJfMf10VmGil897QdIK/0rNVPInaYXnWbdBHkYNx8uzqBO3RrcWe0ejW4tiGg2NLWvUswYGlt3wOA7IvoxZiku7UobjHdStYWn9bFivaF53/3QvdUpkRzSeYTt4PHxb0ZTugfWK5tZIZafEvLk8nU2jnjYwsPwQtyWk0A8aDjlXGw+56s5swhOcn0+qXrB8LSJXa/LGywyHPK5uRvfArZHKkgtFMVnn12jv2LJGPW9gYNnIXGW1SrImO9VNP/216acXDMfbn2Ug3bJ5g8hZa3iUFnZeiecNmUsAfvsAatSBnVfi1qgvDAwsG5mLcUBkRPaN5TgAmTH99DNW+4QbXgPDylz2JGzZx7OM3alwOl/yMKeBYWUuexK27OPWqG8MDOOs5KLIdH1+gXo0pp/ybmXyBip7Zl2/Djy/X15b1ajRvXBr1FcGJg4aSRyQPYLboxtBvZgrpp9eN/30Um18dtJwvEOG4z2+QVGrhzjv8aGEeZaWOCBc+Ramn9rqZvMlqNEK5qf5NJpopnZZG3ErY3nnonHM9FNd5KzFJlC3cKdu2XXduvv8G87Syixa9QbgaWIViR5onGimdQB4ji3tYgB4mwXtMjM05g3uHSPPr/Ao5uanyWnBg30fc36e/oGFlyTsfNFuptlqT+Vr7N+5NKrKgcYMcGvUdwamQ+RqRwzHe8NwyF8CQB67EmYG157LIGwfGN6yfcD+4d4xcniNLNTRiWZ6dX6anLm1GP4VqwXCxfaB4a8/+1r4CvPcVm7d29Tg7B0jp997yf7xrcW52xzD8n45hfqMM6NIDe5TAPCAyBjr0LMB3hVwa9RXS6TVxEFjIQ7I7yhuViUDLtd7+4D9LP2Sb5Divpv+76sPpnXLs6+FrwPA06uMSwfqKbnPvhZyZUHHQYP37Bh38iMzLtcA4Khk4wK9vjyC5UAvt0Z9bWBg+cGOI1fblbTC4wIZi3nBFTzcO0a6Kkjd7edWwlLnv9vFR492sjk54Pk9uWMwe8fIf+G9hoNeD/B24NKo7w1Mh/bUyBsAsEPgcFcedO1hsdae3W6vDvK2AmWp890srY29Y+Qo59jKvqTsAJ6javwKeMGy4NIIDcwK2NGCA1mChyrg7HLI+2bn/TxPHKlMBdWVJud10+WwH0EDs4o4aLQjVxuJA7ILAN4ROINRNLyxia4/PzTmSTuLVQCVbKxfddDArEMcNBYiV/sDAHiwYjsEvN5X159nB9943tRlikv0yxKmVKCB2QS6PIlcbR/1aJJW6LMHNVevhiepjCVDfd7lxz/nTZ7iKF+QzE+TNzjHVlaGgaXxK1vGTDRzSfwrA1waoYHpEurRtKdGJlih7QdF6oRkoOtlDPMy3uny4++wz3fNZF17tctypDMriz93Cc8ZI66xL0834gxVDruhTM3hVMKlERoYAZhXMxEH5DfigAzFwdJ27xn20KvI5uQKlr73kv0XrLfNem9s+u+n2Oe4ubkY/mgDI3OHGpf3XrJf5hlToIgU99+ZFbIWaWvTDWUKaCtBIO2g3beZvDJgBZN+QX/ioPHlv9Mvi+EspaE/wZLdjIxBRi73+9bi3O3JuvYCALww0UzfYollHU5nrVny1y+N0N/50YlmeoL10Om8vSP6/0/WtfMCw/KekOZObLu1ONeerGsH2Nb8+5JPZffDEolbIzQwClguctWY2ehtafppyjGksHFixkRJESS2XHpV0nBf4/y8cDxlsq4tDI15u9hZJH2tmNpkXQsnmvloVCG4NUIDUxxf8KSrG443WETTsbzIuwDX5elGcnm6sdkOGpdGQ2PeoEDcqTKIFODCGExxfML5ed7yjZWC08DEkauJ9L3iBTVaAWcBrniyrt1AA1McXF8QwyFD6qZSLKxrA8/vx/vFF4VLo71jvavR0JiYRmhgCiIOCK8rrfIcTaEYztIuHE/tlVwMzPw0atSBHYzl1ggNTHHwPrw100+fVzSXwmDtW7h+L97qdxng1mii2XsasfYtXL9XJ4ETDUxBxEHjQ4GdkFMKm8AVguGQtwSS1HKpvXJ5WkwjtpzoGfaOiWuEBqZYRJK+eiahi9Ur5s0fiQWKU2WhrzUaGhPTqFOcCg1MgcQBeZX3XJPhcNdYKS26ZT8ncFmuTeXnp/k1EqiDU1q2D2TTSJM7HYQX00+vbFDacj0ORK6mKuU9F0w/pS73r9Ypu7keceRq2xROa00mmmIaTdarrdFEU0yjyfpdjdCDKZikFYocwHvXcLxvKphOLujW8AMAcInzwaV8oGhKG3JzUUyjobHqarR9QI5GaGAKJmmFFwUuMwyHvKJgOrlQGw//UMAjoEvKQgzMrUUxjfaOVVejZ18T02h+mqCBKROsbapIXOG7pp9OGk61qsyxnt4vCly6kLTCOQVT2hTWNlVIo4lmOlm1SoBDY+Ia3Vq8VyOMwZQE009nBU/kLsQB2cNOdpcaw/F2Gw65InAp/d0e5KxNLJ2JprhG89NkD2/tnSIYGvN27x0T12h1bWL0YMrDEcHrBgHgoOS5KMFwyAnBS68WbVwYPa/R3jFxjdYqfI4GpiRErkbd8GmRaw2HvG766fO6NVzK0/HUczH99ALrBMlN0gpPyZ8VP5N1cY32jpHXJ5rp89sHyqkR9VwmmuIa3VxcW6OvZp4ZIpPrumX/kcB1vwkA9a2/dfhf4qDxCwXzEsZwvP2GQ4IMxZ1mPn91R0PytLJw/eEBcY0Gfufwv1yeLpdGQ2Pe/r1j2TR669DaGqEHUyJYhuphVnZShFdMP31Xt4ZFe2BLQ7eGHzD91DMcIvTGZ5yJA/KMxGllhmWoZtJoopm+u32geI22Dww/MNFMvb1j2TSan15fIwzylhBqJNhDLEobAPZFrlZI8SOWRHdJZJtzBVcjV9sjcVpSoUZChkaT9WI0Ykl0mTWarG+sEXowJaQ9tVScOst5mxoAXDP99EptfPZQXlvZhuOZtfHZSZb9meXBTVgh9dLCCohn1miimV75wWuzh/Layh4a88wfvCZHo/npzTVCD6akMC/guqReQTEAPBO5mpIGcobj7WSnomUUvk4AYE9R3hcPzAuQqtFkXY1GQ2PeTnYqWppG3Xhf6MGUFLYtK2v3hH4RLtClFzvBLGdQxzNMPyUst0VWVf1mFYwL3O1HLVUjuvRiJ5ilMDTmGRPNlLDcFmkadbu0Qw+mxOjW8NbaePjnrO2ILBc6YYWUIla46WO6KtusBALrW7QTAL6mW/Ygq6E7xFnlbDNm2lP2saQ1p6K3lBK2DwxvffY1dRqxwk1LGnVKIKwH61u0pNH2AXuQ1dCVrtF7L9nHbi12pxEamApg+kt9fK5IfIDXI1qjn3RNcv+g9ZiJXO1ADvdRAuu11PMaTdb5NEIDUxFq47P7dcs+rbJ/c0HQt3Wzap7LWvzgtdn9Dw/0rkY8nksHNDAVggV+r9H/LHoukqhMQLdbWOC35zQS3U7HIG+FiFwtbk/ZDmviLproVRauxgGxe8m4AAv8vvdS72g0P03sLLk66MFUFNZhoBRndAQ4E7ma6MHBysA6DFRWo8l6do3Qg6kokau9AQAvZOnRXBAzcUCU9MouG5P16mo0Py1HIzzsWGHioHEVAN6m6+Qt28zBHHYwRKHr+MtJKzz++as7GklrrupLh665PH1XI+Nr5dfo5mJ4/K1DOxq3FuVohEukHkLCGSYV0PX7SEnquRSOhDNMKljSaK16LllBA9NjGI43qFv2s7plP1XgTgZ9UD+IA/JB0grnktZc6Su55cnQmDe4fcB+9uGB4jWanyYf3FoM524tqtEIDUwPY/opfXhPihYREoA+tITFh5AumGgWoxGLDykHDUwfwNL8v2045HFWvnGnhDdnzBqcf8KOHHyYc8fFnoKl+X9775gajdiRgw83O24gGzQwfYzppzY7APcYO2y33mG4BVa/pNOruRm5GhqTHJhoims0WS9eo/8fAAD//7BDnqfZ2hPbAAAAAElFTkSuQmCC;" vertex="1" parent="1">
                    <mxGeometry x="540" y="470" width="60" height="60" as="geometry"/>
                </mxCell>
                <mxCell id="13" value="Proxy Server" style="shape=image;verticalLabelPosition=bottom;labelBackgroundColor=default;verticalAlign=top;aspect=fixed;imageAspect=0;image=data:image/png,iVBORw0KGgoAAAANSUhEUgAAAgAAAAIACAYAAAD0eNT6AAABdWlDQ1BrQ0dDb2xvclNwYWNlRGlzcGxheVAzAAAokXWQvUvDUBTFT6tS0DqIDh0cMolD1NIKdnFoKxRFMFQFq1OafgltfCQpUnETVyn4H1jBWXCwiFRwcXAQRAcR3Zw6KbhoeN6XVNoi3sfl/Ticc7lcwBtQGSv2AijplpFMxKS11Lrke4OHnlOqZrKooiwK/v276/PR9d5PiFlNu3YQ2U9cl84ul3aeAlN//V3Vn8maGv3f1EGNGRbgkYmVbYsJ3iUeMWgp4qrgvMvHgtMunzuelWSc+JZY0gpqhrhJLKc79HwHl4plrbWD2N6f1VeXxRzqUcxhEyYYilBRgQQF4X/8044/ji1yV2BQLo8CLMpESRETssTz0KFhEjJxCEHqkLhz634PrfvJbW3vFZhtcM4v2tpCAzidoZPV29p4BBgaAG7qTDVUR+qh9uZywPsJMJgChu8os2HmwiF3e38M6Hvh/GMM8B0CdpXzryPO7RqFn4Er/QcXKWq8UwZBywAAADhlWElmTU0AKgAAAAgAAYdpAAQAAAABAAAAGgAAAAAAAqACAAQAAAABAAACAKADAAQAAAABAAACAAAAAAAoMJe/AAAhkElEQVR4Ae3dv3Idx5UHYF0QDwA+gUCAuRk6M5htZinbjURmm0nOnAl8AptPICpzJjnbjQhlzhabbZWKxFW2GeGcvNjTKsyaxUtaI8709J/5UIW6wHCm+/R3oJrfnRlAn3zigwABAgQIECBAgAABAgQIECBAgAABAgQIECBAgAABAgQIECBAgAABAgQIECBAgAABAgQIECBAgAABAgQIECBAgAABAgQIECBAgAABAgQIECBAgAABAgQIECBAgAABAgQIECBAgAABAgQIECBAgAABAgQIECBAgAABAgQIECBAgAABAgQIECBAgAABAgQIECBAgAABAgQIECBAgAABAgQIECBAgAABAgQIECBAgAABAgQIECBAgAABAgQIdCKw6WQdH1zG8fHxUfzj0Z07dx7c3Nx8Gl/f3Ww26dUHAQIECBD4WSDODz/FF6/i/PDTwcHB9scff7zsnaa7AJBO+HGy/ywa97to6IN4TZ8+CBAgQIDArxVIIeAyQsHFmzdvftjGx68doOb9uwgAcdI/jsT2RTTpLE76ZzWDq40AAQIEmhVIgeDZbrf7aw9hoNkAcHtp/7N4t/+Fk36z/zEpnAABAk0KpKsCUfizFy9efNvkAqLo5gJAOvHHu/0vo/av4vOoVXh1EyBAgEAXAtsIA+ctBoGmAsDJyUk68Z/HpxN/F//dWAQBAgS6EWguCDQRAO7fv38WD2B8EynruJsfFQshQIAAgR4FtvGMwON4RuCi9sVVHQBuL/d/HYjpcr8PAgQIECDQikB6WPBJzQ8LVhsAvOtv5WdcnQQIECDwAYF0NeDzCAGXH/j3opvvFJ39A5One/3xZP9f4pK/e/0fMLKZAAECBKoXOIrz2L/fvXv3k1evXv1QW7XVBYA4+f8pkM5rg1IPAQIECBD4SIGzCAFHEQL+8yOPz3JYNbcA0v3++J3+7/xOf5Y+G5QAAQIECgvE+e0iPtMtgevCpfw8fRUBIJ384zLJ8/h8UAOKGggQIECAQA6BCACX8fmwhhBQPAA4+ef4ETMmAQIECNQqUEsIOCgNlC77e+dfugvmJ0CAAIGlBNI5Lz6/W2q+D81T9CHA2wf+/vVDxdlOgAABAgR6FIgAcFz6wcBiASBO/ukP/Pyxx8ZaEwECBAgQGCHw2wgBf4/fDvjbiH1n36XIMwBx3/9B/A99/mv21RiQAAECBAg0JhB/LCg9FHixdNmLPwMQJ//jGu59LA1tPgIECBAg8D6BeEP8TXog/n3/lnPb4gEgTv7n6d5HzkUZmwABAgQINCRwHCEg3RZf9GPRWwCnp6efxa8/FH/ycVFhkxEgQIAAgRECS98KWPQKQCwu/ZlfHwQIECBAgMA7AulWwDubsn67WACI+xuPXPrP2kuDEyBAgEDbAsfxG3JfLbWExW4B3Lt370oAWKqt5iFAgACBRgWu42r5vSX+VPAiVwC8+2/0x1DZBAgQILC0wFHcCljkKsAiASDe+S/+dOPSHTMfAQIECBCYSeDLmcb5p8NkDwDe/f9Tf/9IgAABAgTeFTiKc+fv39049/fZA0D8z36+mLto4xEgQIAAgZ4F4sp59tsAWR8CjAST/rjBVc9NsjYCBAgQIJBD4PZhwG2OsdOYWa8AxMn/s1yFG5cAAQIECPQsEOfQRznXlzUAROEu/+fsnrEJECBAoFuB+Mu5v8u5uGy3AFz+z9k2YxMgQIDAGgTiNsDdXH8TIOcVgLM1NMcaCRAgQIBALoF4kD7brfRsASCeYDzLBWJcAgQIECCwBoG4DfAg1zpzBoDf5CrauAQIECBAYCUC2Z4DyBYAojHZUstKmm6ZBAgQIEAg27k0SwCIBwCzFexngQABAgQIrEkgPVSfY71ZAkA8tJCl2BwAxiRAgAABApULZLmlfphj0fHQwnGOcWce8zrq3MaY1zOPazgCBAgQaESghQfW4w8C3cvBmSUARKFHOYqdccyn8buV57l+t3LGOg1FgAABAhkFbv9mzaOY4uuM00wdOss5NUsASFcAIlVNXXCu45+8fPnyPNfgxiVAgACBdgTijeA2qj0/OTlJJ9lF/je8v1Ynzqef/tpjxuyf5RmAMRMX2uc63vk/KzS3aQkQIECgUoF0VThKW9Ut4VUFgLgycXmb9ir9EVQWAQIECJQQuL0lvC0xd6k5VxUASiGblwABAgTqF4hL7a4A1N8mFRIgQIAAAQJTBFwBmKLnWAIECBAg0KiAANBo45RNgAABAgSmCAgAU/QcS4AAAQIEGhUQABptnLIJECBAgMAUAQFgip5jCRAgQIBAowICQKONUzYBAgQIEJgiIABM0XMsAQIECBBoVEAAaLRxyiZAgAABAlMEBIApeo4lQIAAAQKNCggAjTZO2QQIECBAYIqAADBFz7EECBAgQKBRAQGg0cYpmwABAgQITBEQAKboOZYAAQIECDQqIAA02jhlEyBAgACBKQICwBQ9xxIgQIAAgUYFBIBGG6dsAgQIECAwRUAAmKLnWAIECBAg0KiAANBo45RNgAABAgSmCAgAU/QcS4AAAQIEGhUQABptnLIJECBAgMAUAQFgip5jCRAgQIBAowICQKONUzYBAgQIEJgiIABM0XMsAQIECBBoVEAAaLRxyiZAgAABAlMEBIApeo4lQIAAAQKNChw2WreyCRAgUFTg/v37Z0ULaGzy169fb9NHY2V3Xa4A0HV7LY4AgVwCu93uea6xexz3zp07j2Ndz3pcW6trcgug1c6pmwABAgQITBAQACbgOZQAAQIECLQqIAC02jl1EyBAgACBCQICwAQ8hxIgQIAAgVYFBIBWO6duAgQIECAwQUAAmIDnUAIECBAg0KqAANBq59RNgAABAgQmCAgAE/AcSoAAAQIEWhUQAFrtnLoJECBAgMAEAQFgAp5DCRAgQIBAqwICQKudUzcBAgQIEJggIABMwHMoAQIECBBoVUAAaLVz6iZAgAABAhMEBIAJeA4lQIAAAQKtCggArXZO3QQIECBAYIKAADABz6EECBAgQKBVAQGg1c6pmwABAgQITBAQACbgOZQAAQIECLQqIAC02jl1EyBAgACBCQICwAQ8hxIgQIAAgVYFBIBWO6duAgQIECAwQUAAmIDnUAIECBAg0KqAANBq59RNgAABAgQmCAgAE/AcSoAAAQIEWhUQAFrtnLoJECBAgMAEAQFgAp5DCRAgQIBAqwICQKudUzcBAgQIEJggIABMwHMoAQIECBBoVUAAaLVz6iZAgAABAhMEBIAJeA4lQIAAAQKtCggArXZO3QQIECBAYIKAADABz6EECBAgQKBVAQGg1c6pmwABAgQITBAQACbgOZQAAQIECLQqIAC02jl1EyBAgACBCQICwAQ8hxIgQIAAgVYFBIBWO6duAgQIECAwQeBwwrEOJUCAwGoFdrvdvdUu/uMWfv1xhzkql4AAkEvWuAQIdC2wjY+uF2hx3Qu4BdB9iy2QAAECBAjsCwgA+ya2ECBAgACB7gUEgO5bbIEECBAgQGBfQADYN7GFAAECBAh0LyAAdN9iCyRAgAABAvsCAsC+iS0ECBAgQKB7AQGg+xZbIAECBAgQ2BcQAPZNbCFAgAABAt0LCADdt9gCCRAgQIDAvoAAsG9iCwECBAgQ6F5AAOi+xRZIgAABAgT2BQSAfRNbCBAgQIBA9wICQPcttkACBAgQILAvIADsm9hCgAABAgS6FxAAum+xBRIgQIAAgX0BAWDfxBYCBAgQINC9gADQfYstkAABAgQI7AsIAPsmthAgQIAAge4FBIDuW2yBBAgQIEBgX0AA2DexhQABAgQIdC8gAHTfYgskQIAAAQL7AgLAvoktBAgQIECgewEBoPsWWyABAgQIENgXEAD2TWwhQIAAAQLdCwgA3bfYAgkQIECAwL6AALBvYgsBAgQIEOheQADovsUWSIAAAQIE9gUEgH0TWwgQIECAQPcCAkD3LbZAAgQIECCwLyAA7JvYQoAAAQIEuhcQALpvsQUSIECAAIF9AQFg38QWAgQIECDQvcBh9yt8a4GbzebB6enpN29t8iUBAgQIEPhZYLfbHcd5YjUaqwoA0dWjm5ubR6vproUSIECAwGiBNZ38E4pbAKN/NOxIgAABAgT6ERAA+umllRAgQIAAgdECAsBoKjsSIECAAIF+BASAfnppJQQIECBAYLSAADCayo4ECBAgQKAfAQGgn15aCQECBAgQGC0gAIymsiMBAgQIEOhHQADop5dWQoAAAQIERgsIAKOp7EiAAAECBPoREAD66aWVECBAgACB0QICwGgqOxIgQIAAgX4EBIB+emklBAgQIEBgtIAAMJrKjgQIECBAoB8BAaCfXloJAQIECBAYLSAAjKayIwECBAgQ6EdAAOinl1ZCgAABAgRGCwgAo6nsSIAAAQIE+hEQAPrppZUQIECAAIHRAgLAaCo7EiBAgACBfgQEgH56aSUECBAgQGC0gAAwmsqOBAgQIECgHwEBoJ9eWgkBAgQIEBgtIACMprIjAQIECBDoR0AA6KeXVkKAAAECBEYLCACjqexIgAABAgT6ERAA+umllRAgQIAAgdECAsBoKjsSIECAAIF+BASAfnppJQQIECBAYLSAADCayo4ECBAgQKAfAQGgn15aCQECBAgQGC0gAIymsiMBAgQIEOhHQADop5dWQoAAAQIERgsIAKOp7EiAAAECBPoREAD66aWVECBAgACB0QICwGgqOxIgQIAAgX4EBIB+emklBAgQIEBgtMDh6D372PH65ubmso+lWAUBAgQIzCmw2WwexHhHc45Z81irCgDp5H91dfWw5oaojQABAgTKCJyenj6P88RZmdmXn9UtgOXNzUiAAAECBIoLCADFW6AAAgQIECCwvIAAsLy5GQkQIECAQHEBAaB4CxRAgAABAgSWFxAAljc3IwECBAgQKC4gABRvgQIIECBAgMDyAgLA8uZmJECAAAECxQUEgOItUAABAgQIEFheQABY3tyMBAgQIECguIAAULwFCiBAgAABAssLCADLm5uRAAECBAgUFxAAirdAAQQIECBAYHkBAWB5czMSIECAAIHiAgJA8RYogAABAgQILC8gACxvbkYCBAgQIFBcQAAo3gIFECBAgACB5QUEgOXNzUiAAAECBIoLCADFW6AAAgQIECCwvIAAsLy5GQkQIECAQHEBAaB4CxRAgAABAgSWFxAAljc3IwECBAgQKC4gABRvgQIIECBAgMDyAgLA8uZmJECAAAECxQUEgOItUAABAgQIEFheQABY3tyMBAgQIECguIAAULwFCiBAgAABAssLCADLm5uRAAECBAgUFxAAirdAAQQIECBAYHkBAWB5czMSIECAAIHiAgJA8RYogAABAgQILC8gACxvbkYCBAgQIFBcQAAo3gIFECBAgACB5QUOl5/SjAQIEGhf4P79+2ftr2K5Fbx+/XqbPpab0Uy/JCAA/JKQfydAgMB7BHa73fP3bLbpAwJ37tx5HP/07AP/bHMBAbcACqCbkgABAgQIlBYQAEp3wPwECBAgQKCAgABQAN2UBAgQIECgtIAAULoD5idAgAABAgUEBIAC6KYkQIAAAQKlBQSA0h0wPwECBAgQKCAgABRANyUBAgQIECgtIACU7oD5CRAgQIBAAQEBoAC6KQkQIECAQGkBAaB0B8xPgAABAgQKCAgABdBNSYAAAQIESgsIAKU7YH4CBAgQIFBAQAAogG5KAgQIECBQWkAAKN0B8xMgQIAAgQICAkABdFMSIECAAIHSAgJA6Q6YnwABAgQIFBAQAAqgm5IAAQIECJQWEABKd8D8BAgQIECggIAAUADdlAQIECBAoLSAAFC6A+YnQIAAAQIFBASAAuimJECAAAECpQUEgNIdMD8BAgQIECggIAAUQDclAQIECBAoLSAAlO6A+QkQIECAQAEBAaAAuikJECBAgEBpAQGgdAfMT4AAAQIECggIAAXQTUmAAAECBEoLCAClO2B+AgQIECBQQEAAKIBuSgIECBAgUFpAACjdAfMTIECAAIECAgJAAXRTEiBAgACB0gICQOkOmJ8AAQIECBQQEAAKoJuSAAECBAiUFhAASnfA/AQIECBAoICAAFAA3ZQECBAgQKC0gABQugPmJ0CAAAECBQQEgALopiRAgAABAqUFDksXYH4CBAi0KLDb7R62WHfBmi8Lzm3q9wgIAO9BsYkAAQK/JLDdbi9+aR//TqBmAbcAau6O2ggQIECAQCYBASATrGEJECBAgEDNAgJAzd1RGwECBAgQyCQgAGSCNSwBAgQIEKhZQACouTtqI0CAAAECmQQEgEywhiVAgAABAjULCAA1d0dtBAgQIEAgk4AAkAnWsAQIECBAoGYBAaDm7qiNAAECBAhkEhAAMsEalgABAgQI1CwgANTcHbURIECAAIFMAgJAJljDEiBAgACBmgUEgJq7ozYCBAgQIJBJQADIBGtYAgQIECBQs4AAUHN31EaAAAECBDIJCACZYA1LgAABAgRqFhAAau6O2ggQIECAQCYBASATrGEJECBAgEDNAgJAzd1RGwECBAgQyCQgAGSCNSwBAgQIEKhZQACouTtqI0CAAAECmQQEgEywhiVAgAABAjULCAA1d0dtBAgQIEAgk4AAkAnWsAQIECBAoGYBAaDm7qiNAAECBAhkEhAAMsEalgABAgQI1CwgANTcHbURIECAAIFMAgJAJljDEiBAgACBmgUEgJq7ozYCBAgQIJBJQADIBGtYAgQIECBQs4AAUHN31EaAAAECBDIJCACZYA1LgAABAgRqFjisubi5a9tsNg9OT0+/mXtc4xEgQIBA+wK73e44zhPtL2TkClYVAMLk6Obm5tFIG7sRIECAwIoE1nTyT211C2BFP9yWSoAAAQIEBgEBYJDwSoAAAQIEViQgAKyo2ZZKgAABAgQGAQFgkPBKgAABAgRWJCAArKjZlkqAAAECBAYBAWCQ8EqAAAECBFYkIACsqNmWSoAAAQIEBgEBYJDwSoAAAQIEViQgAKyo2ZZKgAABAgQGAQFgkPBKgAABAgRWJCAArKjZlkqAAAECBAYBAWCQ8EqAAAECBFYkIACsqNmWSoAAAQIEBgEBYJDwSoAAAQIEViQgAKyo2ZZKgAABAgQGAQFgkPBKgAABAgRWJCAArKjZlkqAAAECBAYBAWCQ8EqAAAECBFYkIACsqNmWSoAAAQIEBgEBYJDwSoAAAQIEViQgAKyo2ZZKgAABAgQGAQFgkPBKgAABAgRWJCAArKjZlkqAAAECBAYBAWCQ8EqAAAECBFYkIACsqNmWSoAAAQIEBgEBYJDwSoAAAQIEViQgAKyo2ZZKgAABAgQGAQFgkPBKgAABAgRWJCAArKjZlkqAAAECBAYBAWCQ8EqAAAECBFYkIACsqNmWSoAAAQIEBgEBYJDwSoAAAQIEViQgAKyo2ZZKgAABAgQGAQFgkPBKgAABAgRWJCAArKjZlkqAAAECBAYBAWCQ8EqAAAECBFYkcLiitaalXt/c3FyvbM2WS4AAAQIjBDabzfGI3brZZVUBIE7+l1dXVw+76Z6FECBAgMBsAqenp8/jPHE224CVD+QWQOUNUh4BAgQIEMghIADkUDUmAQIECBCoXEAAqLxByiNAgAABAjkEBIAcqsYkQIAAAQKVCwgAlTdIeQQIECBAIIeAAJBD1ZgECBAgQKByAQGg8gYpjwABAgQI5BAQAHKoGpMAAQIECFQuIABU3iDlESBAgACBHAICQA5VYxIgQIAAgcoFBIDKG6Q8AgQIECCQQ0AAyKFqTAIECBAgULmAAFB5g5RHgAABAgRyCAgAOVSNSYAAAQIEKhcQACpvkPIIECBAgEAOAQEgh6oxCRAgQIBA5QICQOUNUh4BAgQIEMghIADkUDUmAQIECBCoXEAAqLxByiNAgAABAjkEBIAcqsYkQIAAAQKVCwgAlTdIeQQIECBAIIeAAJBD1ZgECBAgQKByAQGg8gYpjwABAgQI5BAQAHKoGpMAAQIECFQuIABU3iDlESBAgACBHAICQA5VYxIgQIAAgcoFBIDKG6Q8AgQIECCQQ0AAyKFqTAIECBAgULmAAFB5g5RHgAABAgRyCAgAOVSNSYAAAQIEKhcQACpvkPIIECBAgEAOAQEgh6oxCRAgQIBA5QKHldenPAIECFQpcBwfVRZWb1HX2+32ut7y1leZALC+nlsxAQIzCBwcHFzNMMxqhthsNo9jsc9Ws+AGFuoWQANNUiIBAgQIEJhbQACYW9R4BAgQIECgAQEBoIEmKZEAAQIECMwtIADMLWo8AgQIECDQgIAA0ECTlEiAAAECBOYWEADmFjUeAQIECBBoQEAAaKBJSiRAgAABAnMLCABzixqPAAECBAg0ICAANNAkJRIgQIAAgbkFBIC5RY1HgAABAgQaEBAAGmiSEgkQIECAwNwCAsDcosYjQIAAAQINCAgADTRJiQQIECBAYG4BAWBuUeMRIECAAIEGBASABpqkRAIECBAgMLeAADC3qPEIECBAgEADAgJAA01SIgECBAgQmFtAAJhb1HgECBAgQKABAQGggSYpkQABAgQIzC0gAMwtajwCBAgQINCAgADQQJOUSIAAAQIE5hYQAOYWNR4BAgQIEGhAQABooElKJECAAAECcwsIAHOLGo8AAQIECDQgIAA00CQlEiBAgACBuQUEgLlFjUeAAAECBBoQEAAaaJISCRAgQIDA3AICwNyixiNAgAABAg0ICAANNEmJBAgQIEBgbgEBYG5R4xEgQIAAgQYEBIAGmqREAgQIECAwt4AAMLeo8QgQIECAQAMCAkADTVIiAQIECBCYW0AAmFvUeAQIECBAoAEBAaCBJimRAAECBAjMLSAAzC1qPAIECBAg0ICAANBAk5RIgAABAgTmFjice0DjESBAYA0Cu93u4RrWOeMaL2ccy1AzCAgAMyAaggCB9Qlst9uL9a3ainsScAugp25aCwECBAgQGCkgAIyEshsBAgQIEOhJQADoqZvWQoAAAQIERgoIACOh7EaAAAECBHoSEAB66qa1ECBAgACBkQICwEgouxEgQIAAgZ4EBICeumktBAgQIEBgpIAAMBLKbgQIECBAoCcBAaCnbloLAQIECBAYKSAAjISyGwECBAgQ6ElAAOipm9ZCgAABAgRGCggAI6HsRoAAAQIEehIQAHrqprUQIECAAIGRAgLASCi7ESBAgACBngQEgJ66aS0ECBAgQGCkgAAwEspuBAgQIECgJwEBoKduWgsBAgQIEBgpIACMhLIbAQIECBDoSUAA6Kmb1kKAAAECBEYKCAAjoexGgAABAgR6EhAAeuqmtRAgQIAAgZECAsBIKLsRIECAAIGeBASAnrppLQQIECBAYKSAADASym4ECBAgQKAnAQGgp25aCwECBAgQGCkgAIyEshsBAgQIEOhJYFUBYLPZHPXUPGshQIAAAQIfK7CqABBIx/EhBHzsT4vjCBAg0KlAOjnc3Nycdbq89y5rbQHg6ODg4Ov3SthIgAABAqsViHPDF2tb/GGOBcel9m2OcWca86uTk5Pr3W737TY+ZhrTMAQIECDQoEC6Knz7xvCrWsuPKxM/5agtSwCIQq9zFDvjmOfR8PPT09OLGcc0FAECBAg0JBAn1nRL+Dg+a781nOWcmiUApCsAAVv9j8Ha7vdU3xAFEiBAgMCeQFyxvtrbOMOGLM8AvHnz5nKG2gxBgAABAgQIfPJJllsAWQJAdCvL5Qo/BQQIECBAYG0C8bhaljfVWQJAFJsCQJaC19Z46yVAgACBVQtkO5dmCQCpVXF//b9X3TKLJ0CAAAEC0wWaDAAX09dtBAIECBAgsF6BeKj+Itfqs10BiIK/z1W0cQkQIECAwBoE4qH6H3KtM1sASM8BxG2Ai1yFG5cAAQIECHQucBnn0m2uNWYLAKnguHSRLbnkAjEuAQIECBCoRODbnHVkDQDxxwue5Sze2AQIECBAoFeBOIdmvZWeNQCkSxduA/T6o2ldBAgQIJBLIJ070zk01/hp3KwBIE0Qi8h6CSPN4YMAAQIECPQkEP+/mme515M9AMQC0iWM69wLMT4BAgQIEOhEYPvixYvsb56zB4C4gpFO/k87aYplECBAgACBrALxAP151gluB98sMcnt/285/d+MjpaYzxwECBAgQKBRge3Lly/vLVF79isAaRG3VwGeLLEgcxAgQIAAgVYFlnr3n3wWuQIwNOLevXtXsbjj4XuvBAgQIECAwP8LLPbuP824yBWAYWnxGwGPh6+9EiBAgAABAv8QiN/7X/QceecfU+f/6vr6ens3PmKm3+afzQwECBAgQKAZgWdXV1eLPjC/6BWA1IZIOOdxJWDbTEsUSoAAAQIE8gps49z4JO8U+6MvHgDSA4FuBew3whYCBAgQWKdAnPw/j3PjdunVL3oLYFjc7a2Av8f3/zJs80qAAAECBFYo8CQu/f+lxLqLBIC00FevXv3N8wAlWm5OAgQIEKhE4Gn8zv8fS9WyKTXxMG/8auDz+NXAs+F7rwQIECBAoHeBuBV+Ee/8H5Zc5+LPALy72ED4PD4v393uewIECBAg0KNAOuelc1/ptRW/ApAA0p8KjqsA6UrAg9Ig5idAgAABArkEbk/+D2//Qm6uaUaNW/wKQKoyQQTKw/i8GFW1nQgQIECAQGMC6RyXznU1nPwTXRVXAN7u4cnJyZ/j+y/f3uZrAgQIECDQuEB64O+rmtZQ7LcAPoQQvx3wH/HbASmYnH1oH9sJECBAgEBDAn+Ik/95bfVWdwVgAIrnAh7EMwHfxefxsM0rAQIECBBoSCD9hb/Hccn/osaaq7sCMCDFHwv636Ojo7/G93c9HDioeCVAgACBRgSexsn/3+Lk/z+11lvtFYC3weJqwGcRAv7kasDbKr4mQIAAgQoFqn7X/7ZXEwFgKDiCwKMIAV8LAoOIVwIECBCoROA66ngS9/rTg+xNfDQVAAZRQWCQ8EqAAAEChQXSiT9d7v9zLb/eN9ajyQAwLO42CHwRVwTOhm1eCRAgQIBAboHb3+l/Gif973PPlWv8pgPAgBJB4Pjg4OD30ZB0i+DBsN0rAQIECBCYSyCd9OMc80O8238WJ/7tXOOWGqeLAPA2XgoD8f3Z7VWB3wgEb+v4mgABAgTGCsQJ//L2hH8Zx3wf5/x0ub+bj+4CwPs6E5kgXRVIVwk+jde78ZlefRAgQIAAgUHgp/jiVby7T6/phH/d2wl/WKhXAgQIECBAgAABAgQIECBAgAABAgQIECBAgAABAgQIECBAgAABAgQIECBAgAABAgQIECBAgAABAgQIECBAgAABAgQIECBAgAABAgQIECBAgAABAgQIECBAgAABAgQIECBAgAABAgQIECBAgAABAgQIECBAgAABAgQIECBAgAABAgQIECBAgAABAgQIECBAgAABAgQIECBAgAABAgQIECBAgAABAgQIECBAgAABAgQIECBAgAABAgQIECDQncD/Aa2P5+3i2i+AAAAAAElFTkSuQmCC;" vertex="1" parent="1">
                    <mxGeometry x="680" y="470" width="60" height="60" as="geometry"/>
                </mxCell>
                <mxCell id="16" style="edgeStyle=orthogonalEdgeStyle;rounded=0;orthogonalLoop=1;jettySize=auto;html=1;entryX=0;entryY=0.5;entryDx=0;entryDy=0;exitX=1;exitY=0.5;exitDx=0;exitDy=0;" edge="1" parent="1" source="8" target="12">
                    <mxGeometry relative="1" as="geometry">
                        <mxPoint x="467" y="499.5" as="sourcePoint"/>
                        <mxPoint x="537" y="499.5" as="targetPoint"/>
                    </mxGeometry>
                </mxCell>
                <mxCell id="18" value="Build" style="edgeLabel;html=1;align=center;verticalAlign=middle;resizable=0;points=[];" vertex="1" connectable="0" parent="16">
                    <mxGeometry x="0.1714" y="4" relative="1" as="geometry">
                        <mxPoint x="-8" y="14" as="offset"/>
                    </mxGeometry>
                </mxCell>
                <mxCell id="19" value="Application Server" style="shape=image;verticalLabelPosition=bottom;labelBackgroundColor=default;verticalAlign=top;aspect=fixed;imageAspect=0;image=data:image/png,iVBORw0KGgoAAAANSUhEUgAAAgAAAAIACAYAAAD0eNT6AAABdWlDQ1BrQ0dDb2xvclNwYWNlRGlzcGxheVAzAAAokXWQvUvDUBTFT6tS0DqIDh0cMolD1NIKdnFoKxRFMFQFq1OafgltfCQpUnETVyn4H1jBWXCwiFRwcXAQRAcR3Zw6KbhoeN6XVNoi3sfl/Ticc7lcwBtQGSv2AijplpFMxKS11Lrke4OHnlOqZrKooiwK/v276/PR9d5PiFlNu3YQ2U9cl84ul3aeAlN//V3Vn8maGv3f1EGNGRbgkYmVbYsJ3iUeMWgp4qrgvMvHgtMunzuelWSc+JZY0gpqhrhJLKc79HwHl4plrbWD2N6f1VeXxRzqUcxhEyYYilBRgQQF4X/8044/ji1yV2BQLo8CLMpESRETssTz0KFhEjJxCEHqkLhz634PrfvJbW3vFZhtcM4v2tpCAzidoZPV29p4BBgaAG7qTDVUR+qh9uZywPsJMJgChu8os2HmwiF3e38M6Hvh/GMM8B0CdpXzryPO7RqFn4Er/QcXKWq8UwZBywAAADhlWElmTU0AKgAAAAgAAYdpAAQAAAABAAAAGgAAAAAAAqACAAQAAAABAAACAKADAAQAAAABAAACAAAAAAAoMJe/AAAhkElEQVR4Ae3dv3Idx5UHYF0QDwA+gUCAuRk6M5htZinbjURmm0nOnAl8AptPICpzJjnbjQhlzhabbZWKxFW2GeGcvNjTKsyaxUtaI8709J/5UIW6wHCm+/R3oJrfnRlAn3zigwABAgQIECBAgAABAgQIECBAgAABAgQIECBAgAABAgQIECBAgAABAgQIECBAgAABAgQIECBAgAABAgQIECBAgAABAgQIECBAgAABAgQIECBAgAABAgQIECBAgAABAgQIECBAgAABAgQIECBAgAABAgQIECBAgAABAgQIECBAgAABAgQIECBAgAABAgQIECBAgAABAgQIECBAgAABAgQIECBAgAABAgQIECBAgAABAgQIECBAgAABAgQIdCKw6WQdH1zG8fHxUfzj0Z07dx7c3Nx8Gl/f3Ww26dUHAQIECBD4WSDODz/FF6/i/PDTwcHB9scff7zsnaa7AJBO+HGy/ywa97to6IN4TZ8+CBAgQIDArxVIIeAyQsHFmzdvftjGx68doOb9uwgAcdI/jsT2RTTpLE76ZzWDq40AAQIEmhVIgeDZbrf7aw9hoNkAcHtp/7N4t/+Fk36z/zEpnAABAk0KpKsCUfizFy9efNvkAqLo5gJAOvHHu/0vo/av4vOoVXh1EyBAgEAXAtsIA+ctBoGmAsDJyUk68Z/HpxN/F//dWAQBAgS6EWguCDQRAO7fv38WD2B8EynruJsfFQshQIAAgR4FtvGMwON4RuCi9sVVHQBuL/d/HYjpcr8PAgQIECDQikB6WPBJzQ8LVhsAvOtv5WdcnQQIECDwAYF0NeDzCAGXH/j3opvvFJ39A5One/3xZP9f4pK/e/0fMLKZAAECBKoXOIrz2L/fvXv3k1evXv1QW7XVBYA4+f8pkM5rg1IPAQIECBD4SIGzCAFHEQL+8yOPz3JYNbcA0v3++J3+7/xOf5Y+G5QAAQIECgvE+e0iPtMtgevCpfw8fRUBIJ384zLJ8/h8UAOKGggQIECAQA6BCACX8fmwhhBQPAA4+ef4ETMmAQIECNQqUEsIOCgNlC77e+dfugvmJ0CAAIGlBNI5Lz6/W2q+D81T9CHA2wf+/vVDxdlOgAABAgR6FIgAcFz6wcBiASBO/ukP/Pyxx8ZaEwECBAgQGCHw2wgBf4/fDvjbiH1n36XIMwBx3/9B/A99/mv21RiQAAECBAg0JhB/LCg9FHixdNmLPwMQJ//jGu59LA1tPgIECBAg8D6BeEP8TXog/n3/lnPb4gEgTv7n6d5HzkUZmwABAgQINCRwHCEg3RZf9GPRWwCnp6efxa8/FH/ycVFhkxEgQIAAgRECS98KWPQKQCwu/ZlfHwQIECBAgMA7AulWwDubsn67WACI+xuPXPrP2kuDEyBAgEDbAsfxG3JfLbWExW4B3Lt370oAWKqt5iFAgACBRgWu42r5vSX+VPAiVwC8+2/0x1DZBAgQILC0wFHcCljkKsAiASDe+S/+dOPSHTMfAQIECBCYSeDLmcb5p8NkDwDe/f9Tf/9IgAABAgTeFTiKc+fv39049/fZA0D8z36+mLto4xEgQIAAgZ4F4sp59tsAWR8CjAST/rjBVc9NsjYCBAgQIJBD4PZhwG2OsdOYWa8AxMn/s1yFG5cAAQIECPQsEOfQRznXlzUAROEu/+fsnrEJECBAoFuB+Mu5v8u5uGy3AFz+z9k2YxMgQIDAGgTiNsDdXH8TIOcVgLM1NMcaCRAgQIBALoF4kD7brfRsASCeYDzLBWJcAgQIECCwBoG4DfAg1zpzBoDf5CrauAQIECBAYCUC2Z4DyBYAojHZUstKmm6ZBAgQIEAg27k0SwCIBwCzFexngQABAgQIrEkgPVSfY71ZAkA8tJCl2BwAxiRAgAABApULZLmlfphj0fHQwnGOcWce8zrq3MaY1zOPazgCBAgQaESghQfW4w8C3cvBmSUARKFHOYqdccyn8buV57l+t3LGOg1FgAABAhkFbv9mzaOY4uuM00wdOss5NUsASFcAIlVNXXCu45+8fPnyPNfgxiVAgACBdgTijeA2qj0/OTlJJ9lF/je8v1Ynzqef/tpjxuyf5RmAMRMX2uc63vk/KzS3aQkQIECgUoF0VThKW9Ut4VUFgLgycXmb9ir9EVQWAQIECJQQuL0lvC0xd6k5VxUASiGblwABAgTqF4hL7a4A1N8mFRIgQIAAAQJTBFwBmKLnWAIECBAg0KiAANBo45RNgAABAgSmCAgAU/QcS4AAAQIEGhUQABptnLIJECBAgMAUAQFgip5jCRAgQIBAowICQKONUzYBAgQIEJgiIABM0XMsAQIECBBoVEAAaLRxyiZAgAABAlMEBIApeo4lQIAAAQKNCggAjTZO2QQIECBAYIqAADBFz7EECBAgQKBRAQGg0cYpmwABAgQITBEQAKboOZYAAQIECDQqIAA02jhlEyBAgACBKQICwBQ9xxIgQIAAgUYFBIBGG6dsAgQIECAwRUAAmKLnWAIECBAg0KiAANBo45RNgAABAgSmCAgAU/QcS4AAAQIEGhUQABptnLIJECBAgMAUAQFgip5jCRAgQIBAowICQKONUzYBAgQIEJgiIABM0XMsAQIECBBoVEAAaLRxyiZAgAABAlMEBIApeo4lQIAAAQKNChw2WreyCRAgUFTg/v37Z0ULaGzy169fb9NHY2V3Xa4A0HV7LY4AgVwCu93uea6xexz3zp07j2Ndz3pcW6trcgug1c6pmwABAgQITBAQACbgOZQAAQIECLQqIAC02jl1EyBAgACBCQICwAQ8hxIgQIAAgVYFBIBWO6duAgQIECAwQUAAmIDnUAIECBAg0KqAANBq59RNgAABAgQmCAgAE/AcSoAAAQIEWhUQAFrtnLoJECBAgMAEAQFgAp5DCRAgQIBAqwICQKudUzcBAgQIEJggIABMwHMoAQIECBBoVUAAaLVz6iZAgAABAhMEBIAJeA4lQIAAAQKtCggArXZO3QQIECBAYIKAADABz6EECBAgQKBVAQGg1c6pmwABAgQITBAQACbgOZQAAQIECLQqIAC02jl1EyBAgACBCQICwAQ8hxIgQIAAgVYFBIBWO6duAgQIECAwQUAAmIDnUAIECBAg0KqAANBq59RNgAABAgQmCAgAE/AcSoAAAQIEWhUQAFrtnLoJECBAgMAEAQFgAp5DCRAgQIBAqwICQKudUzcBAgQIEJggIABMwHMoAQIECBBoVUAAaLVz6iZAgAABAhMEBIAJeA4lQIAAAQKtCggArXZO3QQIECBAYIKAADABz6EECBAgQKBVAQGg1c6pmwABAgQITBAQACbgOZQAAQIECLQqIAC02jl1EyBAgACBCQICwAQ8hxIgQIAAgVYFBIBWO6duAgQIECAwQeBwwrEOJUCAwGoFdrvdvdUu/uMWfv1xhzkql4AAkEvWuAQIdC2wjY+uF2hx3Qu4BdB9iy2QAAECBAjsCwgA+ya2ECBAgACB7gUEgO5bbIEECBAgQGBfQADYN7GFAAECBAh0LyAAdN9iCyRAgAABAvsCAsC+iS0ECBAgQKB7AQGg+xZbIAECBAgQ2BcQAPZNbCFAgAABAt0LCADdt9gCCRAgQIDAvoAAsG9iCwECBAgQ6F5AAOi+xRZIgAABAgT2BQSAfRNbCBAgQIBA9wICQPcttkACBAgQILAvIADsm9hCgAABAgS6FxAAum+xBRIgQIAAgX0BAWDfxBYCBAgQINC9gADQfYstkAABAgQI7AsIAPsmthAgQIAAge4FBIDuW2yBBAgQIEBgX0AA2DexhQABAgQIdC8gAHTfYgskQIAAAQL7AgLAvoktBAgQIECgewEBoPsWWyABAgQIENgXEAD2TWwhQIAAAQLdCwgA3bfYAgkQIECAwL6AALBvYgsBAgQIEOheQADovsUWSIAAAQIE9gUEgH0TWwgQIECAQPcCAkD3LbZAAgQIECCwLyAA7JvYQoAAAQIEuhcQALpvsQUSIECAAIF9AQFg38QWAgQIECDQvcBh9yt8a4GbzebB6enpN29t8iUBAgQIEPhZYLfbHcd5YjUaqwoA0dWjm5ubR6vproUSIECAwGiBNZ38E4pbAKN/NOxIgAABAgT6ERAA+umllRAgQIAAgdECAsBoKjsSIECAAIF+BASAfnppJQQIECBAYLSAADCayo4ECBAgQKAfAQGgn15aCQECBAgQGC0gAIymsiMBAgQIEOhHQADop5dWQoAAAQIERgsIAKOp7EiAAAECBPoREAD66aWVECBAgACB0QICwGgqOxIgQIAAgX4EBIB+emklBAgQIEBgtIAAMJrKjgQIECBAoB8BAaCfXloJAQIECBAYLSAAjKayIwECBAgQ6EdAAOinl1ZCgAABAgRGCwgAo6nsSIAAAQIE+hEQAPrppZUQIECAAIHRAgLAaCo7EiBAgACBfgQEgH56aSUECBAgQGC0gAAwmsqOBAgQIECgHwEBoJ9eWgkBAgQIEBgtIACMprIjAQIECBDoR0AA6KeXVkKAAAECBEYLCACjqexIgAABAgT6ERAA+umllRAgQIAAgdECAsBoKjsSIECAAIF+BASAfnppJQQIECBAYLSAADCayo4ECBAgQKAfAQGgn15aCQECBAgQGC0gAIymsiMBAgQIEOhHQADop5dWQoAAAQIERgsIAKOp7EiAAAECBPoREAD66aWVECBAgACB0QICwGgqOxIgQIAAgX4EBIB+emklBAgQIEBgtMDh6D372PH65ubmso+lWAUBAgQIzCmw2WwexHhHc45Z81irCgDp5H91dfWw5oaojQABAgTKCJyenj6P88RZmdmXn9UtgOXNzUiAAAECBIoLCADFW6AAAgQIECCwvIAAsLy5GQkQIECAQHEBAaB4CxRAgAABAgSWFxAAljc3IwECBAgQKC4gABRvgQIIECBAgMDyAgLA8uZmJECAAAECxQUEgOItUAABAgQIEFheQABY3tyMBAgQIECguIAAULwFCiBAgAABAssLCADLm5uRAAECBAgUFxAAirdAAQQIECBAYHkBAWB5czMSIECAAIHiAgJA8RYogAABAgQILC8gACxvbkYCBAgQIFBcQAAo3gIFECBAgACB5QUEgOXNzUiAAAECBIoLCADFW6AAAgQIECCwvIAAsLy5GQkQIECAQHEBAaB4CxRAgAABAgSWFxAAljc3IwECBAgQKC4gABRvgQIIECBAgMDyAgLA8uZmJECAAAECxQUEgOItUAABAgQIEFheQABY3tyMBAgQIECguIAAULwFCiBAgAABAssLCADLm5uRAAECBAgUFxAAirdAAQQIECBAYHkBAWB5czMSIECAAIHiAgJA8RYogAABAgQILC8gACxvbkYCBAgQIFBcQAAo3gIFECBAgACB5QUOl5/SjAQIEGhf4P79+2ftr2K5Fbx+/XqbPpab0Uy/JCAA/JKQfydAgMB7BHa73fP3bLbpAwJ37tx5HP/07AP/bHMBAbcACqCbkgABAgQIlBYQAEp3wPwECBAgQKCAgABQAN2UBAgQIECgtIAAULoD5idAgAABAgUEBIAC6KYkQIAAAQKlBQSA0h0wPwECBAgQKCAgABRANyUBAgQIECgtIACU7oD5CRAgQIBAAQEBoAC6KQkQIECAQGkBAaB0B8xPgAABAgQKCAgABdBNSYAAAQIESgsIAKU7YH4CBAgQIFBAQAAogG5KAgQIECBQWkAAKN0B8xMgQIAAgQICAkABdFMSIECAAIHSAgJA6Q6YnwABAgQIFBAQAAqgm5IAAQIECJQWEABKd8D8BAgQIECggIAAUADdlAQIECBAoLSAAFC6A+YnQIAAAQIFBASAAuimJECAAAECpQUEgNIdMD8BAgQIECggIAAUQDclAQIECBAoLSAAlO6A+QkQIECAQAEBAaAAuikJECBAgEBpAQGgdAfMT4AAAQIECggIAAXQTUmAAAECBEoLCAClO2B+AgQIECBQQEAAKIBuSgIECBAgUFpAACjdAfMTIECAAIECAgJAAXRTEiBAgACB0gICQOkOmJ8AAQIECBQQEAAKoJuSAAECBAiUFhAASnfA/AQIECBAoICAAFAA3ZQECBAgQKC0gABQugPmJ0CAAAECBQQEgALopiRAgAABAqUFDksXYH4CBAi0KLDb7R62WHfBmi8Lzm3q9wgIAO9BsYkAAQK/JLDdbi9+aR//TqBmAbcAau6O2ggQIECAQCYBASATrGEJECBAgEDNAgJAzd1RGwECBAgQyCQgAGSCNSwBAgQIEKhZQACouTtqI0CAAAECmQQEgEywhiVAgAABAjULCAA1d0dtBAgQIEAgk4AAkAnWsAQIECBAoGYBAaDm7qiNAAECBAhkEhAAMsEalgABAgQI1CwgANTcHbURIECAAIFMAgJAJljDEiBAgACBmgUEgJq7ozYCBAgQIJBJQADIBGtYAgQIECBQs4AAUHN31EaAAAECBDIJCACZYA1LgAABAgRqFhAAau6O2ggQIECAQCYBASATrGEJECBAgEDNAgJAzd1RGwECBAgQyCQgAGSCNSwBAgQIEKhZQACouTtqI0CAAAECmQQEgEywhiVAgAABAjULCAA1d0dtBAgQIEAgk4AAkAnWsAQIECBAoGYBAaDm7qiNAAECBAhkEhAAMsEalgABAgQI1CwgANTcHbURIECAAIFMAgJAJljDEiBAgACBmgUEgJq7ozYCBAgQIJBJQADIBGtYAgQIECBQs4AAUHN31EaAAAECBDIJCACZYA1LgAABAgRqFjisubi5a9tsNg9OT0+/mXtc4xEgQIBA+wK73e44zhPtL2TkClYVAMLk6Obm5tFIG7sRIECAwIoE1nTyT211C2BFP9yWSoAAAQIEBgEBYJDwSoAAAQIEViQgAKyo2ZZKgAABAgQGAQFgkPBKgAABAgRWJCAArKjZlkqAAAECBAYBAWCQ8EqAAAECBFYkIACsqNmWSoAAAQIEBgEBYJDwSoAAAQIEViQgAKyo2ZZKgAABAgQGAQFgkPBKgAABAgRWJCAArKjZlkqAAAECBAYBAWCQ8EqAAAECBFYkIACsqNmWSoAAAQIEBgEBYJDwSoAAAQIEViQgAKyo2ZZKgAABAgQGAQFgkPBKgAABAgRWJCAArKjZlkqAAAECBAYBAWCQ8EqAAAECBFYkIACsqNmWSoAAAQIEBgEBYJDwSoAAAQIEViQgAKyo2ZZKgAABAgQGAQFgkPBKgAABAgRWJCAArKjZlkqAAAECBAYBAWCQ8EqAAAECBFYkIACsqNmWSoAAAQIEBgEBYJDwSoAAAQIEViQgAKyo2ZZKgAABAgQGAQFgkPBKgAABAgRWJCAArKjZlkqAAAECBAYBAWCQ8EqAAAECBFYkIACsqNmWSoAAAQIEBgEBYJDwSoAAAQIEViQgAKyo2ZZKgAABAgQGAQFgkPBKgAABAgRWJCAArKjZlkqAAAECBAYBAWCQ8EqAAAECBFYkcLiitaalXt/c3FyvbM2WS4AAAQIjBDabzfGI3brZZVUBIE7+l1dXVw+76Z6FECBAgMBsAqenp8/jPHE224CVD+QWQOUNUh4BAgQIEMghIADkUDUmAQIECBCoXEAAqLxByiNAgAABAjkEBIAcqsYkQIAAAQKVCwgAlTdIeQQIECBAIIeAAJBD1ZgECBAgQKByAQGg8gYpjwABAgQI5BAQAHKoGpMAAQIECFQuIABU3iDlESBAgACBHAICQA5VYxIgQIAAgcoFBIDKG6Q8AgQIECCQQ0AAyKFqTAIECBAgULmAAFB5g5RHgAABAgRyCAgAOVSNSYAAAQIEKhcQACpvkPIIECBAgEAOAQEgh6oxCRAgQIBA5QICQOUNUh4BAgQIEMghIADkUDUmAQIECBCoXEAAqLxByiNAgAABAjkEBIAcqsYkQIAAAQKVCwgAlTdIeQQIECBAIIeAAJBD1ZgECBAgQKByAQGg8gYpjwABAgQI5BAQAHKoGpMAAQIECFQuIABU3iDlESBAgACBHAICQA5VYxIgQIAAgcoFBIDKG6Q8AgQIECCQQ0AAyKFqTAIECBAgULmAAFB5g5RHgAABAgRyCAgAOVSNSYAAAQIEKhcQACpvkPIIECBAgEAOAQEgh6oxCRAgQIBA5QKHldenPAIECFQpcBwfVRZWb1HX2+32ut7y1leZALC+nlsxAQIzCBwcHFzNMMxqhthsNo9jsc9Ws+AGFuoWQANNUiIBAgQIEJhbQACYW9R4BAgQIECgAQEBoIEmKZEAAQIECMwtIADMLWo8AgQIECDQgIAA0ECTlEiAAAECBOYWEADmFjUeAQIECBBoQEAAaKBJSiRAgAABAnMLCABzixqPAAECBAg0ICAANNAkJRIgQIAAgbkFBIC5RY1HgAABAgQaEBAAGmiSEgkQIECAwNwCAsDcosYjQIAAAQINCAgADTRJiQQIECBAYG4BAWBuUeMRIECAAIEGBASABpqkRAIECBAgMLeAADC3qPEIECBAgEADAgJAA01SIgECBAgQmFtAAJhb1HgECBAgQKABAQGggSYpkQABAgQIzC0gAMwtajwCBAgQINCAgADQQJOUSIAAAQIE5hYQAOYWNR4BAgQIEGhAQABooElKJECAAAECcwsIAHOLGo8AAQIECDQgIAA00CQlEiBAgACBuQUEgLlFjUeAAAECBBoQEAAaaJISCRAgQIDA3AICwNyixiNAgAABAg0ICAANNEmJBAgQIEBgbgEBYG5R4xEgQIAAgQYEBIAGmqREAgQIECAwt4AAMLeo8QgQIECAQAMCAkADTVIiAQIECBCYW0AAmFvUeAQIECBAoAEBAaCBJimRAAECBAjMLSAAzC1qPAIECBAg0ICAANBAk5RIgAABAgTmFjice0DjESBAYA0Cu93u4RrWOeMaL2ccy1AzCAgAMyAaggCB9Qlst9uL9a3ainsScAugp25aCwECBAgQGCkgAIyEshsBAgQIEOhJQADoqZvWQoAAAQIERgoIACOh7EaAAAECBHoSEAB66qa1ECBAgACBkQICwEgouxEgQIAAgZ4EBICeumktBAgQIEBgpIAAMBLKbgQIECBAoCcBAaCnbloLAQIECBAYKSAAjISyGwECBAgQ6ElAAOipm9ZCgAABAgRGCggAI6HsRoAAAQIEehIQAHrqprUQIECAAIGRAgLASCi7ESBAgACBngQEgJ66aS0ECBAgQGCkgAAwEspuBAgQIECgJwEBoKduWgsBAgQIEBgpIACMhLIbAQIECBDoSUAA6Kmb1kKAAAECBEYKCAAjoexGgAABAgR6EhAAeuqmtRAgQIAAgZECAsBIKLsRIECAAIGeBASAnrppLQQIECBAYKSAADASym4ECBAgQKAnAQGgp25aCwECBAgQGCkgAIyEshsBAgQIEOhJYFUBYLPZHPXUPGshQIAAAQIfK7CqABBIx/EhBHzsT4vjCBAg0KlAOjnc3Nycdbq89y5rbQHg6ODg4Ov3SthIgAABAqsViHPDF2tb/GGOBcel9m2OcWca86uTk5Pr3W737TY+ZhrTMAQIECDQoEC6Knz7xvCrWsuPKxM/5agtSwCIQq9zFDvjmOfR8PPT09OLGcc0FAECBAg0JBAn1nRL+Dg+a781nOWcmiUApCsAAVv9j8Ha7vdU3xAFEiBAgMCeQFyxvtrbOMOGLM8AvHnz5nKG2gxBgAABAgQIfPJJllsAWQJAdCvL5Qo/BQQIECBAYG0C8bhaljfVWQJAFJsCQJaC19Z46yVAgACBVQtkO5dmCQCpVXF//b9X3TKLJ0CAAAEC0wWaDAAX09dtBAIECBAgsF6BeKj+Itfqs10BiIK/z1W0cQkQIECAwBoE4qH6H3KtM1sASM8BxG2Ai1yFG5cAAQIECHQucBnn0m2uNWYLAKnguHSRLbnkAjEuAQIECBCoRODbnHVkDQDxxwue5Sze2AQIECBAoFeBOIdmvZWeNQCkSxduA/T6o2ldBAgQIJBLIJ070zk01/hp3KwBIE0Qi8h6CSPN4YMAAQIECPQkEP+/mme515M9AMQC0iWM69wLMT4BAgQIEOhEYPvixYvsb56zB4C4gpFO/k87aYplECBAgACBrALxAP151gluB98sMcnt/285/d+MjpaYzxwECBAgQKBRge3Lly/vLVF79isAaRG3VwGeLLEgcxAgQIAAgVYFlnr3n3wWuQIwNOLevXtXsbjj4XuvBAgQIECAwP8LLPbuP824yBWAYWnxGwGPh6+9EiBAgAABAv8QiN/7X/QceecfU+f/6vr6ens3PmKm3+afzQwECBAgQKAZgWdXV1eLPjC/6BWA1IZIOOdxJWDbTEsUSoAAAQIE8gps49z4JO8U+6MvHgDSA4FuBew3whYCBAgQWKdAnPw/j3PjdunVL3oLYFjc7a2Av8f3/zJs80qAAAECBFYo8CQu/f+lxLqLBIC00FevXv3N8wAlWm5OAgQIEKhE4Gn8zv8fS9WyKTXxMG/8auDz+NXAs+F7rwQIECBAoHeBuBV+Ee/8H5Zc5+LPALy72ED4PD4v393uewIECBAg0KNAOuelc1/ptRW/ApAA0p8KjqsA6UrAg9Ig5idAgAABArkEbk/+D2//Qm6uaUaNW/wKQKoyQQTKw/i8GFW1nQgQIECAQGMC6RyXznU1nPwTXRVXAN7u4cnJyZ/j+y/f3uZrAgQIECDQuEB64O+rmtZQ7LcAPoQQvx3wH/HbASmYnH1oH9sJECBAgEBDAn+Ik/95bfVWdwVgAIrnAh7EMwHfxefxsM0rAQIECBBoSCD9hb/Hccn/osaaq7sCMCDFHwv636Ojo7/G93c9HDioeCVAgACBRgSexsn/3+Lk/z+11lvtFYC3weJqwGcRAv7kasDbKr4mQIAAgQoFqn7X/7ZXEwFgKDiCwKMIAV8LAoOIVwIECBCoROA66ngS9/rTg+xNfDQVAAZRQWCQ8EqAAAEChQXSiT9d7v9zLb/eN9ajyQAwLO42CHwRVwTOhm1eCRAgQIBAboHb3+l/Gif973PPlWv8pgPAgBJB4Pjg4OD30ZB0i+DBsN0rAQIECBCYSyCd9OMc80O8238WJ/7tXOOWGqeLAPA2XgoD8f3Z7VWB3wgEb+v4mgABAgTGCsQJ//L2hH8Zx3wf5/x0ub+bj+4CwPs6E5kgXRVIVwk+jde78ZlefRAgQIAAgUHgp/jiVby7T6/phH/d2wl/WKhXAgQIECBAgAABAgQIECBAgAABAgQIECBAgAABAgQIECBAgAABAgQIECBAgAABAgQIECBAgAABAgQIECBAgAABAgQIECBAgAABAgQIECBAgAABAgQIECBAgAABAgQIECBAgAABAgQIECBAgAABAgQIECBAgAABAgQIECBAgAABAgQIECBAgAABAgQIECBAgAABAgQIECBAgAABAgQIECBAgAABAgQIECBAgAABAgQIECBAgAABAgQIECDQncD/Aa2P5+3i2i+AAAAAAElFTkSuQmCC;" vertex="1" parent="1">
                    <mxGeometry x="680" y="220" width="70" height="70" as="geometry"/>
                </mxCell>
                <mxCell id="20" style="edgeStyle=orthogonalEdgeStyle;rounded=0;orthogonalLoop=1;jettySize=auto;html=1;exitX=0.5;exitY=0;exitDx=0;exitDy=0;" edge="1" parent="1" source="13">
                    <mxGeometry relative="1" as="geometry">
                        <mxPoint x="540" y="390" as="sourcePoint"/>
                        <mxPoint x="710" y="280" as="targetPoint"/>
                        <Array as="points">
                            <mxPoint x="710" y="290"/>
                        </Array>
                    </mxGeometry>
                </mxCell>
                <mxCell id="21" value="Deploy" style="edgeLabel;html=1;align=center;verticalAlign=middle;resizable=0;points=[];" vertex="1" connectable="0" parent="20">
                    <mxGeometry x="-0.211" y="1" relative="1" as="geometry">
                        <mxPoint x="9" y="11" as="offset"/>
                    </mxGeometry>
                </mxCell>
                <mxCell id="22" value="User" style="outlineConnect=0;fontColor=#232F3E;gradientColor=none;fillColor=#232F3E;strokeColor=none;dashed=0;verticalLabelPosition=bottom;verticalAlign=top;align=center;html=1;fontSize=12;fontStyle=0;aspect=fixed;pointerEvents=1;shape=mxgraph.aws4.user;labelBackgroundColor=none;" vertex="1" parent="1">
                    <mxGeometry x="170" y="210" width="80" height="80" as="geometry"/>
                </mxCell>
                <mxCell id="23" value="" style="shape=image;verticalLabelPosition=bottom;labelBackgroundColor=default;verticalAlign=top;aspect=fixed;imageAspect=0;image=data:image/png,iVBORw0KGgoAAAANSUhEUgAAAIIAAACOCAYAAAD9wdCGAAAMP2lDQ1BJQ0MgUHJvZmlsZQAASImVVwdYU8kWnluSkEBCCSAgJfQmiNQAUkJoAaQXwUZIAoQSYkJQsaOLCq5dLGBDV0UUOyB2xM6i2LAvFlSUdbFgV96kgK77yvfO9829//3nzH/OnDu3DACaJ7hicR6qBUC+qFASHxbEGJ2axiA9BQhAAQ1oA5zLk4pZsbFRANrA+e/27gb0hnbVSa71z/7/atp8gZQHABILcQZfysuH+AAAeBVPLCkEgCjnLScViuUYNqArgQlCPF+Os5S4So4zlHiPwicxng1xCwBqGlyuJAsA2mXIM4p4WVCD1guxi4gvFAGgyYDYPz+/gA9xOsR20EcMsVyfmfGDTtbfNDMGNbncrEGsnIvC1IKFUnEed8r/WY7/bfl5soEYNrBpZEvC4+VzhnW7mVsQKccaEPeIMqJjINaB+IOQr/CHGKVky8KTlP6oMU/KhjUD+hC78LnBkRAbQxwqyouOUvEZmcJQDsRwhaCThYWcRIgNIJ4vkIYkqHw2SgriVbHQ+kwJm6Xiz3ElirjyWPdluUkslf7rbAFHpY/RirMTUyCmQGxVJEyOhpgGsbM0NyFS5TOyOJsdPeAjkcXL87eCOF4gCgtS6mNFmZLQeJV/Wb50YL7YxmwhJ1qF9xVmJ4Yr64O18LiK/OFcsMsCEStpQEcgHR01MBe+IDhEOXfsmUCUlKDS+SAuDIpXjsUp4rxYlT9uIcgLk/MWELtLixJUY/HkQrgglfp4prgwNlGZJ16cw42IVeaDLwFRgA2CAQPIYMsABSAHCNt6GnrglbInFHCBBGQBAXBSMQMjUhQ9InhMAMXgT4gEQDo4LkjRKwBFkP86yCqPTiBT0VukGJELnkCcDyJBHryWKUaJBqMlg8eQEf4jOhc2Hsw3DzZ5/7/nB9jvDAsyUSpGNhCRoTngSQwhBhPDiaFEe9wI98d98Sh4DITNFWfi3gPz+O5PeEJoJzwkXCd0Em5NEJZIfspyFOiE+qGqWmT8WAvcBmp64EG4H1SHyrg+bgSccHcYh4UHwMgekGWr8pZXhfGT9t9m8MPdUPmRXcgoeQg5kGz380iaA81jUEVe6x/ro8w1Y7De7MGen+Ozf6g+H54jf/bE5mP7sbPYSew8dgRrAAzsONaItWJH5XhwdT1WrK6BaPGKfHKhjvAf8QburLySUpdal26XL8q+QsFk+TsasAvEUyTCrOxCBgt+EQQMjojnPIzh6uLqBoD8+6J8fb2JU3w3EP3W79ycPwDwO97f33/4OxdxHIC9XvDxP/Sds2PCT4c6AOcO8WSSIiWHyw8E+JbQhE+aITAFlsAOzscVeAJfEAhCQASIAYkgFYyH2WfDdS4Bk8A0MBuUgnKwBKwEa8EGsBlsB7vAPtAAjoCT4Ay4CC6D6+AOXD1d4AXoBe/AZwRBSAgVoSOGiBlijTgirggT8UdCkCgkHklF0pEsRITIkGnIHKQcWYasRTYhNche5BByEjmPtCO3kAdIN/Ia+YRiqAaqi5qgNuhwlImy0Eg0ER2HZqET0WJ0LroIXY1WozvRevQkehG9jnaiL9A+DGDqmD5mjjlhTIyNxWBpWCYmwWZgZVgFVo3VYU3wPl/FOrEe7CNOxOk4A3eCKzgcT8J5+ER8Br4QX4tvx+vxFvwq/gDvxb8RqARjgiPBh8AhjCZkESYRSgkVhK2Eg4TT8FnqIrwjEon6RFuiF3wWU4k5xKnEhcR1xN3EE8R24iNiH4lEMiQ5kvxIMSQuqZBUSlpD2kk6TrpC6iJ9UFNXM1NzVQtVS1MTqZWoVajtUDumdkXtqdpnshbZmuxDjiHzyVPIi8lbyE3kS+Qu8meKNsWW4kdJpORQZlNWU+oopyl3KW/U1dUt1L3V49SF6rPUV6vvUT+n/kD9o4aOhoMGW2OshkxjkcY2jRMatzTeUKlUG2ogNY1aSF1EraGeot6nfqDRac40Do1Pm0mrpNXTrtBeapI1rTVZmuM1izUrNPdrXtLs0SJr2WixtbhaM7QqtQ5pdWj1adO1R2jHaOdrL9TeoX1e+5kOScdGJ0SHrzNXZ7POKZ1HdIxuSWfTefQ59C300/QuXaKurS5HN0e3XHeXbptur56Onrtest5kvUq9o3qd+pi+jT5HP09/sf4+/Rv6n4aYDGENEQxZMKRuyJUh7w2GGgQaCAzKDHYbXDf4ZMgwDDHMNVxq2GB4zwg3cjCKM5pktN7otFHPUN2hvkN5Q8uG7ht62xg1djCON55qvNm41bjPxNQkzERsssbklEmPqb5poGmO6QrTY6bdZnQzfzOh2Qqz42bPGXoMFiOPsZrRwug1NzYPN5eZbzJvM/9sYWuRZFFisdviniXFkmmZabnCstmy18rMapTVNKtaq9vWZGumdbb1Kuuz1u9tbG1SbObZNNg8szWw5dgW29ba3rWj2gXYTbSrtrtmT7Rn2ufar7O/7IA6eDhkO1Q6XHJEHT0dhY7rHNuHEYZ5DxMNqx7W4aThxHIqcqp1euCs7xzlXOLc4PxyuNXwtOFLh58d/s3FwyXPZYvLnRE6IyJGlIxoGvHa1cGV51rpes2N6hbqNtOt0e2Vu6O7wH29+00Puscoj3kezR5fPb08JZ51nt1eVl7pXlVeHUxdZixzIfOcN8E7yHum9xHvjz6ePoU++3z+8nXyzfXd4ftspO1IwcgtIx/5Wfhx/Tb5dfoz/NP9N/p3BpgHcAOqAx4GWgbyA7cGPmXZs3JYO1kvg1yCJEEHg96zfdjT2SeCseCw4LLgthCdkKSQtSH3Qy1Cs0JrQ3vDPMKmhp0IJ4RHhi8N7+CYcHicGk5vhFfE9IiWSI3IhMi1kQ+jHKIkUU2j0FERo5aPuhttHS2KbogBMZyY5TH3Ym1jJ8YejiPGxcZVxj2JHxE/Lf5sAj1hQsKOhHeJQYmLE+8k2SXJkpqTNZPHJtckv08JTlmW0jl6+Ojpoy+mGqUKUxvTSGnJaVvT+saEjFk5pmusx9jSsTfG2Y6bPO78eKPxeeOPTtCcwJ2wP52QnpK+I/0LN4Zbze3L4GRUZfTy2LxVvBf8QP4KfrfAT7BM8DTTL3NZ5rMsv6zlWd3ZAdkV2T1CtnCt8FVOeM6GnPe5MbnbcvvzUvJ256vlp+cfEumIckUtBaYFkwvaxY7iUnHnRJ+JKyf2SiIlW6WIdJy0sVAX/si3yuxkv8geFPkXVRZ9mJQ8af9k7cmiya1THKYsmPK0OLT4t6n4VN7U5mnm02ZPezCdNX3TDGRGxozmmZYz587smhU2a/tsyuzc2b+XuJQsK3k7J2VO01yTubPmPvol7JfaUlqppLRjnu+8DfPx+cL5bQvcFqxZ8K2MX3ah3KW8ovzLQt7CC7+O+HX1r/2LMhe1LfZcvH4JcYloyY2lAUu3L9NeVrzs0fJRy+tXMFaUrXi7csLK8xXuFRtWUVbJVnWujlrduMZqzZI1X9Zmr71eGVS5u8q4akHV+3X8dVfWB66v22CyoXzDp43CjTc3hW2qr7aprthM3Fy0+cmW5C1nf2P+VrPVaGv51q/bRNs6t8dvb6nxqqnZYbxjcS1aK6vt3jl25+Vdwbsa65zqNu3W312+B+yR7Xm+N33vjX2R+5r3M/fXHbA+UHWQfrCsHqmfUt/bkN3Q2Zja2H4o4lBzk2/TwcPOh7cdMT9SeVTv6OJjlGNzj/UfLz7ed0J8oudk1slHzROa75wafepaS1xL2+nI0+fOhJ45dZZ19vg5v3NHzvucP3SBeaHhoufF+laP1oO/e/x+sM2zrf6S16XGy96Xm9pHth+7EnDl5NXgq2euca5dvB59vf1G0o2bHWM7Om/ybz67lXfr1e2i25/vzLpLuFt2T+texX3j+9V/2P+xu9Oz8+iD4AetDxMe3nnEe/TisfTxl665T6hPKp6aPa155vrsSHdo9+XnY553vRC/+NxT+qf2n1Uv7V4e+Cvwr9be0b1drySv+l8vfGP4Zttb97fNfbF999/lv/v8vuyD4YftH5kfz35K+fT086QvpC+rv9p/bfoW+e1uf35/v5gr4Sp+BTDY0MxMAF5vA4CaCgAd7s8oY5T7P4Uhyj2rAoH/hJV7RIV5AlAH/9/jeuDfTQcAe7bA7RfU1xwLQCwVgERvgLq5DbaBvZpiXyk3ItwHbAz5mpGfAf6NKfecP+T98xnIVd3Bz+d/AcINfCX3nyiyAAAAimVYSWZNTQAqAAAACAAEARoABQAAAAEAAAA+ARsABQAAAAEAAABGASgAAwAAAAEAAgAAh2kABAAAAAEAAABOAAAAAAAAAJAAAAABAAAAkAAAAAEAA5KGAAcAAAASAAAAeKACAAQAAAABAAAAgqADAAQAAAABAAAAjgAAAABBU0NJSQAAAFNjcmVlbnNob3RthdrEAAAACXBIWXMAABYlAAAWJQFJUiTwAAAB1mlUWHRYTUw6Y29tLmFkb2JlLnhtcAAAAAAAPHg6eG1wbWV0YSB4bWxuczp4PSJhZG9iZTpuczptZXRhLyIgeDp4bXB0az0iWE1QIENvcmUgNi4wLjAiPgogICA8cmRmOlJERiB4bWxuczpyZGY9Imh0dHA6Ly93d3cudzMub3JnLzE5OTkvMDIvMjItcmRmLXN5bnRheC1ucyMiPgogICAgICA8cmRmOkRlc2NyaXB0aW9uIHJkZjphYm91dD0iIgogICAgICAgICAgICB4bWxuczpleGlmPSJodHRwOi8vbnMuYWRvYmUuY29tL2V4aWYvMS4wLyI+CiAgICAgICAgIDxleGlmOlBpeGVsWURpbWVuc2lvbj4xNDI8L2V4aWY6UGl4ZWxZRGltZW5zaW9uPgogICAgICAgICA8ZXhpZjpQaXhlbFhEaW1lbnNpb24+MTMwPC9leGlmOlBpeGVsWERpbWVuc2lvbj4KICAgICAgICAgPGV4aWY6VXNlckNvbW1lbnQ+U2NyZWVuc2hvdDwvZXhpZjpVc2VyQ29tbWVudD4KICAgICAgPC9yZGY6RGVzY3JpcHRpb24+CiAgIDwvcmRmOlJERj4KPC94OnhtcG1ldGE+CkO0N7MAAAAcaURPVAAAAAIAAAAAAAAARwAAACgAAABHAAAARwAABhUtfgdQAAAF4UlEQVR4AeycW0icRxSAj3ebB8UXQVC3sRgtjSauJfoo6sZon1JCo5BC6iXZTUNT05dEibUVq9FC7IsPSSCNovbFa2p9iCldSWJAKqHQxcuTF1SqTz54178zY/8zs66hLbTuZc7A7p49O/PvnHO+Of/8/85skMEKUNHeA0EEgvYMCAcQCMQBgUAMSA9QRpC+0FoiELQOvzSeQJC+0FoiELQOvzSeQJC+0FoiELQOvzSeQJC+0FoiELQOvzSeQJC+0FoiELQOvzSeQJC+0FoiELQOvzSeQJC+0FoiELQOvzSeQJC+0FoiELQOvzSeQJC+0FoiELQOvzSeQJC+0FoiELQOvzT+SEGoq/saRkac8ttJEh54+vSZ1z1xpCBcu+aAwcEfvW60r3VgZmbO610iELweAgACwQeC4Atd0B6E4eGfITk52RdicaR9sNnyYGpqCr+TQCAQBAwEAoFAIHAP0KlBcECTRQIhwEEYHBzct/DA88OHD2B8/FfU3rnzJcTFxeH7QBPCw8PAZjvrYZY2k0WLJcHDeB0VMTEx8Pr1bx6mEwgeLglsBYFAGUEQTiAoIOTn26C8vCKwh75iXUvLPXj1apRA4B5Q5wiXLn0M9fXfKK4KbFH9YY0ygpIRCASaLIqhTyAQCG8Eoa+vFyYnJ/EcYbc7IDo6GiYmJqC/vw/1OTk5kJWVje/9QfDXUwPwP9z8r0tiYrxhPqqqbnsc/urVCvyc15udnRV1Bgb63fStra0ebX1d4XDY0YZTp9IO7W5+fi7W4fb7QvlfFqb83WTRbr8CQ0NDOMCfP38JCQkJ8OTJAFy//inqb92qAofDge/9QVAzwrFjb0F8vOfNtZmZGdjc3ERzAvbXRwJhfzleZGQkbGxsYMDfJGgLgsvlguXlP9Av2dnZEBERyXTL4HL9jvqkpHdEpkCFHwhqRiAQ6PJRIBsVFQWNjU0e+NbVfQWLi4uo1zYjoAcCUFAzAt1QoowgECcQFBDS09MhLy8/AMf+4SaNj4+D0/kLgcA9oF41CI9o9GS1ZuLiG8oISkbQiAFhKoGgRJwywv5yPMoISka4cOEjqK6uVjAJbJHdUmd3TX8SRhIICgj06yP9+ihGBYFAIBAItIpZ/uJGGYEyAmUEygiUEfgooKsGumoQ2ZBAIBAIBO4B9c4iTRZpsihGBYFAIBAIdNXwz68atra2+JJ6AU1oaCiEhIQIeW9vD7a3tyEoKAjCw8OFjj+pq3+Dg4OB1zNLRESEKWI93pYfg5ednR3Y3d0V8sG2YWFhwHW88Dq8Lu8L7xMvvI+8r2ZRv8vU8Vd/XaHklX0N6jr+4pJiI9GSKB6lZaX40d2mu0KXkppisOAL/djYGNY9nnTcaGtrw/f8GGwdoKi3sLCA+o7ODjym7awN9S3ftRiZ72fi+6bmJqxXWloq9IVFhahrb2/HumeyzqD+oOCv+xq8DsLjtsfoYDXoRR8Uof7FyxfC3w2NDai7WHzRWFtbM06knECdGfSuH7pQZ7fbRdv5+XnUcWimp6eN22zzjQnhucJzoh4b9Ubqu6lCb3nbYrCV1UJ/+ZPLWLempkboDnsiEBSvmLuc+OthO52UqsbS0pLBHW4GxOl0GisrK266hoYG0UQd0Y++fyR0FVfYrqm/MkpZeZnQsU0xqEtLTzNYqnfLHrl5uaLeyMgI1uPH4H3h0JnH4689vT0G25vgBtzo6Khof9gTgaB45d+AwJud//A8Or+2tlY4Xw0GT9HqiObgmKeB7p5ubMtH8vr6usGDr7Zn6wgNdUQ3f9ssesvmIG51O7s6DQ6d2raystIYfjaMutMZpwVYirluor+C4JUtb+rkisv3H9xn/6FQL9QWiwWsGVboZRtlzcInezc+uwHsvC5UGRkZ0Ne7v1l2dXUVrJlWMbHkH1Z+Xgn32J9VqMXBNtmyDIK7jviffZ1876SocvOLm9Dd3S3kgoICmJubY5tsXNg8NjaW/SGWDTo6OoSupLiE7VVoxM8PCv46WfwTAAD//62+23oAAAvySURBVO1dB2wVSRItchQSIqyQwHDkaLLIHDpYwoIIx5q45GjDgkCIsKyIWpJEziIj2AMR9sg5GpDIXjIcIgeByDnP1WtvN/3/H77H42+wZ7ukz/RUV/VMdb+pru4xNSksJgox5c2bR7X400/t6Lffxqhzu8KNmzeoRo0aqipDhgz0+vVraty4Ma1fv17wJQ8nQ4YMoZ49eir59h3a0759+3zkvsv5HeX7Rz46fPgw6bp58uShA9EHlO7OnTupS9cu4jx9+vT05s0bUf7StZcsXkK1atVS+v6FqKhI2rRpo2BnzZqVYmJO+YvQ99/XpkuXLin+9es3VflbFVIkBSDA+B8a/kBnz5716Yf169ZTJHfs7du3ffjR+6MpLCxM8X7/z+8CHIrBhYiICCqQvwCNGz9OZ1O3bt3o16G/Kt7bt2+pbLmy9PLlS8VLnTo17du7j2r+syZ9/PhR8bNkyUInjp+gNGnSKJ5/IbkCgQCEUFNYWG5L/n75ZYij5qdOm2qF5Q1TvzJly1ifPn2yBg8erHior1e/XkB7Dx48sPjp95HbsGGDxcDy4UH/2PFjAfpRvaJ85CJaRAiZZv9u5sPv27dvgK4/IzKyp7K9dOlS/tXivE6dfykZ9FNSoCQDhEv/u+TT6T/3+Vn0z5YtW3z4U6ZOse03DJ4EEkDx5MkTIVehYgXFr1ixoq0uQCN1cZw5c6aQmzxlsg8f9xIXGSBoPSS9AY5OPQLUGzZsaJUoWUL8/vjvH6LF58+fW+GlwxX/4sWL2pU+F5cuXapkWrVupSoGDxms+CNHjVR8vfDixQsLHkheG54EFBMTo3jlK5S3OG7R1WzLyRUISSZG8J9rk+t5co0RDBBCjDgDBK1D47t81FSTfdEAQRtCAwSzjyDgYIAQC4TMmTPzvkV37RGJLS5duoQePnyo+GZDSXWFdwr61KDvVAaz0AAhWO8k0zoDBG3gzNQQOzUYjxDPl04ahpJ9UfcIeDcxbtyEOG3ijbQ4ZRJbwOwjhLiHdSB86e1jiC8ZkuYMEELSjZ8bMUD43BekxwjVqlWjH3+M0Gq9XVy8eDH9+WeMMNJ4BC1G8PawB7fOAMEAwXgE9IA+NQR/Zrxd+7f3CCdOnPD2CDu0Lk2a1FSqVLhD6W8rliirhm9rkrm6mx4wQHDTax7UMUDw4KC6MckAwU2veVDHAMGDg+rGJAMEN73mQR0DBA8OqhuTDBDc9JoHdQwQPDiobkwyQHDTax7UMUDw4KC6MckAwU2veVDHAMGDg+rGJAMEN73mQR0DBA8OqhuTDBDc9JoHdQwQPDiobkwyQHDTax7U8RQQrl69qrKjlSxZ0oPDlXgmJQgInM2M7t+/L+4ud+7chP/i5U+cA4lu3ozNI1ikSBFKlSqVvwjdvXuXHj9+LPgFChSgdOnSBcg4YbRs2ZKOHTsmRM+dO+e6nbiu9ezZMxo9ejTdu3ePBg0aRCVKlIhLJenX22aEcshENrL8+fOL39SpU2215s6dq2SOHDliK9OmTRshU6hQIYs72VbGCbNFixbqWpw404mKK5n58+er63Ts2NFVG0lNKUHp9ZDfUAIBg2lH6CgpYwcWTnhpFStWTMg0a9bMrgnHvK8FBM7WqmwaMWKEz/3Nnj3bwn3gd/36dZ+6pHySICDAsPr164tOwWBiUHV69+6dxW5TdRq7br1alI8eParqJ0yYEFAfH8bXAgLu6eDBg9batWsDbOapQtlz4cKF+Nz+N5VNMBBGjhypDMeg6qQPMrxC0aJFA3IVIrml9BjR0dG6erzLXxMIX7q55AqEBAWLiIB27NhBPXvGJsju378/9erVSwVG06ZNI54ORO7i9+/fCz4nxiT8x1hJHTp0oAMHDlDatGnp5MmThOQSOiHY3LNnD506dUrkHWLPQ1WqVOH/OFJKFxNlPVhEXuf9+/cTg5EePXpEWEVUqlSJihcvHqAnGdeuXSOOe+jKlSsiqEW+ZyTnzpcvnxQRRwS327dvF2W0W758eZH8mz2ASCLOiTpFHfolZ86clDJlSmrXrp1PGziJj20ByqFmfAnZTvlPnz61ChYsKJ7q9u3b+6i1atVK8Pv06WNVqFBBlHX3z+CwuCMF327aOH78uFW9enVRL70GjryysNDOhw8ffK6newTci66j63GibR89nMyYMcMqXLhwgA5s849tMC3ItsePHy/aGj58uOLJOnnk1VLA9eJrW0ADIWYk2CMAmE2aNKEzZ85QxowZOS19jHiakO6+bNmyxHECcWeJp3PTpk1UunRp4rlV4BmyzZs3F2VOeE0MGFHGP2gPdTzYgpcrVy7iqUW0L5eaAwYMoMjISKWjewTJzJs3r1iaYskniQNbsfyT57t27aLu3WOzn2EJXLlyZeK0vMSDRcjeDpo1axbVq1dPlA8dOqSe8B49etDAgQNp0qRJtGbNGuIHQ3xiAILZs2cnZHoX2d7/+owA+G5sg16iUiiANXbsWPU0sHsXTWK+l0/EnTt3rBUrVohzLBGRXxk0Z84cJeO/tOQ0+6IOTz+idGRqBzEIrNq1a4s6BpVKvo063SM0aNDAJ2rHUpenE3UP/L0EqAjq16+f4OPp50GSbJGLGdeA1+IBV3w7jyArncQIbmyT7SfWMcHBIm5s7969oiMx8BhcEFw3zuvUqSPOb9y4oWR2794teF26dBE8nrctrDAk6UGmXWp8PcDcunWrVPMBAn/jQfFlYdGiReoehg4dKtkWz9+CD5DKhNyq0qaQECC4tc3mNkLKCsnU8OrVKzENwI3j6yYLFiwg3hMQAR7P1cTzp/BqqMMuY+fOncWHNsqVKycCJo4DaMmSJcrzLV++nIYNGybOUYdpQSfsaCKABMEtwz2D9KnBbmcRbh7BHXsX4piFVq5cKfSmTJlC06dPF+UUKVKI4A/1nNafatasKYI9UfnXP3ZTg6zn70vQqlWrxOnmzZsJu6k6ubVNbyNRyqGClXR3cKVw33i64BHg1iXxJ3gEr1GjRtbp06fV04lNGJ2wSQNdJz8GjFLVp4Yv7SzK4FP/dgMD2eratavt9eDR/L/TkBCP4NY2ZWQiFULiEYBQBEvssgVYe/fuTRyFiyAJARdS0YIQLCIgxFOHIA8BGAjBI4JISRMnTlR1UVFRlCNHDlkVcORIXwR3qIjLI0AGASwCRywJESTqxOAk5EDCd6CwRNQJ99S0aVPBSohHcGubfi+JUg4VwLhz1BMFr4CnGV5CJ84/LJZ+qAsPDxcykPVfzq1bt061xet1vYmg5bg8wuXLl1W7iE+C0a1btyyeLpRn098pJMQjuLUt2L2Goi4kwSJuRH9nIF26//obcvhKi6zHES7Zn7BHL6eWtm3b+ldbGzdutDjeED+OFVS9DoTVq1crPgrYc+APe6lrz5s3T9QjSIW7xhRjtzfBG0pCp0yZMqq9YECQ0x9sw8PhT25t828n1OchAwJuDIOmDzK/Eg643zFjxvjILFy4MEAGDH0u5elBLOX47w3EMhSDguvgPQY+wyNJBwI2h0aNGmVhhcLrewsbVvLeqlataukxROvWrVUdln8caFr8et3iYFLxdUAGAwLiHXkdtMvTjwWe/gkiN7ZJGxPrGLIYAfMWYgTECiDEBcil5P/3B9j27dSpk5DBP4gbsFHkT5jHufMJ0f+XaPLkyWILWNbrMYLk+R8zZcok4hesBiSdP3+eeNDECkby9CM+74doH1vJoGAxAr7niG1puaUu21m2bJnYGse5G9tkO4l2DCXC4AHk0wA3bEeI0PHyCXLcsXYiige3jc0qDvBUu9CrW7euz2pEKugeYdu2bT7b09jmhVfg9whS3OfIYLBdOXCAGODig3kENIo4QG6p436xKYYtZZ3ia5uumxjlkHqEREMrN8zBm/iLIGwZY+vWKeHjoXjphPU8XmzFRfIvqrBFjmtly5YtLhXbeh5o8fIK7WGFEmzl49Y22wu7ZCYbILi0z6g57AEDBIcd5XUxAwSvj7BD+wwQHHaU18UMELw+wg7tM0Bw2FFeFzNA8PoIO7TPAMFhR3ldzADB6yPs0D4DBIcd5XUxAwSvj7BD+wwQHHaU18X+D6k7G1/EgjHoAAAAAElFTkSuQmCC;" vertex="1" parent="1">
                    <mxGeometry x="340" y="215" width="82.39" height="90" as="geometry"/>
                </mxCell>
                <mxCell id="28" style="edgeStyle=orthogonalEdgeStyle;rounded=0;orthogonalLoop=1;jettySize=auto;html=1;entryX=0;entryY=0.25;entryDx=0;entryDy=0;exitX=1;exitY=0.25;exitDx=0;exitDy=0;" edge="1" parent="1" source="23" target="19">
                    <mxGeometry relative="1" as="geometry">
                        <mxPoint x="720" y="480" as="sourcePoint"/>
                        <mxPoint x="720" y="300" as="targetPoint"/>
                        <Array as="points"/>
                    </mxGeometry>
                </mxCell>
                <mxCell id="41" value="Only HTTP(80), HTTPS(443) Can Access" style="edgeLabel;html=1;align=center;verticalAlign=middle;resizable=0;points=[];" vertex="1" connectable="0" parent="28">
                    <mxGeometry x="-0.1878" relative="1" as="geometry">
                        <mxPoint x="3" y="-17" as="offset"/>
                    </mxGeometry>
                </mxCell>
                <mxCell id="30" style="edgeStyle=orthogonalEdgeStyle;rounded=0;orthogonalLoop=1;jettySize=auto;html=1;entryX=0;entryY=0.25;entryDx=0;entryDy=0;" edge="1" parent="1" target="23">
                    <mxGeometry relative="1" as="geometry">
                        <mxPoint x="260" y="238" as="sourcePoint"/>
                        <mxPoint x="617.61" y="350" as="targetPoint"/>
                        <Array as="points"/>
                    </mxGeometry>
                </mxCell>
                <mxCell id="31" style="edgeStyle=orthogonalEdgeStyle;rounded=0;orthogonalLoop=1;jettySize=auto;html=1;entryX=1;entryY=0.5;entryDx=0;entryDy=0;exitX=-0.014;exitY=0.6;exitDx=0;exitDy=0;exitPerimeter=0;" edge="1" parent="1" source="19" target="23">
                    <mxGeometry relative="1" as="geometry">
                        <mxPoint x="422.3900000000001" y="330" as="sourcePoint"/>
                        <mxPoint x="680" y="330" as="targetPoint"/>
                        <Array as="points">
                            <mxPoint x="679" y="260"/>
                        </Array>
                    </mxGeometry>
                </mxCell>
                <mxCell id="33" style="edgeStyle=orthogonalEdgeStyle;rounded=0;orthogonalLoop=1;jettySize=auto;html=1;exitX=0;exitY=0.5;exitDx=0;exitDy=0;" edge="1" parent="1" source="23">
                    <mxGeometry relative="1" as="geometry">
                        <mxPoint x="240" y="320.5" as="sourcePoint"/>
                        <mxPoint x="260" y="260" as="targetPoint"/>
                        <Array as="points"/>
                    </mxGeometry>
                </mxCell>
                <mxCell id="44" style="edgeStyle=none;html=1;entryX=0;entryY=0.5;entryDx=0;entryDy=0;" edge="1" parent="1" source="37" target="42">
                    <mxGeometry relative="1" as="geometry"/>
                </mxCell>
                <mxCell id="37" value="" style="swimlane;startSize=0;" vertex="1" parent="1">
                    <mxGeometry x="640" y="175" width="150" height="395" as="geometry"/>
                </mxCell>
                <mxCell id="40" value="Public Area" style="text;html=1;align=center;verticalAlign=middle;resizable=0;points=[];autosize=1;strokeColor=none;fillColor=none;" vertex="1" parent="37">
                    <mxGeometry x="35" width="80" height="30" as="geometry"/>
                </mxCell>
                <mxCell id="39" value="" style="shape=image;verticalLabelPosition=bottom;labelBackgroundColor=default;verticalAlign=top;aspect=fixed;imageAspect=0;image=https://perfectacle.github.io/2017/08/02/Spring-boot-study-001day/thumb.png;" vertex="1" parent="1">
                    <mxGeometry x="660" y="210" width="40" height="40" as="geometry"/>
                </mxCell>
                <mxCell id="45" style="edgeStyle=none;html=1;exitX=0;exitY=0.5;exitDx=0;exitDy=0;entryX=1;entryY=0.5;entryDx=0;entryDy=0;" edge="1" parent="1" source="42" target="37">
                    <mxGeometry relative="1" as="geometry"/>
                </mxCell>
                <mxCell id="42" value="" style="swimlane;startSize=0;" vertex="1" parent="1">
                    <mxGeometry x="900" y="272.5" width="150" height="200" as="geometry"/>
                </mxCell>
                <mxCell id="43" value="Private Area" style="text;html=1;align=center;verticalAlign=middle;resizable=0;points=[];autosize=1;strokeColor=none;fillColor=none;" vertex="1" parent="42">
                    <mxGeometry x="30" width="90" height="30" as="geometry"/>
                </mxCell>
                <mxCell id="34" value="Object Storage" style="shape=image;verticalLabelPosition=bottom;labelBackgroundColor=default;verticalAlign=top;aspect=fixed;imageAspect=0;image=data:image/png,iVBORw0KGgoAAAANSUhEUgAAAgAAAAIACAYAAAD0eNT6AAABdWlDQ1BrQ0dDb2xvclNwYWNlRGlzcGxheVAzAAAokXWQvUvDUBTFT6tS0DqIDh0cMolD1NIKdnFoKxRFMFQFq1OafgltfCQpUnETVyn4H1jBWXCwiFRwcXAQRAcR3Zw6KbhoeN6XVNoi3sfl/Ticc7lcwBtQGSv2AijplpFMxKS11Lrke4OHnlOqZrKooiwK/v276/PR9d5PiFlNu3YQ2U9cl84ul3aeAlN//V3Vn8maGv3f1EGNGRbgkYmVbYsJ3iUeMWgp4qrgvMvHgtMunzuelWSc+JZY0gpqhrhJLKc79HwHl4plrbWD2N6f1VeXxRzqUcxhEyYYilBRgQQF4X/8044/ji1yV2BQLo8CLMpESRETssTz0KFhEjJxCEHqkLhz634PrfvJbW3vFZhtcM4v2tpCAzidoZPV29p4BBgaAG7qTDVUR+qh9uZywPsJMJgChu8os2HmwiF3e38M6Hvh/GMM8B0CdpXzryPO7RqFn4Er/QcXKWq8UwZBywAAADhlWElmTU0AKgAAAAgAAYdpAAQAAAABAAAAGgAAAAAAAqACAAQAAAABAAACAKADAAQAAAABAAACAAAAAAAoMJe/AABAAElEQVR4Ae29PZcUSZummRTU2R2JoFvZVRpP4D1npCGqpTkjDMErzVlhKqvFVkhK2hlhyHqV1YbMlqalAnGVJtF2lalkfkATaDtKk8h8pNM/YIjSdk/By953lDsEQUZmfLi5m7ldfo6nf4S72WOXmZvd9pi559YWCwQgAAEIQAACEIAABCAAAQhAAAIQgAAEIAABCEAAAhCAAAQgAAEIQAACEIAABCAAAQhAAAIQgAAEIAABCEAAAhCAAAQgAAEIQAACEIAABCAAAQhAAAIQgAAEIAABCEAAAhCAAAQgAAEIQAACEIAABCAAAQhAAAIQgAAEIAABCEAAAhCAAAQgAAEIQAACEIAABCAAAQhAAAIQgAAEIAABCEAAAhCAAAQgAAEIQAACEIAABCAAAQhAAAIQgAAEIAABCEAAAhCAAAQgAAEIQAACEIAABCAAAQhAAAIQgAAEIAABCECgJwQu9CQdJAMCjRIoimKgAL1uffvtt4OPHz9O96vtdN+/6fiyNle8P7MMLly44PONLYrnVwU2mQvwneLx+emi/bLa3dL+5LfffpteX2qpz7OFAAQgUBNAANQk2PaOQN2IX7p0qagb7rrBVgN5tUqwG3M38MXscbXft40FwXS1QKgSV3qr9L/11iLCa7VvEWH9UF/r0ywQgEBPCCAAepKRuSRjrlF3w+6e9rYaLW99XFQs6m11yGZDAqXun4izxUApzlOPhI6ngsHnEQsbEuZ2CLRMAAHQMnCiO5uAGvji4sWLQ1017ZWrYXFP3fvTc94/OwR+7ZjAVCDMCIW32v8kEl6+fHncsX1EDwEIVAQQABSFVgm4B68x9eLPf/7z0L11N/AzjXvRqjFE1hWBqSBQ5BPl/QuVgWOtk/fv3x8z3NBVlhBvjgQQADnmeuA0n9HIF4qaHnxg/okH72EGewk+iYNvvvmmxHOQeK5ifpQEEABRZksaRs019MOZ3nyRRgqwMjECU09B5TUYIwwSyz3MjY4AAiC6LInTIDX207F5Vb5X1dDbfT+SpUWc1mJVZgQsDDwx8YVEwZihhMxyn+SuTQABsDa6/t4409iPql79SKnFdd/fLO9jyqZDCRIFz1SGjz98+OD5BWUfE0qaILAuAQTAuuR6cp/d+HpPfqhJeTdVUY6qnj2NfU/yl2R8QeCTKMBT8AUXDjIlgADILOOr3v1Iyb5VNfZFZghILgRmCXjCoYcQPKfgBZMNZ9Gw33cCCICe5/Af/vCHodyft+jd9zyjSV5TBOwlGEscj/U9imcIgqawEk6MBBAAMebKBjbNNPg7qsSGCgp3/gY8uTV7AvWwwRGCIPuy0DsACIDEs9Qufbkuv1evxTPzd5QcGvzE8xTzoyYw9RDIwiN51p4xsTDqvMK4cwggAM4BFNvPM5P23Nh/r7WIzUbsgUBGBEqldSwB/kSCYCxBMMko7SQ1cQIIgAQycKaXj1s/gfzCxHwJeP6AUn+IdyDfMpBSyhEAkebWjRs3Rno175bMc09/GKmZmAUBCCwmcKyfnmmI7ujVq1fjxZfxCwS6IYAA6Ib7qbFWjb4b/DtaB6dexEkIQCBFAqWM9quGjxEDKWZfP21GAHScrzT6HWcA0UOgfQKlokQMtM+dGOcIIADmgLRxSKPfBmXigEASBEpZiRhIIqv6ZyQCoKU8rSby2bW/q7XQygIBCEBglkCpgyea+/OA1wtnsbAfigACIBRZhetX9jTmd0czgz17fxQwKoKGAAR6RGDmbYInvFrYo4yNLCkIgAAZgos/AFSChEC+BA6ZPJhv5odMOQKgIbpVb/+egvMs/mFDwRIMBCAAgZpAKc/APt8YqHGw3ZQAAmBDgvT2NwTI7RCAwDoEDvW/CR7yz4rWQcc9NQEEQE1ixa0bfo3r32dsf0VwXA4BCDRGoJ4r8Pr168eNBUpA2RBAAKyQ1TNu/j3dxod6VmDHpRCAQFACDA8ExdvPwBEAS+QrDf8SkLgEAhCIgUApI8Z6lfCAVwljyI64bUAAnJE/avgLzb51b59P857BiZ8gAIEoCRwiBKLMl2iMQgCckhVu+D3bVqsbfhYIQAACKRNACKScewFtRwDMwKXhn4HBLgQg0DcCCIG+5eiG6UEACKAafn+x77527e5ngQAEINBnAgiBPufuCmnLWgBUDb8/3sOs/hUKDZdCAAK9ILCvOQKPmSzYi7xcKxEX17qrBzddu3btnsb4j5SUf6f1f+5BkkgCBCAAgVUIjFQH7vzFX/zF5N27dy9WuZFr+0EgOw+AP+CjT2k+UsEv+pGFpAICEIDAxgRKeQP25A14snFIBJAMgWwEgCf46dOZj/hyXzJlE0MhAIH2CTA/oH3mncWYxRCA3P331eM/FOV/2RlpIoYABCAQP4Gh6sq9K1eubGlY4Fn85mLhJgR67QHA3b9J0eBeCEAgcwIeFrjNJMH+loJeCgBe6+tvgY00ZRMNLU1Osa085dw6pwa6yeunhTksn1CwE57Ag+qLgqeV8fCxE0MwAr0TAPT6g5WVXgWsBrusEuR/ouKKzeuv1XZLFV6pfS/1b/V2ejK2XpHnuEwN+/3PV/v6zkV9bqBLLiv9s8cDBIWosJxFwN6Auyr347Mu4re0CPRKAGis/2fh30srC7C2IQJ1L9wNeqkw3ZifqNKqG3WfmzbiqsS8ZZkjYM+ZTnktqp/8vzC873O1aKjFgs+x5Edg/82bNwf5JbufKe6FAHDvR5X+L1qH/cym7FPlxr1u2N+KRt2wl9p3Z9xblpYJ+LlTlF79Jc2r2m5rvWrvQuVRQCQISA8X5gb0JFMvpJ4Of9BHadjXSmWTcGZWDfyxkvBWqxt4b308Ufs+0ZYlMQLSB34mC6+1QFA+39SxvQhDbVnSJeBn8kDegAfpJgHLkxUArlxUqfD9/oTK8KJGnh58QpnYoKl6hi0C/BxbFGxbHFTCYNBgNAQVlgATBMPyDRp6kgJAFYddjLj8gxaNjQK3y/5YefRCPfljheTV7fxko1C5OQsCFvdK6BBhkEx2MySQTFZ9aWhyAsCz/NWo/KJkuJJg6ZhA1asfy4zjym0/pqHvOFN6Gv2cMBip7LkjMOxpclNLlkXAD3r2j1MzPGd7kxIA1Xj/g5wzrMu0zzX2L2TLMY19lzlC3IiC6MrAT8wLiC5PFhqUjADw53yViv2FKeGHpgnUbvxnUvZjBU5j3zRhwgtCYEYU2Etwi3kFQTCfFSivCp5FJ6LfkhAAavwfidluRNx6Z8pc7/4ZrrzeZXHWCZIo8FCB5xV8r7I+lCgosgYSPvEP5An4KXw0xLAJgagFgJW8/oPfL3pgR5skknu/JlA3+OrdP9OvYzX45ddXcQYC/SSguqVQykYSAiNt7SUotGVplsCR6hd/PXDSbLCE1hSBaAWAG389lE+1WrmzbE7AD+HYqx7KJzT4mwMlhP4QqAWBPQRK1UjroD+p6y4l6mg81/pHREB3eXBWzFEKABr/s7Js+d/04I0loKZj+HoAx8vfyZUQyJuA6qCRxEA9h2CUN43NUo8I2IxfyLujEwA0/htlt3v5drs98xbVvRFLbobAlADegc0LAiJgc4YhQohOAGxvbz/H7b9SVrvRf6xG3w3+eKU7uRgCEFiZgL0DqqN2dSNzB1aj91QTA/+42i1cHZJAVAKA2f5LZzWN/tKouBAC4QggBlZm+0gi4MeV7+KGIASiEQC8539u/tLon4uICyDQHQHEwFLsP+oq/xOhg6Wu5qKgBKIQAGr87ymVD4KmNM3AafTTzDeszpxALQY0VOC3CgaZ45hPvkXAnyQCqPPnybR83LkA0IPij3M8bzndUUfn2ftaH8tIJvJFnVMYB4HzCaiO25UQuKN1dP7V2VzxUfOW/HrgOJsUR5jQTgWAHoxCD4Xf9S8iZNO2Se7tP9RD8YDZ+22jJz4IhCdQ1Xf7ionJg7/jPqlEQPn7IX/bJtCpALh+/fpT9XRHbSc6pviq3v4BSjimXMEWCIQlgFfgE1/eDPiEov2dzgRA5pP+6rH9QzX8x+1nOzFCAAIxEKi9AvKC5jpXgPkAHRbETgSAC73G/U86THdXUePm74o88UIgYgKuE2Wevy9wP8MhUc8H+Gs6Q+0X0E4EgD72c5JTIbebX4Ln8PXr14/bz2JihAAEUiIgLeBJg1kJAdWRz09OTv46pXzqg60X206EXf8q3Dttx9tFfNX4vv8b1sG7d+9edGEDcUIAAmkRmEwmx1ofXr58+a0s90Tp/yWtFKxurdL4v165cuWC6snx6ndzx7oEWvUA2M2Vg+ufiX3rFkfugwAE5gmo2vTQwM9ah/O/9ez4XTUUUPYsXdEm55s2LVMB3m8zvrbjcsOvAnxbrqzb6vWP246f+CAAgf4RcF2iOuU71S13VceU/UvhpxRdUQfxP386Yic4gdY8AD3v/ZcWN4zxBy+vRACB7AmoLu3zHAE+ENRiCW9tDsBf/uVfPlK6/mWLaWsjKs/q/3srcyn0/95GhMQBAQjkTaCeI+Axc3kEPEdg0CMiSs6Fq5oLwITpFjK1FQ+AFGsfP/d7qIb/J7nnLAJYIAABCLROwJ5Vex+13mk98nAR4gUIx/aLkFuZA6DCufdFrGkflB7n1z+y8Ox+Gv+08xLrIZA0AdVBpbyPu6qTvuvR/IALzAVop1gG9wBYofZo5r//jeV+O1lDLBCAAARWI6DXrPd1x/3V7oryansB/oJOVti8Ce4BsHsqbBLChy5lfWyFTeMfnjUxQAAC6xNwHaW6arsH3gB7AfrkOV4/UwPeGVwAyPZbAe1vI+iHfgVHSvS4jciIAwIQgMAmBKphgW2FcbBJOBHc+58isKHXJgQVADdu3BjJA1AkSnAiJe2xflRoohmI2RDImUDlDfghYW/AQCPIo5zzMHTagwqADx8+7IZOQIjwa5e/lPQ4RPiECQEIQKANAqrDjlSf3U5UBHgYwP8lkSUQgaACQDYn5/7Xg/LYD4zdaIGYEywEIACB1gi4LlOd9p0ifNhapM1F1KfXG5uj0lBIwd4CkOsmxXf/meXfUMEiGAhAID4CCb4lwL8KDliMgnkA5LoZBbQ7RNA0/iGoEiYEIBANgepNpqQmBybYlkST3+cZEkwAKOKU3P80/ueVFH6HAAR6QSAxEWAvdUptSVJlJJgA0JjTMBESNP6JZBRmQgACzRBITATcbCbVhDJPIMgcAI3/D+S2eTcfWYTHD/Ug8JpfhBmDSRCAQHgCmhPwQLHcCx/TRjHwVcCN8C2+OYgH4NKlSyn0/ksa/8UFg18gAIH+E9C3TvblrT1OIKVFAjYmZ2IQAaACNYicxPQjP5HbiHkQgAAEghLQG4IT1dc/KJJJ0Ig2DPzixYspdCo3TGX7t4cSALFn1oHfjW0fNzFCAAIQiItAVRfG/GbABYmUIi5q/bAmiAAQmpg9AHb9P+hH9pEKCEAAApsTcJ2oRrbcPKRgIVwOFnLGAQcRADEPAfThvxNmXF5JOgQgEIiA6sZovxSoSeUIgAD5HkQABLCzqSAnr1+/ftxUYIQDAQhAoC8ENCHwUGmZ9CU9pON8AlkJAHkmjs9HwhUQgAAE8iPgCYFKdZlfyvNNcVYCIN9sJuUQgAAEziegYQA8AOdj6s0VCIDeZCUJgQAEIAABCCxPICsBIHVbLI+GKyEAAQjkRSDmCdx55UQ7qc1KAAjpoB2sxAIBCEAgSQLDJK3G6LUIZCcA9H8KirVIcRMEIACBHhNQ1Ujj3+P8PS1puQmALb1PunMaCM5BAAIQyJwAAiCzApCdANAY1/eZ5THJhQAEIHAuAXWOqBvPpdSvC7ITAJoIOPS/K+5XNpIaCEAAAusTqIZG8Y6ujzDJO7MTAMqlgZTubpK5hdEQgAAEwhAYhQmWUGMmkKMAcH7ciTlTsA0CEIBAmwTkGb3fZnzEFQeBXAWAhwFGcWQBVkAAAhDojoDqwl2+kdId/y5jzlUA+G2AR12CJ24IQAACMRCg9x9DLnRjQ7YCQLiLa9eu7XWDnVghAAEIdE9AdeA9ev/d50NXFuQsAMz8fjX7tSv+xAsBCECgEwKu+/RaNJ2gTujHEWnuAmAg9ctQQBxlESsgAIEWCWgY9Gd6/y0CjzCq3AXAlh6AEUMBEZZMTIIABIIRUJ3nWf+89x+McBoBZy8Aqmz6Wd6wYRpZhpUQgAAE1idQ1XX764fAnX0hgACoclLusF88JtaXjCUdEIAABOYJuI6T1/OX+fMc50kAAfA53wuJgKd6PgafT7EHAQhAoB8EXLep8X/KuH8/8rOJVCAAvqRodYwI+JIJRxCAQOIEaPwTz8BA5iMA5sBKAAwRAXNQOIQABJIlMNP4M88p2VwMYzgC4BSuiIBToHAKAhBIjgCNf3JZ1qrBCIAFuGdEQLHgEk5DAAIQiJaAGv/pkKbrsmiNxLBOCSAAzsDvB6eaGFiccRk/QQACEIiKAI1/VNkRrTEIgPOzpn47ABV9PiuugAAEOiZw48aNkTouz9WBKTo2hegjJ4AAWC6DLAKeV1/PWu4OroIABCDQMgH/c58///nPTxUtrzO3zD7F6C6laHSHNu/rASv0gP1UluWkQzuIGgIQgMAnAp7sp07Kzzqx++kkOxA4hwAegHMAnfLzrr0BHmM75TdOQQACEGiVgKoiv7r8XJHuthoxkSVPAAGwXhZ6SOCEIYH14HEXBCDQDAG7/N0hYby/GZ65hYIA2CzHPSRwgjdgM4jcDQEIrEbAdc7169c91v9gtTu5GgKfCSAAPrNYdw9vwLrkuA8CEFiJgNr9gT2P9kB+/PhxtNLNXAyBOQIIgDkgGxzW3oDvNwiDWyEAAQicSsCv91Vj/funXsBJCKxIAAGwIrBzLrc34EgK/RHDAueQ4mcIQGApAq5LVKf84tf7GOtfChkXLUkAAbAkqBUv85sC00mCdtmteC+XQwACENhy3VG5+z3DfwckEGiaAAKgaaJfhrfvGbqarHPny9McQQACEFhMQA2/Z/ef6Ip9rXQiFqPilw0IIAA2gLfkrYUm6xzqgT5BCCxJjMsgkCkB9fp3t7e33fB7dj8Nf6bloK1kIwDaIr21hRBojzUxQSApAuoc7Kjhf65e/yPG+ZPKuqSNRQC0n30IgfaZEyMEoiRQ9/jlJfxFDf8wSiMxqrcE+F8A3WVtLQT29eDvf/jw4Qn/X6C7zCBmCLRFwJP71NO/p/j2tOLmbws88XxFAAHwFZLWT0yFgCqEUvMExnrV50BCoGzdCiKEAASCEqDhD4qXwNcgwBDAGtAC3VIo3Pr1wUf+6EegeAgWAhBokYCfZX+2VyL/naLd10qvv0X+RLWYAB6AxWy6/GVXnoBdeQTKanjgGV6BLrODuCGwGoGqt39Hz++OnuXRandzNQTaIYAAaIfzurHUwwNbEgOH6kE8fvXq1XjdwLgPAhAIS8C9fTX4O4rF3/4YaHJf2AgJHQIbEEAAbACv5VvxCrQMnOggsAyBmbF99/aHy9zDNRCIgQACIIZcWM2GT14BjSuOdeuh3iBgiGA1hlwNgY0IzLr4+a98G6Hk5g4JIAA6hL9p1FXFM9LQwJbEwJHCO+J1wk2pcj8ETifgRv/ixYtT976ePff0cfGfjoqziRBAACSSUeeZqQrJFdPOnBjAM3AeOH6HwBkE5ht9PWeDMy7nJwgkRQABkFR2LWfsnBgY6y6GCZZDx1UQ2FKjX0hIf+8Z/HqWRlqhAoFeEkAA9DJbPyfKFZiOpsMEepPgWPvPVLkd8TbBZ0bsQWBm9v73olGYCA2/KbD0mQACoM+5+3XaPG451EzlexIDE/Vwxjr2vAGGCr5mxZkeE5jp5buH71f3cO33OL9J2ukEEACnc8nhrCcw7Sih03kD/uiQ9scSBU8kCI758FAORSCfNKrBryfw3XKDr5QXTr32vWGBQJYEEABZZvupiS50dlcV4q4nElbDBcf2EuAhOJUXJyMm4B6+ZuyPZOKnBp/GPuIMw7ROCCAAOsGeRKTT4YIZQeDPEh/reCyB8II5BEnkYRZGund/6dIlD23dVBkdqozas2UPVxbpJ5EQWJcAAmBdcvndV6hCLZRsf+3MHoItewd07oW3EgXly5cvj/PDQorbJlD37lX2LFJvaS3qMXwa/bZzg/hSJoAASDn3OrZdle1IJoy0vadhAosCTyy0l8Ci4Lk9BYiCjjMp4ejds//222/duLtXP1SZuumtkkTvPuF8xfR4CCAA4smLPljiinmkhFgUbFWiwOnyXIJS5ywMjvEWGAnLLIGqV++G/qrKiLcj/V64DNWLyxQLBCDQHAEEQHMsCWkxAVfo7rntuBI/Sxj89ttvfgFhsjgofkmVwFyPvlBDf7UqF4XSNHDZ8FJvpwf8gQAEghFAAARDS8BLEPhKGMg78GkoQffba/DWXgOtk/fv3/v1RMTBEmC7usQ9ebntB5XbfraRH8gmevRdZQzxQuAUAgiAU6BwqnMC7g2OaivcI/RaiQOfngoCbWuB4DcUvE7wINTUmt+6B69Q/T790FvlybSBr/an57yP214UWCCQAAEEQAKZhIlfEbDn4NPJWiD4xIxImIoCnZp41TVvtX0nkfDWQqESC5OcP3hUN+jusYvPtEHX9rI4XRGfq9pOz3mrtdA6Xcy7Xmb363NsIQCBNAggANLIJ6xcnUChxqmYv80NVt1ozYgFX1ZqnQoDH2gp/UfXWjhMFzWKZbU7e92Whibq89XPWxYWFh6NLXVjPRug3n0v6uPZtGp/2ojrt4Fs9r6Xwn9mrpse+9xsj93HXnTd7zv8hQAEeksgNwFQumJTpVj0NkdJ2LoEpmXirIZv9rfZfQuJ+cXfSQi9+HsM5y2zdp53Lb9nT4D6MbMi8HXN1WMAqgxdwL9TEh/2OJkkDQIQgMCqBB5KUH4nMVuueiPXp0sgKwHgbLJr9s2bN3sq7NsWBOlmHZZDAAIQ2IyA6sBj1YW3XSc2PWy1mWXc3QaB7ARADVWFvTw5OdnW8YHWRsdr6zjYQgACEIiUgOu8A9WB36kqHEdqI2YFJpCtAKi5Svnu2/UlJfy4PscWAhCAQI8JHLnOc93X4zSStCUIZC8AzKjyBuzaFcawwBKlhksgAIHkCKhuG1fu/h9c5yWXAAxunAACYAapnomxhwX0kNxFCMyAYRcCEEiZgF9b3VXddtt1XMoJwfZmCSAATuGph+Swnh+AEDgFEKcgAIEUCEzH+dWh2X79+jVDnCnkWMs2IgDOAO4xMgkADwvw8JzBiZ8gAIGoCHxq+F2HqUPDJOeosiceYxAA5+SFHh6/LeD5AX5tECFwDi9+hgAEOiNAw98Z+jQjRgAsmW8IgSVBcRkEINA2ARr+ton3JD4EwIoZOS8EmCOwIkAuhwAEmiJAw98UyUzDye1/ATSWzRYCCmxX/6SlkAgYaZbtff7HQGN4CQgCEFhMwA2/P937QNWQ91kgsBYBBMBa2D7fVAmBQ505lBbYRQh8ZsMeBCDQHAF1NMb6Vv+h/nvjExr+5rjmHBICoMHc10N5qOAsBOwRsBi402DwBAUBCGRIwA2/1gPVL+MMk0+SAxJgDkAAuH5QZ98c0MNbBoiGICEAgf4SqMf3r/ABn/5mctcpy8oDoB75oE3gEgKl4tt1nNXwwB3ZMPIxCwQgAIF5AlVv3/+ufKzqg/H9eUAcN0ogKwEgcq0KgNmc0sN8qGMPDxQSAfvav6VtoS0LBCCQNwE39J7Ud6h6ouwShQTIsMv4ibtdArkJALe/Az1jnSnr6gHfdTbLFuYKtFveiQ0CsRBwHeR/zvNQdcI4BqNcN8oOryyZEMhxDsAwlrz1g1/NFbiiisD/gGgci23YAQEINE+gesb39Lxv6zO9/q984+ZjWS/ES5cuRVM3rpcC7lqVQG4egC29RrMjSONVQYW8XpXAROEfepUKL7S1Z4D5AgLBAoHUCbjR1/N8pEb/cfWsR5kk2ee6kSUjAtkJAOXt91r3Ys1jVRClbDv0ihgQBRYIJEgglUZ/Fq1s/l5CZfYU+z0nkKMAcLs6Ujs7jj1vEQOx5xD2QeAzgRQb/dr6GzdujOQBKOpjtnkQyFEAeBjAH+gZp5TFp4kBpcPejJHWQUppwVYI9ISAh+7s2n/mrZ5RHye56OuCu/T+k8y6jYwO4u/Z3t4+9Bj2RpaFvXmih3Y75Qd2Fo89Gp7boB6IXy0czv7GPgQg0BwBPWPHesaeqf5wgz9uLuTuQrJLVPXHSXcWnB+z7Hv06tWrH8+/kitWIZClB0CABipQ97X9aRVYsV5bVURj2+eHWRsLArwDBsICgc0ITHv5CuJYjX7Uk/jWTaYEzf6693Jf2gRy9QBMc63yApRpZ+HZ1ksPDCUGbqnnslN5BwZn38GvEMiawKTq5du1/6IvvfxFOeoOg+qHqHv/tl024gFYlIkbnM/VAzBFpgbxkXZub8Av+ltVgR3LSK/+vOiWnnd7B24iCEyDBQJbWTX48/l98eLFR6oL5k9znAmB3AXA6Nq1a3v6IMeDTPJ7a2a4oBYEUw+B0j9SRTCUKCpyYUE68yOgMl6qjI+Vcrv0n1UCOT8QSrE6A7viMcoy8SR6SiBrAVCVgft6EDyhp8yxTFQV4KyHoBAHiwILgpuqLEc5ciHNvSBQ9+5fqLF3GR/n+pzP56bqPLv+f54/z3FeBBAAmhCoRu4XPQ+3VTlM8sr+r1NbVZClfjmqfxWbofbtHRhpexVRUJNhGxEBN/bu3XuGvhv7Y5Vlb1lOISBOT3V6cMpPnMqIAAJAma2HwY3bfe324q2ApstvVZG6Mj2sw65FgXoRw8pTMNRvVCg1ILYhCcz37GnsV6CtYU/3/IsVbuHSnhJAAHzO2D09GBPNBzj4fIq9RQRmRMGnSyQKLAA8fHBTWw8h2LuCMPhEiJ0VCdS9+mPd5zH7t95WXqoVg+JyE1Ad547OHjQgYAIIgC/Lwf7169fL169fP/7yNEfLEFDFPNF142qdTjL0fZW3YFAJg217DHxa4qDQliVzApXr3o28G/gTGvowBUKN/z2FvB8mdEJNkQACYC7XVBkdSgRsIQLmwGxwWHkLHMJ4PphKHHhC0lX9VouD2nMwfznHaRJwT34iwfdVI6/kTCrhmGbKErFaddod5cGDRMzFzJYIIABOAY0IOAVKoFOVOHDD8NUicVDopFd7D4bear2q/KkFgo9ZOiag/Chlght4b+te/K/ad766gfd5lo4IVI3/YUfRE23EBBAACzLHIkAusys5fSNgAYrOTlcNR1kZcHSaIXMiwV6EK1q9HVgoaOuhBm+9sixPYNpr1+Wl+E209fpW7vmy2p9uadxFI+KFxj/izInANATA2Znws0TAZSYGng2py1/nRMKZplRioRYD0608C5d1k0WDj71fCwftTr0PW2oACx8kttQNuM124+0e+nSrfffOvf9ODXq97+NS6xaNuimkv3jCn0TwfvopIQWhCCAAzie7rwdpCxFwPqjYr2iiYatERJ3UgXa8zi7F7MHs/ozYmD09v183yvPn6+Oy3qm2Xxw3kca58DlMkIDqrJ9l9l6CpmNyiwQQAMvB3te/OPZrbXepYJcD1teryP++5mw/0iWBOtD3/X9RXTXqR4pIRUgC34QMvE9hy33qf6LzdK4H2KckkhYIQCBhAqqbhqqnntP4J5yJLZuOAFgNuF9XO/HY2mq3cTUEIACBcARUJ91T3fQ80fkq4cAQ8pkEGAI4E8/CHz0voNAEqgNcwgsZ8QMEIBCYAC7/wIB7HjwegPUzeNdDAn7NZv0guBMCEIDAegTU+O/YI4nLfz1+3MWngDctA4UePn8vYIQ3YFOU3A8BCCxDwL1+NfyPdO3OMtdzDQQWEcADsIjMaufxBqzGi6shAIE1CFRj/Se6lcZ/DX7c8iUBBMCXPDY5qr0Bz6XQi00C4l4IQAACswRu3Lgx0nDjU517oHUw+xv7EFiXAAJgXXKL7xt6XE5K/RFCYDEkfoEABM4nYHe/6pKfNcT4lLH+83lxxWoEEACr8Vrl6umwgB7e+6vcxLUQgAAEqob/vjsTorEHEQiEIIAACEH1c5iFdv3K4AlvC3yGwh4EILCYgBp/dx7c8O9rxd2/GBW/bEgAAbAhwCVvr+cHIASWBMZlEMiNgBt+fXL8pJrhT8OfWwHoIL0IgHahIwTa5U1sEIiewGzDz5f8os+uXhnIlwC7yc5aCOzrgd9//fr1427MIFYIQKALAh7jV0//jib27dHod5EDxGkCCIBuy8EnISAzDjXT9zGfFu42Q4gdAiEJVA3/PcXhiX0DNf4hoyNsCJxJgCGAM/G09mOhmPY98YfXB1tjTkQQaI2A3+PXs/2AyX2tISeiJQjgAVgCUsuXeAbwrt4aGCveQ4YHWqZPdBBokICe4x0Fd0/evVGDwRIUBBohgABoBGPzgVQf/XCvYV+hj/lfA80zJkQIhCAw6+bXc8xs/hCQCbMRAgiARjAGDaRQ6HgFgiImcAhsRsCN/sWLF93b98S+0WahcTcE2iGAAGiHcyOxzHgFHijAIw0VPH716tW4kcAJBAIQWJmAx/blnasbfnr7KxPkhi4JIAC6pL9+3K5odlXx7GqIoNT+WL2Phy9fvjxeP0juhAAEliEw2+jrGaTRXwYa10RJAAEQZbasZFShq3c/fPhQi4En8gwc4RlYiSEXQ+BMAlWjf0sXWXgXZ17MjxBIhAACIJGMWtLMQtd5xvG92jPAMMGS5LgMAnME6OnPAeGwdwQQAL3L0k8JKrRXDxNMtH+kj46M5Sl4oo8N+ZgFAhCYITAzke+W5tvs4N6fgcNuLwkgAHqZrV8lyuOUu6rU/DbBlr8xoP0jzRt4xryBr1hxIiMCtWtf4nikZ8JrRqknqbkTQABkWAJc0SnZI3kDtjxUoMrvWMdHOn7Gp4gzLBAZJVm9/EIi+HuV+aGeg0+9fBr+jAoBSf1EAAHwCUW2O4Uqv0Kp37F3oJ47UA0XIAiyLRb9SLgbfHm6RkrNLZVzbwutWzT4psCSOwEEQO4l4Ov0Fzq1qwpyOlww6yGQQHjBkMHXwDgTD4E//OEPQ3myblU9/JEss8CNx0AsgUBEBBAAEWVGpKZ88hBUQwYTDxmoUn3mrc6NmVQYac713Cx17v31vZHK4khl8aa2bvw932WLRr/nmU/yGiGAAGgEY1aBDFzhKsWueLfqYYNKFLzQ8fj9+/fHiIKsykTwxM409ldV1lz2hoq0qBv6ehvcECKAQI8IIAB6lJkdJsUVcaH4Panq/owoKHX+mcWBzpUMH3SYQwlFXY/bq+wMVXaueivzaewTykNMTYMAAiCNfErRyloUjFSBb1XDB07HsSp1C4MXCIMUs7U5m2ca+ssqC56VP23oFYO9TNOI6m1zsRISBCBQE0AA1CTYtkWgruh3XLnPCYOJzr2QISfyGFggTPAatJUtYeKpGnnn+VXFsK08var9uqHf0v404nobxgpChQAETiOAADiNCue6IOBGwvGO/EdDCd74tURv7DWYaGvPwVvt+9sFpeYa+LMFpS9g6YaAG/hLly4VypfpqnxxQz/Q8VeNvC2s8rgbY4kVAhD4ggAC4AscHERKoBYHU/PciHit5hr43PTNBO/ovD0IPp6KBJ9DKJjCaosb9m+//XYgIVboTjfoxUzjPj2n895+Emved76wQAACaRBAAKSRT1h5NgE3UKPqkunWDVHdGM0KBV0zFQfVtaWu+dXntL5TA/erhYN/03by22+/+fwk1Tca1IYPZL/XraqX/ulY6S78m9J52dv62PvVOh2e0f6npeb56QQ7EIBA0gQQAElnH8avSGDauFWN3Ve3uoGbbeQsHLxUwxDeLf3HSy0Ufj+aCohJtT/dKJy3s8cb7tcN9Wwwnxpqn5xLUzF7offrIZX587Ppnf+NYwhAoN8EshIAquzGqrifKEvva3UFygKBVQgU9cVzDW59OtiWhjoYWgL+nYAF7IHqx+9V1kZAyYPA712cPNI6TeWbN28eqDf0nQr544ySTVIhAAEInEpAdeHYdaLrxlMv4GRvCWQnAJyTnjl+cnKyq0J/V4W/7G3ukjAIQAACiwmUqgN/UF1423Xi4sv4pa8EshQAdWaqzB9KAHyn44P6HFsIQAACGRA4cK9fdeBRBmkliQsIZC0AzEQPwESur309DNs65GFYUFA4DQEIpE+gcvdvu85z3Zd+ikjBJgSyFwA1PD0MpR6KHxgWqImwhQAEekTA7v7buPt7lKMNJAUBMAdROuBQD8k2QmAODIcQgECKBNzL/0mdm23VbeMUE4DN4QggABawtRCQu+y2fj5gouACSJyGAARiJeCG3+P8dvc/iNVI7OqWQFbfAVgVtURAqXv29UW1Q2/1juwdbVkgAAEIxErADf9DNfwPVH15nwUCCwngAViI5vMPFgLVa4Pb8gbw/YDPaNiDAATiIDDb49+n8Y8jU2K3AgGwQg7NCwGGBlaAx6UQgEAIAjT8IahmEiZDAGtktIWAbtvV0EChYYFdCYE72hY6xwIBCECgDQK4+tug3PM4EAAbZHAlBPYVxL60wK5EwH2EwAZAuRUCEDiPQKkL/Dnzx6p/GOM/jxa/n0kAAXAmnuV/1MN4qKsPKyFgj8Bo+bu5EgIQgMBiAvIyjrUeqJ4ZL76KXyCwGgEEwGq8zr16Rgh4eMBvDnyvmwbn3sgFEIAABL4k4B7+Y/X2j2j4vwTDUTMEEADNcPwqFD2wpU7uyiNQaDuSEGB4QCBYIACBswm4t6/64gg3/9mc+HVzAlkJAD1UxebIVguhEgKHuutQWsBCYFcr3xNYDSNXQ6DvBKLo7Ut84K3se0mbSV9WAkDp7rRwV268sYTAnmzZsRDQOprJD3YhAIGMCETY2x9mhD/7pGYnANT4FlWvvLPMV/wTRX7o1fZ88803e6oIvpcYKHSOBQIQ6DcBP//+Wt9h13XRLGZVRTT+s0Ay2M9NAGypsd1Rvj6IJW+rCmBP9uzpAZwOEWj/FmIglhzCDgg0QmCiUGKf0DdsJKUEkgyB7ASAe9rKnWgEwGxJkRgY69jrFmLAFFggkDSBFBr9T4DVOXLdyJIRgewEgHrWQzWuAzW2fjijXRAD0WYNhkHgLAJJNfp1QlQnFtrfqY/Z5kEgOwGgbB1I6e5q+yCVLJ4XAx7GYM5AKrmHnX0noGexVMfiSeLv64/6nk+k72sCOQoAU7inNRkBMJttM2LAcwY8gfB7VUB+o2A0ex37EIBAMAITPXPHeub8rv4TPZNlsJhaClhpud9SVEQTEYFcBYDbzlHVmEaUHauZUlU8D3XXQ6VnoK0nEdqNxyTC1VByNQTOJeAG/8OHD37ejvXsTc69IZELVHf42yRFIuZiZoMEchUAfhvgkThuN8iy06CqCulIRnjd0kNdaDOyh8BbrQOtLBCAwJoE7Gnz8Jtvv3btWh1K6R01oN5OvOq6tz6u1snLly+PdT7aRXbS+482d8Ialq0AENZCD/HemzdvHoRF3E3olXfgULF7tSCwGLhZDRcMdWrg8ywQgMBGBArfredquvW+Fx1PV+9XYsFDBqXOv9D2WM9iGYMwkG0eDi1sJ0t+BC6ESPL29vahCnkKn7udaAzvu6qxDIEi2jBrQSADR9WKIIg2tzCspwQmFgMSBc8kCMbv379vdWhBdYDnED0X2+iffdn56NWrVz/2tBx0lqycPQCGPtAD6KGA253lQEcRS/SMFbVXj2luqS6wV2AoHiNtb2rrYxYIQCAcgYEa/5GCH6kjcl+N3Nb169fH9hJo/0gN3jhc1FtbFy9efKS4om/8QzLIPezcPQB1/v/U16GAOoGrbiUIXDEMVRHd1HakisLioNA+CwQg0A4BewjGisqTD/22waSpaOX697j/flPhhQ4HD0AYwgiAiqsU+O2qVxyGdA9CnREFIyXH8wkKPAU9yFiSkAQBPWtHMnRjMWBvnxpUu/6TWRAAYbIKAfCZa1mJgPLzKfbOIzAjCuwp2JYoqIcPcC2eB4/fIbA+gUM1io9XHSbQ82rR/lRrsX7U7d+JAAjDHAHwJVeLAE8KbMzV9mXw+RwhDPLJa1LaKYFSjfm+hgieqd4qz7Ik1cbfaUIAnJWz6/+GAJhjpx6sZ+V6OAARMMemicNaGCisgR7qobYeSvBkTO8PmoiDMKIn4Hfl3XD5WXMdxIermsmyQ3VgDk4TAn7uxNs9fz9nyS0IgDBZhgA4hasqJUTAKVxCnzpFHAyUFx5acOVVeKuVJX4CbuA9ge1Ypk60Hqth+tVbrW6fJjdu3PDE0vtaRzrH0iABcR8ruIevX78+crCpN/5OAwLAFJpfEAALmKpiQgQsYNPV6UogFIp/oNXvMHv/qvLKWy8e3yy8wxKGgFiXCtmN+3Sr/bdq3Ot9N/ATN/DanrrQ8J+KJdTJ6fCA8mdP+TUMFUkb4SIAwlDO/TsAC6n6gdH6XI2OhwPKhRfyQ2sEqobFjcyZy5xQ8FDDVd1wRetA6+U5weBzXnNcpj11JXzitWrU3VP3B7JKbb2U1Xpmw+4Lz1rqhl/hjs66jt8aJVCorB8qXxsNlMD6QwABcHZeupf5FBFwNqTYfl1WKMzaXYmGWgzUgqDwNSoDl7WxgPDi33w8XWbERH3K22L24LR9VcpfXFP1rE+7dPbctKGuTyiML451ftp4V7+/U2PrYy/l9O/n7UaNeRXWUhtxLfzBGRr+pXBxEQRaJYAAOB93LQJ+UsNydP7lXJEigUo0uEFlaYCABZWEkz82sydx00CIBAEBCDRN4JumA+xpeBYBv1Rfz+ppEkkWBJoh4H8wo+flRKHtNRMioUAAAiEI4AFYjeq+KrdC7sxTX7VZLSiuhkC/CNTj/Orxj/qVMlIDgX4SwAOwer7uqnfjeQHD1W/lDgj0j4Dd/RLGP0sYP6Xx71/+kqL+EkAArJe3HhJ4zpDAevC4qz8E3OvXZMTnShHu/v5kKynJhAACYLOM9pDAiXpAxWbBcDcE0iNQ9/rn32hILyVYDIE8CSAANs93ewNO8AZsDpIQ0iBgwbu9vU2vP43swkoILCSAAFiIZuUfpt6A69ev31n5Tm6AQCIEXL49/KVeP3NgEskzzITAIgIIgEVk1js//fKWvAGPGBZYDyB3xUvALn9N8juUhYN4rcQyCEBgWQIIgGVJrXad3xSYDgsgBFYDx9XxEcDlH1+eYBEEmiCAAGiC4uIw9iUEnjIssBgQv8RNQI2//ydGsv9GNm66WAeBbgkgAMLzr4cFThAC4WETQ3MEqvF+N/5Fc6ESEgQgEAsBBEB7OYEQaI81MW1IwG+1MN6/IURuh0DkBBAA7WcQQqB95sS4AgFP9tPl+yvcwqUQgECCBBAA3WXaF0KAyYLdZQQxfybgN1h0xFf9PiNhDwK9JcA/A+o+a6dCQJMFJ6p8j/hHQ91nSI4WSIAOLl68+Avf8s8x90lzrgTwAMST8363un598JG/sR6PaVjSZwJu/D3Tn8a/z7lM2iDwNQEEwNdMYjiz6/+sJo/A9M0BhgdiyJJ+2lA3/nzZr5/5S6ogcBYBBMBZdLr/rR4e8EeF8Ap0nx+9soDGv1fZSWIgsDIB5gCsjKyzG+wV2JUQKGXBofYfl1o6s4aIkyegeSee7c83/ZPPSRIAgfUI4AFYj1uXdxWK3F8Y9PDA9CuDDBF0mR1pxi0h6cZ/N03rsRoCEGiCAB6AJih2FEY1aWskMbAlMTCWGYcfPnx4hmegowxJJFo1/vdlKq/6JZJfmAmBUAQQAKHIthwuYqBl4IlGVzX++4maj9kQgECDBBAADcKMJah5MaDjI73j/ezly5fHsdiIHe0T0FDRjmLdbz9mYoQABGIkgACIMVcatKkWAxoa2KomEI41ZPD41atX4wajIajICXieiPLdX/ljgQAEIDAlgADIqyAUSm79NsGW3v0e4x3ofwFw4+8P/Silg/6ndq0UTvQcTMTIHrKJ1rcORW/alN6etkhMXdb5K1qvah3ofjMuvK+VBQJJEEAAJJFNYYyc9w5UFeAREwnD8O4qVDVWnvFfdBV/TPGqzJcq52PZdKwG3g39cZOTZqW1LACGYn5TcX2n/ZuKb6gtCwSiI4AAiC5LOjPIHx0qFPuOKq/pcEEtCHT8gvkDneXLRhFXk/52Ngok7ZsnMv+xGvtjbY/U2Ps42FKFP1YEXqdLJQr8ts5Iz9gtBEFNhm3XBBAAXedAvPF/EgTV/AG7SD1k4DkEL96/f++eU9DKNF40aVjm/yehhm8/DWubs9JlVGX1mdI+VhkdNxfyeiFVz8mR7va6JUFQaDOSjXe0jrTPAoFOCFwIEev29vahC3eIsAkzKgLHsuZYeT0VBXgJ4skbNzLKl6dai3isCmqJxejDWBr9ZVPqfJKg3pVosRgolr0vt+vE6JEmLv+YW7pDpxcPQGjC/Q5/qOQNVXntVl6CLYsBHb/Q+RM8Bd1lvvJhP4cGxb19rQ9F2r19i4CkFtlcyuB9r9ICO8qze1pHOmaBQHACCIDgiPOKQJXxSCn26lnUWxIBnk9gL0FpYaDtsc6VeAtMKMwi3vcUcq89cFXDf6D2cxyGYvuhKi1HivXIXgE9JxZwvc7D9gkT4zwBhgDmiXDcJoEvhIEqvAlzCzbD78ZDAuu5QhlsFlKcd/ex4V9EGiHwmYzKNEMAn3E0tocHoDGUBLQGAQ8feBhhR9str5XHYGJPgc5PdM5eg9KrxIE9puUa8WRzi774+EjMetf4K0129feqx39eoazK+q6EgL0BeATOA8bvKxNAAKyMjBtaIDBQZT+q4pkXBz49FQTaTgWCtu9UQb7Vag9CtiJBDcXuDDdz6sNiMbj35s2bx31IzDppmBECY7G4r7VYJxzugcA8AQTAPBGOUyBQqKErKkN3vNXxdK08CD410WqhMN3q97c+qeNaPGxZLOjURBWsr0l6qdzF95NOxNfGe1b/fh/y5+ukrX5GHA5116HmeOxr27e8VpJY2iaAAGibOPG1RWCgiIYWBrNLLRR8zmLBiypUbywC3NssfaBleuydWjxo156GX31u5jof1mJiul//UYVd1vubbN24z99/6dKlT+dknz0mnjD26dz89Ykdl2r47wrfODG7WzFX3pB9FYlDlcGcXvNshW1ukeQmAEo3AHpwitwymvSeS8CCwQ1pcdaVLj9e6m19bS0m6mNvK2Exe6qxfb9h0cdFXB9r3VPjbwHGsoBAJS638QYsAMTppQj83gVa6tL0L1LFUp6cnGwrJQfpp4YUQKBXBNzg/6Tnc5fGf/l8tTdAYvC267bl7+JKCPxOICsBUGd69dBs89DURNhCoFMCdvnf1nP5oFMrEo1cgmmsugwRkGj+dWl2lgLAwPXQ1N6AnxACXRZB4s6ZgJ49/1e+23ocj3PmsGnaZ+ozfxWRBQJLEchWANR03Ouo1PPj+hxbCEAgPAE9dx7vd+Nfho8tjxhUn+0ppQxx5pHdG6cyewFggpV63lVPhGGBjYsUAUBgKQIHjPcvxWnlizzEqZt+WvlGbsiOAAJgJssrIbAtIXBXPZNy5id2IQCB5ggcVI1UcyES0hcE7Nl0PfbFSQ4gMEcAATAHxIcSAod+WwAhcAocTkFgMwI0/pvxW/pu12OIgKVxZXkhAuCMbPcD5DFKXXKAR+AMUPwEgeUI0Pgvx6mxqxABjaHsZUAIgHOyVQ9QaXelhYBWJgqew4ufIbCAwEPc/gvIBD5tEaAomBMQmHOKwSMAlsw1CwFPWpJLzRMFH+MRWBIcl0FA/+Nejb9np7N0RMBzAhQ1bwd0xD/WaBEAK+ZMLQTsEfADhRBYESCX50bAH/m5m1uiY0xv5YHhOwExZk5HNiEA1gRvIeAHismCawLkthwIuPH3e/6THBKbQhrtiVGnZZyCrdgYngACoAHGquBm3xo4biBIgoBA8gTc87dQTj4hPUuABMBdPJc9y9Q1k4MAWBPcabdVQuA793r0gDFh8DRInMuFwIGeh3EuiU0pnRZlFgEp2YytYQggAAJwdcVXTxhU8MwTCMCYIOMloMZlXI03x2tk5pZV4iyZNwPUqdopimKQebY1nnwEQONIPwdopT03T2D8+Vf2INBLAvQuE8lW1U3+PyjjRMx1438rEVuTMRMB0FJWSQt4nsBtKdltRYlXoCXuRNMugQsXLuxb+LYbK7GtS6AaCkhhkuaFb7755t666eS+0wlkJQBUOXXuQnLlOOMVqOcKpPAAnl6COAuBioB7k69fv2buS0IlohJrB4mYPGIYoNmcykoACJ3KTzzjSHr4Ps0V8IzphNxxzZZCQusFgao32Yu05JSIlIYC5AXYzSlvQqc1NwEwiLEASQhMtH4aIkAMhC72hB+AgGf9lwHCJcgWCEi8peAFuCAU/74FHNlEEUQAyNUes0s76nEkV6JaEAPZPIK9SKg/+POgFynJNBGqc8YSAY8TSP4oJi9uArzONDGIAFCMMQuA4tq1a3tnUonkx6kUQAxEkhuYsYhANfEv5md+kemcnyEgAbCvw+jzMUYv7gzGpHYvhrD28uXLhSqFnRBhNxTmv5aN//dES0PhBQ/Gtmo51vpYtj/Uw/rfFen/p3UQw+TG4ACIIEoCKofHGkP+D1Eah1ErEXAFc+XKlX+hm0Yr3djuxR4G+J/evXuXgreiXTJrxGaYjS9y0Qyl0p43HnCDAbri0tqL75SL90i8d5SeWxIDwwYxERQEziTg11rtqTrzIn5MhoDd66pLTmTwIGKj36ncXVOxS6YDFyvLUEMAZawJru1yQ6mCfr8+TnmrB8FfXtvTdwb8GeJtrX6j4LHWMuV0YXv0BA5V9ihj0WfT8gYqO92oxv4fAy1O+CjQ8tm68MogHgDHtr29faJGtvB+5Mu+Gs+DyG1c27zKG+OHZVStMSv7tdPJja0TqP/TX9l6zEQYlEDlBXgXNJINA1fnZnzx4sWD9+/fW4OWGwaX7e3BBIAm2v0iqjuJkO21CJjNAwTBLA32NyDwk98f3+B+bo2YgDpwh+rA3YnYxFnTStnqIV2LgmcvX748nv2R/cUEQgqAPUX78+Koo/slGxEwS96CQMceDvleD5Anb/qYBQJnESjV+G+fdQG/pU1A9YLnFT1NNBUT2X2kumz84cOHJ9WwRqJJCWt2MAGQaAHKUgTMFjHl20DHfvhHEgQ3K0HgcywQmBLQHJMfVKkegaPfBOQFeKrnf5R6Ki0ElIZDxMDXORlMADgqDQN4HCm1xuOBKjh/1WzyNa48z1ReggJRkGf+z6X6UL3/u3PnOOwhgep7KSl5cZfJhUPVY49fvXo1Xubivl8TWgA8EMB7CUJkgtM5mYYoOAdQT3/2WyYSx2VPk0eyZgjYG6jG0p24Pi6epH6Q+z+vCioAVIBSHkeyCPgJV+fyz74rDF3t+QQ3td1mCGF5dolceaDe/34itmJmAwT6MgxwBoqpENDwwLMchW1QAWDoiQ4DzJaX7OcFzMJYZ/80YaBw/AXD4TrhcU8nBCyIv1MlydBYJ/i7iVTP7q4E/aNuYm811lKxeXjroNVYO46sDQGwrzTe7zidm0bPkMCmBBfcrwrGIsCuxqnXQPtXq7cRCp/XyhIBAYm13dzdpRFkQ+smWLz3eBjgNJ5ZDQ0EFwA9K0B4A057ZAKdc9lR0IVXVUJXtd3WaoEwPa9GqdAxS2AC4n3sr0wGjobgIyWQwTDAaeRPVOf82PfJgsEFgMn2rADZG+DXoI5PKzWca5fAjEiYigI9tIUs8H4tFDzUUJ/TaZbzCKjBL8XM5futyrq3R7j+z6PW3981jLuv1KXuxV03gw71DPitsHLdAGK+rxUBoEo65cmAi/Kv1wVjUaJTO6+yV6gx8/vMRWq2h7b3lIbejb3ruknouAk/HQI9rb9XyYDeDgu0IgBMumdegLrwlNrJbuJInfgUTL58ngAAGPlJREFUtip3h2r876RgaygbaehDkc0n3B5M5m4is3rX6WtNAPRcRdplus8kqSaesebCuHHjxkjuu6fNhRh/SGrsj1UWn1Wue3r08WdZEhZKAPwiQ3eSMDaskSd6tn6Ul2wcNpp2Qm9NADg5GRQihEA75XapWNT7t+uuWOridC+yu/5IldIzb3Hfp5uRMVuuuntP9v0cs40t2vZRcfmbGActxhkkqlYFgMdjNUnruVIyCJKaeAItlc67fZ9BGg/ury1RheVJS/tf/9KPM+rpj7V6ctK4HykiFTETqOruk5ht7MC2XypvgEV4kkurAsCEVDHva+PKOYcFj0AHudzjysoVzUNVOg/o6XdQsDKPMhOP2qq57CGBP+p5LFe9MYbrv2nbCH9K1OOUbcfbUXyF0noo0XNy/fr1Ox3ZkF20no/Rs0S74T9QRbPt54fGv2e5m0hy9Fw9ScTUNs3clrf3H9XpGLYZaVNxte4BsOGGVQ0FNJWOVMKZegRy/e50G5nUs94/Pf42Cg1xLEVAz9au6u1HS12c30XvquGAo5SS3okAMKDMJ5W4YvfErd5+YKKrh6Avr/1VY/x3U3UtdpX/xBuOgARAbp8FXhXmR3lJ7qb0NlhnAsBkVVn7Ay2jVSn36Xqlf6z0HKZUaGLl35PX/iYqEz+pPBzGyhm78iVAnX1u3iclAlqfAzCLT72cu1rL2XO57Sv9I63TeQLyijyyCzs3Bk2lVxyTnlwq+8fyCn1H499UiSCcpglInL5oOsyehXdBz/GjVOZ8deoBcMarvevjZ4I3KtO1V0BzBZ4w4Ws5lBZOGp88We7qKK96qAl+e1FahlEQqAhQXy9dFJLwBHTqATBKNXBjbX7yPsvvBKQgp14BN2j2Cti1DZuzCUg07Z99Rby/yva7NP7x5g+WfUHgWEeew8RyNgF7An6WYBqefVm3v3buAaiTr4ZuX/tJu3DrtATalgp3LFHwmA8MfUk44d7/RC7/2xLBrlRZIJACgQuaB/CPEq2jFIyNwEa/HfDXesbLCGz5yoTOPQC1RdX3AR7Xx2y/IlDozK4K01OJJTwDM3gS7f2XNP4zmchuKgTs2v5vqRgbgZ1X1GnzdwIGEdjylQnReABqy5hlWpNYelvqyqw9AyozJ6qUCnFIZXHP/7tYewWpQMTObghcvXr1u4sXL/5TN7EnG+tTdXL/GJv10QkAKyVV5k+1Rj12EltGVvb4FbKx9o9y+diQysuuFHZKHyfB7R/pw4NZSxO4IC/k/9DVUfZql05F+xf+LBHwp/ajXRxjdALApiICFmfYKr9YDGgiyjM1kOO+zhvQ6zZPPWlyFS5dXque/w/q+R91aQNxQ2BDAp4H8Ej1y50Nw8nt9o96/v8mpuc/SgHgUoEIaPzZ+OQdkCB48fLly+PGY2g5QJWR1F79878Q3W8ZE9FBoHECevTuqh75h8YD7n+AUU0KjFYAuByokPnTk3bv7vS/XLSewlIxju0lSHW4ILE3Rw7V+N9tPZeJEAIBCGgewLbmAbwJEHQOQUYzHyBqAVCXBFX0D7R/rz5mG4SA/1HRsdzpYz3Yz1LwECQ0+c8z/j3pbxIk5wgUAu0T8DDAG9UZRftRJx/jR6XgT+oQuF3rdElCAJhQYr29TjO1ocg9ZGBBMJ1D8P79++OYGjB5h5L5j5Jq/LfFrmwoXwgGAjEQ8ETAn2UIHbP1ciOKoYBkBIAZq8DtaeNCx9INgWOJgtJeAs8j6FIUJCQIGffvpqwSa2ACmoD7g+qC/xo4mj4H3/lQQFICwCXBPT81Qr/geormuahFwQuJgnFbokAC4LkIDKOhcLohpdx826f/xFkIpE3Ac7SUgpGee3+6/KbqZD+PPseyHAF/VKnTfx+cnAAwVxW8QuD8rYDCxyzREaiHD/yfw06a9hY4/xXmSXSpnjNI5XOXf/M8B4XDXhPQo2kB4OG5m9puIwzOzW4PBVzrang1SQFgpC5oKmT72mUMykDSWL4SBmokJ6tOOFTe7yrv/XZItIuHSU5OTm5HayCGQaBFAgiDM2F3NkyYrACocVbzAu7rGNdTDSXNrYcSJmo4p14D7b9VI1/+9ttvnj83mU2SZh8f6vc7s+di22fiX2w5gj0xEkAYTHOlMy9A8gLA+FSIGBKI8eluziYLgLIWCBIJ32u/aC74xkPinf/GkRJgTgRcpyu9HurzUILnGAwjf+Y3zZ5Hmi/046aBrHp/LwRAneiEZobXJrPtIQH1/v0vfsc9TBpJgkBnBCpRMLL3T+uoM0PCROzPBHsuQBkm+NND7ZUAcBJVSKwUeUvg9PzmbHgCx1Ly34WPhhggkC8BiwHV8/sicEvbQts+LK17AXonAFwKVDaYINiHxyHBNKgyYuZ/gvmGyekSUH2/q+fufg+EQOtzAb5JN9sXW+5JY+qF7XkilsaOysVX8gsEGiUw0f9VeNJoiAQGAQicSUD1/aHq+du66ODMC+P/8YrmPOy1aWYvPQDzAJkbME+E40AEmPwXCCzBQmAZAv4nRWpE/zFhb0CrXoBeegDmC4q8AfuVN+Dx/G8cQ6ApAipjR02FRTgQgMDqBN6+favPb5xs685UvQEevt5dPeXr3XFhvdvSvUvjRTtShz8nrBDThd9zyyU0s3ueep6lJC9hAvIG/KD/bPoPSsIgsWS09j8CsvAAzGa+xouOrBDVW7vL/IBZMuxvQkBlabzJ/dwLAQg0S0DegF80J+evE6znR+qojpqlcXpo2QmAGkOPJo7USWLbIQF5lJj81yF/oobAaQQ8JKDO3h8TEwEXNAwwOi09TZ/LVgAYpESA/1sb8wOaLlUZhqdK5jjDZJNkCERPIFER8J/aAMuY5QxluV2mH5dQby7q78zPmMxuJAQY/48kIzADAgsI+A0BzQn4J/2cwpwAfxnwj+qjjhckp5HTWXsA5gnaI6D5AbsC7+8HPJ7/nWMILCBA738BGE5DIBYC9gRoTsDfxGLPOXa0MgyAADglFxACp0Dh1EICEotvF/7IDxCAQDQEJAKeypg/RWPQGYaoXvn3Z/zcyE8IgDMwzguBxCaSnJEyfmqSgIaM8AA0CZSwIBCQgIbrHqguHweMopGgVa8MNSoddLgCAbBEVtVCQIXmtoYHeH1wCWY5XaIHtcwpvaQVAokT8Pj6j0rDJPZ0aM7CTkgbEQAr0LUQ0HI48x2B8Qq3c2lPCWhcsexp0kgWBHpJwPMBlLC/izxx6ltc+LchbUQArEm3EgL2CDBhcE2GPbot+p5Ej1iTFAg0QqAaCigbCSxQIGpfRoGCngaLANiQrl0C9ZsDDA9sCDPd2xEA6eYdludLoB4KiJmA304fhDIQAdAQWQsBLfXwwG3NF+A1wobYEgwEIACBEAQ0FDBOYELgrRBpd5gIgABkJQTGlVfgSuUVGAeIhiAhAAEIQGAzAh81zv7fNgsi7N36LPB2qBgQAKHIKlwJgUnlFZjOFdCpA6nNMmCUBA0BCEAAAisQeP/+/aEuj3UYzx8E+lcrJGelSxEAK+Fa/2IJgen/HajeIJgOESAG1ufJnRCAAASaIPDP//zPbvyjHbINOREQAdBECVoxDGmB6RABYmBFcFwOAQhAoHkCH/Uqb8z/zTPYJMALzbMkxHUJaLbnSONRu7r/lraFtiwJEJBC/06i7jgBUzERAhA4hcBf/dVfXbl06dIb/RSssT0l2mVP+W2Fa/YiL3vDstfhAViWVAvXzXkGvlOUDzVMQMPSAvsNo7i64f3cDgEIdEjAwwCR17VBhAkCoMNCd1bU7lHqQxV7Gib4TupvW+tdFdDxWffwWzcE9LnOK93ETKwQgEBDBKJ+G0B1zLChdH4RzKUvjjiIkkDl+jmUcV63ZoYKbmqoIEjBcDwsyxGQMCMPlkPFVRCIloDq0lLPcrT2hTAMARCCauAwPVSgKLxaDBTajPSqyPfeag3iKlK4LAsIqNIoFvzEaQhAIBECeh3wWD3tGK29EKqOYRJgjNm9gU3SA0OJAX85alStCIINeC55q1/x3F7yWi6DAATiJHDh2rVr/0OmxVhnPlAd81PT2BAATRONLDwEQTsZojkaV+SZmbQTG7FAAAIBCFzY3t5+E+MbWOrUPXr16tWPTaeZIYCmiUYWnicTyiSvD22aBYE2QxXykbbMIRCEhhZ7XZ40FBbBQAACHRBQvZiViEcAdFDIuoxyRhAc2g4JgoE2HjYYaXtTq7c+x7ICAfG7rcsRACsw41IIxEbAAiCniYAIgNhKYMv2VG7rsaL1Ol0kCgrtWBQM9TD4o0T2GiAKpnQW/rEHgAUCEIBAMgQQAMlkVXuGShSUis3rkdbpMuMpmHoJPCu1Egb1JblvhxZOFbvcWZB+CEAgAQIIgAQyKQYT1bBNZMe4WqfzCWyX2jx7Bwp7C7S9mbMwEIMdMXiglQUCEIBA9AQQANFnUdwGShgcy0KvR7OWniIMBn0fSpD48bcYEACzBYF9CCREQG/z2LOZkMWbmZpPSjfjxN0NEZAwGCioodZB5TW4aq+Bjv3geZv0ogrktkTROOlEYDwE8iTg7wD8OdKkH+g7APtN24YHoGmihHcmgZmhBF/3hdfAJyrPgUWChxUKbWuBYA+Cj/1btEs1DDCO1kAMgwAETiVw9epVd0yyWhAAWWV3/ImthhQWGiqB4M8eP114Qfc/3JGN+5XQ6d4aLIAABJYioH8HPJA3cqlrW77I/6ioDBHnNyECJUwIBCRwHDDsJoL20MZeEwERBgQg0B4BNf7Rvsr74cOHdyFIIABCUCXMYATcs9aDOg4WQTMB35MXIOqhimaSSSgQ6A0BdbIvRCsARPnXEKQRACGoEmZQAnpQXwSNYPPA8QJszpAQINAqAXUsYp4DEMTziQBotYgRWRMENNP+qIlwAoeBFyAwYIKHQFMErl+/PlJYsXrtJqHmFCEAmipBhNMmAavhSZsRrhGXvQD317iPWyAAgXYJXFCn4k67US4fmzwT5fJXr3YlAmA1XlwdAYFKDY8jMOU8E/b81sJ5F/E7BCDQLQENK/ojXlEusu1tKMMQAKHIEm5QAlLsSfznPT28PwcFQeAQgMBGBCTSdxVArO5/py3YnCcEgPGypEjgSEbHPgywJQEw1NfFEAEpljBszoGAHtEL/znihH5UZ2ccyj4EQCiyhBuUQPU64HHQSJoLnKGA5lgSEgQaI+DevwRA0ViAYQIKVs8hAMJkGKG2QECTYx63EE0jUWhC4C+qbIpGAiMQCECgCQKx9/63VMcdh3oDwAARAE0UI8LoikASwwAVHP8vA4uAQVewiBcCEPhMIIXev+qMYL1/k0AAfC4P7CVGoFLGyXgB9DAP5QlgPkBi5Qxz+0dA//hnW89jzGP/hu7/AfAsJH0EQEi6hB2cQCIfBZrlsMukwFkc7EOgdQIX/I0ONa5F6zGvGKH+B0BQAXBxRXu4HAJREZhMJuVgMBil8DDPgPvXV65c2Xr37l3Qh3smPnYhAIGKgAT4nuqL/yN2INX4/9+HtBMPQEi6hN0KgZQmA84A2VdFxJcCZ4CwC4HQBOz6VxxJDMOFdv+bNQIgdIkj/OAENBfgUJFMgkfUfAQWAY+aD5YQIQCBeQJu/OX6/8f585Ee+/3/x6FtQwCEJkz4bRF42FZEDcezu729/ZxXBBumSnAQmCFQN/4JDRWqX1MGfQPAeBAAM4WE3XQJSC0/kPUpegGmXwtUz+SpRMAw3RzAcgjESSDBxt8gW/nUOZMA4yyzWLUiAU0G/H81se5f6LbRirfGcrm/E/C/MzkwluzAjj4QSLTxt/v/b1WnBe/QXOhDJpMGCJiAetD+F7wn2h2kTESTGsda79oHmHI6sB0CXRJQ4/+d6oP/mpDbv8b19M2bN3+sD0JuGQIISZewWyWg9tKKOdW5AJ9YqcIaWcjwlsAnJOxAYCUCftXv4sWL/5Rg4++P/wSf/FfDxANQk2DbCwJ98QLMZEapCmH/9evXrVUKM3GzC4GkCNjlf+nSpX+QB22UlOGfjT1R7//a58Owe3gAwvIl9JYJ2Aug8bOfWo42ZHSFKrND9WhOrl+/fidkRIQNgZQJ2GPmXn/Cjb/xj9vMAzwAbdImrtYI6NW6p3altxZhexFNPQL+RChzBNqDTkzxEpDXb1fPehKf9j2Hoif/XWvzuUYAnJMj/JwmAVUKHkd/mqb1S1t9qDQ+fvXq1XjpO7gQAj0gUA313VNv341/0YMkOQmP5P7/sc20IADapE1crRKQS/CBIrzXaqTdRObJj0eqCMd4BrrJAGINT8CNvlz8O4rpjhr+obaD8LG2FkPrvX+nDAHQWv4SUdsEXGGoUXzeox7Csgg9THCsSvKFt/ISlL/99ps9ixYKLBCInoCf3W+//baQS3zoxl7l+Ka2o+gNX9/A1nv/NhUBsH6GcWcCBFSR5DAUsEpOlNXFE1WqCIJVyHFtUAJq4IsqAvfs+9S7P49bJ71/G4UAOC9r+D15AhkNBSSfVyQAAhkSONDY/34X6eY1wC6oE2erBORG3Ffvomw1UiKDAAQgcD6BE9VPh+dfFuYKBEAYroQaEQGPfUsA3I3IJEyBAAQg4K/+HbT52t88cv4Z0DwRjntJQP9Xo9Q/2vGQ16iXCSRREIBAUgTUKTmW6/8/dmk0HoAu6RN3qwQ8zqaHbtxqpEQGAQhA4GsCqoo+/s3Xp9s9gwBolzexdUxAD90PWsuOzSB6CEAgbwJ/16Xrv0bPWwA1CbbZENCrgcPqK4E5vWqUTf6SUAhETqDVf/hzFgs8AGfR4bdeEpDyPtbM2z79w6Be5hOJgkAPCbxT3fPHWNLFJMBYcgI7WiWgSYHHTApsFTmRQSB3Ap71/x9OTk6exQICARBLTmBH6wTevXs3RgS0jp0IIZArgYeaiPz3MSUeARBTbmBL6wQsAgaDwbaU+bD1yIkQAhDIgoAmHj9Xz7/zWf/zsJkDME+E4+wI6MHc1QP6OLuEk2AIQKANAieqX6Jr/J1wPABtZD9xRE9AcwKO8AREn00YCIHUCHjS37+J4ZW/08AhAE6jwrksCSACssx2Eg2BUAT8X/7+Vo3//xMqgk3DRQBsSpD7e0UAEdCr7CQxEOiKgGf8/6jhxf+rKwOWiRcBsAwlrsmKgEUAbwdkleUkFgJNE/g7zfh/0HSgTYeHAGiaKOH1ggCvCPYiG0kEBLogcOD/O9JFxKvGiQBYlRjXZ0OgEgG/KsH/LptEk1AIQGBdAh9145/U+P+XdQNo+z7+F0DbxIkvOQL+3wEaz/tFa5Gc8RgMAQi0QWA65v/69evDNiJrKg4EQFMkCafXBCQCikoE8MGgXuc0iYPAygT8qt/faLb/eOU7O76BIYCOM4Do0yCgiYFe/k8mB6aRX1gJgZYInFTv+R+3FF+j0SAAGsVJYH0n4HkBly9ffqt0elhg0Pf0kj4IQGAhgadVz79ceEXkPyAAIs8gzIuPgDwBx/pq4BNZdkUigCGB+LIIiyAQmsADTfb7W7sFQ0cUMnzmAISkS9i9J6CpAbsSAfe1Fr1PLAmEAAQ83v+jxvuP+oACD0AfcpE0dEYAb0Bn6IkYAm0TsMv/f4v5076rAsEDsCoxrofAAgJ4AxaA4TQE0ibwTuYn8WW/VTEjAFYlxvUQOIfAtWvX9nXJPa1MEjyHFT9DIHIC7vXb5V9Gbuda5iEA1sLGTRA4m0D13YB9zQ24c/aV/AoBCERIwK/3/akvY/2L+CIAFpHhPAQaIIAQaAAiQUCgPQKe1f9Qjf8DNf5Jz/BfBhkCYBlKXAOBDQkgBDYEyO0QCEsgq4a/RokAqEmwhUALBCwEvvnmm72PHz9+z6uDLQAnCgicTSDLhr9GggCoSbCFQMsEpAX8DYE7WkctR010EMidQNYNf535CICaBFsIdEQAr0BH4Ik2OwLyvI21Puz75L5lMxYBsCwproNACwQkBkYaIthhiKAF2ESRBQE3+vKyPctlYt8qmYoAWIUW10KgRQISA0OJgVuqwHZUgQ0V9aDF6IkKAskSqBr9IzX6T9TbL5NNSGDDEQCBARM8BJoiUHkHbiq8kSo4/zfCoqmwCQcCKRPQ83Bc9fLHSsdYbb7H+FnOIYAAOAcQP0MgVgISBPYI2EtgUbCtStDbAmEQa45h16YEVMZLhVGqjL/Q1h/reeZjGnxRWGNBAKwBjVsgEDsBiYNCNnq1SBhIJHi/Xq7WO2whEBmBX2XPtPeuxr2sbPPW64SGXhRYIAABCEAAAhCAAAQgAAEIQAACEIAABCAAAQhAAAIQgAAEIAABCEAAAhCAAAQgAAEIQAACEIAABCAAAQhAAAIQgAAEIAABCEAAAhCAAAQgAAEIQAACEIAABCAAAQhAAAIQgAAEIAABCEAAAhCAAAQgAAEIQAACEIAABCAAAQhAAAIQgAAEIAABCEAAAhCAAAQgAAEIQAACEIAABCAAAQhAAAIQgAAEIAABCEAAAhCAAAQgAAEIQAACEIAABCAAAQhAAAIQgAAEIAABCEAAAhCAAAQgAAEIQAACEIAABCAAAQhAAAIQ+JrA/w+oqMhxrHYYUQAAAABJRU5ErkJggg==;" vertex="1" parent="42">
                    <mxGeometry x="45" y="30" width="60" height="60" as="geometry"/>
                </mxCell>
                <mxCell id="35" value="Cloud MySQL" style="shape=image;verticalLabelPosition=bottom;labelBackgroundColor=default;verticalAlign=top;aspect=fixed;imageAspect=0;image=data:image/png,iVBORw0KGgoAAAANSUhEUgAAAgAAAAIACAYAAAD0eNT6AAABdWlDQ1BrQ0dDb2xvclNwYWNlRGlzcGxheVAzAAAokXWQvUvDUBTFT6tS0DqIDh0cMolD1NIKdnFoKxRFMFQFq1OafgltfCQpUnETVyn4H1jBWXCwiFRwcXAQRAcR3Zw6KbhoeN6XVNoi3sfl/Ticc7lcwBtQGSv2AijplpFMxKS11Lrke4OHnlOqZrKooiwK/v276/PR9d5PiFlNu3YQ2U9cl84ul3aeAlN//V3Vn8maGv3f1EGNGRbgkYmVbYsJ3iUeMWgp4qrgvMvHgtMunzuelWSc+JZY0gpqhrhJLKc79HwHl4plrbWD2N6f1VeXxRzqUcxhEyYYilBRgQQF4X/8044/ji1yV2BQLo8CLMpESRETssTz0KFhEjJxCEHqkLhz634PrfvJbW3vFZhtcM4v2tpCAzidoZPV29p4BBgaAG7qTDVUR+qh9uZywPsJMJgChu8os2HmwiF3e38M6Hvh/GMM8B0CdpXzryPO7RqFn4Er/QcXKWq8UwZBywAAADhlWElmTU0AKgAAAAgAAYdpAAQAAAABAAAAGgAAAAAAAqACAAQAAAABAAACAKADAAQAAAABAAACAAAAAAAoMJe/AABAAElEQVR4Ae2dPXQbSZee9Rd8mUBF62ia0tE5zoTJPkeCssmGynYjkZk3EhV5HQmMvJmoyOtIVLaZqMizkaDMmaDQZ5ZiT2ZHwmSfA834vZymBiJBsgFUVd+qfnAOJLDRXXXvc6u73rpV3bh2jRcEIAABCEAAAhCAAAQgAAEIQAACEIAABCAAAQhAAAIQgAAEIAABCEAAAhCAAAQgAAEIQAACEIAABCAAAQhAAAIQgAAEIAABCEAAAhCAAAQgAAEIQAACEIAABCAAAQhAAAIQgAAEIAABCEAAAhCAAAQgAAEIQAACEIAABCAAAQhAAAIQgAAEIAABCEAAAhCAAAQgAAEIQAACEIAABCAAAQhAAAIQgAAEIAABCEAAAhCAAAQgAAEIQAACEIAABCAAAQhAoI8ErvfRaXyGQAkEKr3kx0Dvk/9v3Lhx+vdt2/7777/bd6fva9evX//6Wdsves103Kz50v4/+axja33+1f7+7bff7LO97VXb6+QT/0AAAlkRQABkFS6M7RMB9e/WYVd6D5vO/Tt1zvZ3pQ7Z/nfzkl21jKkbofCLRMLU/tbL/ucFAQg4JIAAcBgUTOofgWY0P1JHP5T31tEPvXXyq0ZFvkwbYfBRwmCicqYSBrNVy+M4CEAgDAEEQBiOlAKB1gSakb119iN1jg/UOVqnP2hdQBk71nJjqvf7JluAKCgjrniREQEEQEbBwtQ8CTQd/paN7tXh/1jKyD50NMRmIjaWJThU2QiC0IApDwJnCCAAzgDhTwisS6Dp8G3efkud2sNmhL9usb07vhEEb23agLUEvQs/DicggABIAJkqyidgnb46/O1mhN/HlH7sINsCw8mXL1/eSgxYhoAXBCCwJgEEwJoAOby/BM50+qP+kujE80MJgrcSBIcsKOyEP5UWQAABUEAQcSEdATr9dKyXqOlQ0wSvyQwsQYxdISACCACaAQSuIHA6p68R53O9R1fsztfdETidJjAxMOnODGqGQB4EEAB5xAkrOyCgjt8W8v2oqnf1HnRgAlWuTsDEwJ6mCCYSA/XqxXAkBMolgAAoN7Z4tiIBdfxb6jyeMtpfEaCzwxTHAwkBsgLO4oI53RNAAHQfAyxwQKCZ238qUxjtO4hHJBNOsgJHR0cHkcqnWAhkRQABkFW4MDY0gSbNv61yn+hNmj80YJ/l1TLroFk4aJ95QaCXBBAAvQw7TqvjHyk1zKK+njeFZnpgj3UCPW8IPXUfAdDTwPfVbTr+vkb+cr8RApfz4dsyCSAAyowrXp0hQMd/Bgh/LiSAEFiIhY2FEkAAFBpY3PqDAB0/LWEVAgiBVahxTG4EEAC5RQx7WxFQx1/pIj7W2xb38YLAKgRmOmhfiwVfao2AfeYFgaIIIACKCifOqN+3H+Xhdj6aQkgC3D4YkiZluSGAAHATCgxZl8Ddu3et4x/rze1868Lk+EUEamUDdpQNmCz6km0QyI0AAiC3iGHvOQLM859DwoaIBFgfEBEuRSclgABIipvKQhJo0v3PVeZuyHIpCwItCNiagL1Pnz7tt9iXXSDgkgACwGVYMOoqAvfu3dv+/fffX2g/0v1XweL7mARsWuARDxKKiZiyYxFAAMQiS7lRCGjUb6v7X+k9ilIBhUJgNQJjZQP2VjuUoyDQDQEEQDfcqXUFAizyWwEah6QkwCLBlLSpa20CCIC1EVJAbAKM+mMTpvzABMgGBAZKcXEIIADicKXUQAQ017+luf5XKo65/kBMKSYJAdYGJMFMJesQuLnOwRwLgVgEbIX/nTt3/pvKt1XWf4lVD+VCIBKBgdap7G5sbFz7/Pnz+0h1UCwE1iJABmAtfBwcg8D9+/eHX758eaOyqxjlUyYEEhM41J0Cz7hTIDF1qruSwI0r92AHCCQkYAv91Pm/U5VVwmqpCgIxCWzp8dTvlNUaxayEsiGwLAGmAJYlxv5RCDQp//+uwv9Jb1L+UShTaIcEbEpgmymBDiNA1ecIMAVwDgkbUhOwVf42QlK9Veq6qQ8CHRBgSqAD6FR5ngAC4DwTtiQkwCr/hLCpyhMB7hLwFI2e2sIagJ4G3oPbmu9/rlv8bLEft/h5CAg2pCRgWa8PSn5tpayUuiAwT4A1APM0+JyEwNx8/26SCqkEAj4J/EXrAv6edQE+g9MHqxAAfYiyIx+b+f6fZNIPjszCFAh0SWAkETDQ8wL+rUsjqLt/BFgD0L+Yd+Zx0/mz2K+zCFCxZwKaDpvqbb8sOPNsJ7aVQwABUE4sXXvCw33ShUedSK3aZkovn/zf1PxL8/81PZTGtp97aU66mtv4nX1WWafb7FcYTz/rG16RCLA4MBJYij1PAAFwnglbAhPQyH+kzoXFfoG4Wgevzniq4myk+LHp0Gt9tofNRR092voN1TPUe6CY2v/fmUiQPSfb9Dev9QkgAtZnSAktCCAAWkBil9UJ6Da/J+ogDlYvod9Hip119hNRsI5+qv+nsTv5VYmfioNGGDyU7UOyBqvSvGYi4LFibTHnBYEoBBAAUbBSqBGw2/z039g+82pFYKZOc6pO870u/hMd4bazb+WNdpIoqPTfUKJgJN8eNpmCtof3fb+Z2oGtCUAE9L0lRPIfARAJbN+LpfNv1wLmOvxDHZF9h3+V102WYCQhsKV9TRBUVx3T9+/FaPvo6Oh13zngf3gCCIDwTHtfIp3/5U1Anf5EF/W3Gt0deE3nX+5BuG8lCE6zA0/EZBiu5LJKQgSUFU8v3iAAvESiEDvo/BcHkk5/MZf5rTZdoKmCLbFCDMyDaT4jAhZAYdNaBBAAa+Hj4HkCdP7zNE5uoWOk/y2S1n+ZGFCHN9YBTBPMUUMEzMHg49oEEABrI6QAI0Dn/7UdzPTptdL7h0rvT75u5cPKBKQFtpQZeKICbN1A71+IgN43gWAAEADBUPa3IDr/k9jX+vcl8/rxzgOyAn+ybe4OmPy5hU8QWJ4AAmB5ZhwxR6Dv9/nb3L7ee4z25xpFgo8SA9saCT/Xu0pQnccquEXQY1QyswkBkFnAPJnbPN73gyebUtlCx5+K9OX19FwImAj4XuKzvpwS30JgMQEEwGIubL2CgKVjNS9rnf/gil2L+pqO32c4eywEeGywzyaZhVUIgCzC5MvIpvPv1a/60fH7aoMXWdNTIWAiwDIBtgCVFwRaE0AAtEbFjkZAF1j7ERgb+Vf2d+kvOv48I9w3IaB2Oj0+Pv4+z2hhdVcEbnZVMfXmSWBjY+N/auHVME/rl7LaRlP/VRfVf5zNZvVSR7Jz5wQUs+lgMHirtmqDnL92blBkA+Tm3+ncrD5//vw2clUUXxABBEBBwYztim73e6ELzd/HrsdB+XY732N1/hMHtmDCigQkAmbqEH+6ffv2a2WtNlXMf1yxqFwOG0oEXJPP73MxGDu7JYAA6JZ/NrU39/r/UzYGr2Copftv3br1WD+8cqC+428rFMEhDgk0QuBfJQR+kXn2E8UlL1wd3blzp5YI+OgwFJjkjIClx3hB4FICPbjdz9L9e58+fdq/FARfZk9AawNOHjEsEWBPFiz1xTMCSo1sYL8QAIGBllacXTCVPi12xX+zyG+He6lLa7mX+6NmPZIIeKV3dfme2X7LnQHZhi6d4TfSVUVNORIouPO3Uf8zzfM/ovPPsWWuZ7Nibk9wtFXzL9crye3Rlul449Y6DHNBgDUALsLg0whb9CfLfvBp3epW6cL/Ue9H6vx/Wr0UjsydgK3zaBYJFrk2wLIbLArMvZXGtZ8pgLh8sy1dz/jfVif5KlsHLjbcVviPNQK0DAAvCJwQsKmuZkpgVBoStXfLck1K8wt/1ieAAFifYXEl2MWwedjPoCDnZrrAP7MV/gX5hCuBCSjrNVaRzwMX23Vx/GZA1xFwWj9rAJwGpkuzmnn/kjr/kwVRdP5dtqo86tadIGN7BoSyX3UeFreycmDZjVZ7slOvCCAAehXuq51t7vevrt4zjz10IX+tCzq/mJZHuFxYqXT5oa0RKUkESACMdG7vugCMEW4IMAXgJhTdG6LM/6gZ/XdvTBgL7N7+cZiiKKVvBHQ+2O9e2Mh5qxTfWQ9QSiTD+IEACMMx+1Kaef93cqTK3hk5oBHPDin/EiLZvQ+FrQvg+QDdNyk3FnAboJtQdGuIbhfatzRht1YEqX128+bN//Tv//7v3OIXBCeF6FbBic6PX0WihFtibT3AX+TTvxFZCJABoA1cK+iWPxvd8GAf2nQUAsqSbTVTAtkvkGUqIEoTya5QBEB2IQtrcEGpfzr/sE2D0hYQ0Pky1Aj6jd7Vgq9z2sRUQE7RimQrdwFEAptLsbqQjWVrlYu9i+zUau2PjPwXkWFbaAK6Q2BayB0C9qyP0p53EDrcxZdHBqD4EF/sYJPSzPp54db56z3ShXl2sad8A4GwBCxzJvH8LvdMAFMBYdtFbqWRAcgtYgHt1QjAnvWf7YvOP9vQZW+4BGddQiagWdOQfTxwYDUCCIDVuGV/VO4P/KHzz74JZu9AISKgam5zzD4eOLA8AaYAlmeW/RGWvpTyP87YERYwZRy80kwvYDqA3woorVG29IcMQEtQJe3WLPzL1aXT1f7M+ecawcLsLiATwG8FFNYm27pDBqAtqcz3s1GKXBip87f3k0zdOe3860ztx+yCCegUGyqzZk/TzPI5ASwILLhxXuAaAuACMDlvPu3sdTEaaq78gTr8ofzJ8qI0FwfSlHMw+OiTgM69nH9Po9ZvZ2z6JItVMQggAGJQTVymdfjq7LdU7QN1+DbCrxKbEL06RifREVNBIAI6Hbd1Pr4KVFzqYp5JBOynrpT6uiGAAOiG+1q16gJjo3lLN26pw/+xxA7/DCAuSmeA8KdvAhn/gJBl2ja1rmHmmzDWhSCAAAhBMUEZ1umrw99uOvyhqjQR0IcXP+nbhygX6OPm5uZBputtOOcKbI+LXEIALKLiZNuZTn/kxKxkZkjsTI6Pjx8lq5CKIBCQgJ2/EgD2tEAT7Dm9yALkFK01bL21xrEcGoHAaXpfF43neo+sCv0foSb3RdqT1nbcW4mBELiAgKXRdT4/1te5PTJ4oJ/UtqeEcv5dENtSNveyZ/EYPF0obE7/R9m2q3df0vsXhqKZh6wv3IEvIJAJAZ3bWd4ZwDmYSQNbw8ybaxzLoQEI2MVhY2PjlTr/f1ZxI73/EqDY3It4ptT/T7k7gf0QMAKz2azWOf6rPv6QExFdkwafP39+m5PN2LocATIAy/EKsrc6fVvQ91SFMdo/Q1TTHQdHR0ekHs9w4c/8CWhRoE0FjHLyhCxATtFa3lbWACzPbOUj6PivRFd/+fLl2ZV7sQMEMiSgNS22HuCDRECVi/laC/BctiLIcwnYknaSAVgS2Cq70/G3o8Zoox0n9sqXgE35KftnjwvO5sV5mU2oljaUNQBLI2t/gHX8d+7c+S9S/P+qo2z+j/n9i/Htad7/8OKv+QYC+RNo1gNsyJO/5uKNrl/XtRaANTm5BGwJO8kALAGr7a6M+NuS+rofzyD/ioIPpROw64P61JymAnguQKGNkp8DDhxYPQL0uVJ8xyp2rHfvb+drg1cpxkdt9mMfCJRAwJ4PkNkzLmzRsi1Y5lUYAaYAAgXU5vaU7re5vS29SfW350rqvz0r9iyEQIZTAcPbt2//D9n9t0JCgBsiQAZgzWagjr+y23uahT3VmsX17XBL/Y/75jT+QsAIKPM1ViagzoTGyW+RZGIrZrYkgABoCWrRbk263+byRou+Z9vlBHQB5Ja/yxHxbcEEcpsKkFixJ5XyKogAiwBXCKal+zXif6VDqxUO5xARkGjigT+0BAiIQE4PCLL1OhIuEwJXBgEyAEvEUR3/QKP+F6T7l4C2eNeZHvizt/grtkKgXwSaBYGzHLyWcH+eg53Y2I4AAqAdp2vNqP+Ddmc1bEtml+z2UqOI+pLv+QoCvSHQnAsvc3DYpjttIJSDrdh4NQEEwNWMrmnU/5RRfwtQ7XZh4V87TuzVIwJKre/L3SyyALoWMggqpG0iAC4JpJTuyQp/7WInJ68ABDSCIPUfgCNFlEVAWQB72E4ui2JZDFhI82MR4AWBvHfv3pbm5myh3+CCXdi8PIFD3fb3ePnDOAIC/SCgBYF2V9HQu7csBvQeoXb2kQFYwMkW+qnzf6Ov6PwX8Fl1U0YjnFVd5DgIrEVA150ssgCaBthay1EOdkGADMBcGCzlL/X9Su/R3GY+hiHwUqP/3TBFUQoEyiWQyW2B/D5AAU2QDEATxPv37w9toR+df5RWXTeLnKIUTqEQKImAsgA5rJOx7OiwJO599AUBoKhrvv+J7ku35/hXfWwEsX2WqNrjtr/YlCm/FAI6VyYSARPv/ui85pkA3oN0hX29FwD2OF+dbAfiZIqWV3gC9dHR0UH4YikRAuUSyCELIAEw1Kwp182Mm2GvBYAt9lPsxhnHz73pSv2z6t99lDDQG4EmC1B7s+uMPYObN29undnGnxkR6KUAMNVqC20Up92MYpWdqRohHOhCNs3OcAyGgAMCOn9eOjDjUhMk8J9cugNfuibQOwFgK/212G+ik2vkOjL5G8fz/vOPIR50SECd64Gqn3VowpVVMw1wJSLXO/RKADSdv438H7iOShnG8bz/MuKIFx0RUPbMOn/vWYCBbBx2hIhq1yTQGwEw1/lXazLj8KsJ8Lz/qxmxBwSuJJDD7bM8FOjKMLrdoRcCgM4/bftTWjCH+5jTQqE2CKxAwLIAGdwSyDqAFWLr4ZDiBQCdf5JmZhepqWo6UOe/w21/SZhTSU8IZHBL4EDXWaYBMmyPtzK0ubXJdP6tUbXd0Tr6Wp28dfYflZ6s9f9UoxT7nxcEIBCBgE6viW5ZnqnoQYTigxSpaYCRCrLrAq+MCBQrAOj812qFdPRr4eNgCAQnYIsBnwcvNVCBGhg80TW3VnE2HkAIBOIau5gifwxIDXEgRfpB8KrYADMvn44+8wBifj8I6Jpmv1Vi17QsXhIEdqu1ZQknMpgsodOoFScAms7fGh23+p1vdJZGNDbvdWKaSrcT07bxggAEnBPI5FcCL6JoU4cTfflev7sysTTBRTuyPR2B4qYApJJfCB+df9OGGiVuHb6ddJN0TYuaIACBkATUgb5XeaOQZSYsq9K1aFv1besafU1iZmr+6Lp0oOsSUwYJAzFfVVEZAPthHzk3nnewj5+bTv9tc3Ixwu9jI8Dn4ggou2lPMT0uzjGtG7DsgDIDrxmkpI1uMQKg750/nX7aE4faINAFgcynAdogq7XTgQYvJgbsM6+IBIoQAPfu3dtSB/gmIievRdvo/rVOlkOUs9cQYRcEwhHQQGes0tzeDRDO02vXbFCjjMdrnisSkuq3ZWUvAJq02Du5VX3rWtF/Wcf/Uh3/vjp+UvxFhxrnIPAnAV3vRuoU7XrXp9fpFMEeWYGwYc9aAOhk6NvtfnYi7KGIw54ElAaBnAgoC/BZ9g5ysjmUrbr+HWitAEIgENCbgcrppJiNjY1/UYMYdVJ52kqt43/26dOnnc+fP0/TVk1tEICAJwK67v0H2fNXTzYltGWoa+HunTt3qtu3b/86m83qhHUXV1W2GYCeLPqbWcfPiL+48w6HILAyAWU+7Va6VysXUNCBtk5A7x2mBlYLapYC4P79+0OlgT6s5nIWRzHHn0WYMBIC6Qk0U582DcCrIaCBElMDK7SG7ASAGr/dC1vsoj8U7QqtmEMg0DMCPbgdcKWIIgSWw5bdzwErwGO5WC3nZhZ711rV/+j4+PgR6aws4oWREOiMgK6DHzur3HHFGkDZ9Mi7ZorYsaU+TMtKACioT9Xwn/hAF9QKu6Xve3X8k6ClUhgEIFAkAXv2R5GOhXGqUjFj9RfHShhvhSmyzFKymQJoUv827z8oKBQ26rcFLJOCfMIVCEAgMgFdD+0W6GNVU9L1MAo1pgUuxppNBkBBtFWvxTR2m+tn1H9xw+QbCEDgYgIaNNhPeU8v3oNvTgmcTgvoibHbp9v4/w8CWTwHoEn9/+eCgvZMc/3/qHtY/1aQT7gCAQgkJKB74TdU3Q8Jq8y5Khs8bjXPD/ioa+8sZ2dC2e4+A2Cpfzk7DuVwx+WcLPTTA332O7aD6iEAgcwJKIM4ydyF5OafZgPUrYySV+6wQvcCQKn/sbiZesv6pYb3USesrfCfZO0IxkMAAi4I6FoylSGMZJePxsmt5NwpcO2aawFgczYlrPpX5/9a75FO2Hr5tsoREIAABBYT0HXl7eJv2NqCwOmdAlWLfYvcxa0AsNS/GvfzAqjvab5/W30/Sr2AYOICBDwR0DVy4smeDG05yQaou9nK0Pa1TXYrAHSLy1N5V63tYbcF7Gm+f9ytCdQOAQgUTGBSsG+pXDMR8KaPUwIunwNgo//mHtdUDSB4PZq62OFHfIJjpUAIQOAMAT0W+FjXm+rMZv5cjcC+Bm3PVjs0v6NcZgCahX/50WwspvPPNnQYDoHsCOh6wzqAcFHblaD6YIPQcEX6LcmdAMh94R+dv9/GjmUQKJGArjmTEv3qyifxHCoD/a4PIsCdAMh54R+df1enLPVCoL8E9NPok/56H83z08WBw2g1OCjYlQBoHtVYOeCyignPmPNfBRvHQAAC6xCwO4y4G2AdghceW7wIcCUAMh7922r//QubEV9AAAIQiEhA2cf3EYvvc9H2o0sfNDgt8Vdo/TwIKOPRP7f69fnygO8QcECAxwLHDYIGpwcligA3twHabzcrhFXcMIYtXar7UGn/x2FLpTQIQAACyxPQNfSzjhosfyRHtCWga/62rvmv2+7vfT8XUwCZjv5rLb7Z8R5g7IMABPpBQKPUaT887c7L0jIBLgRAhnP/J7/qx+N9uzsRqRkCEPiWgEanPA/gWyRR/jIRoFsER1EKT1xo5wIgx9G/TrQ9df514lhRHQQgAIELCWgdwOGFX/JFUAL26GCJgGHQQjso7GYHdX5T5cbGxhttyGneihX/30SQPyAAAQ8EZnrdvn37owYo/1v22K2Bf9Pnv/NgW4E2/EVsfxDvt8Y9V/86XQRoaRR74lJG8Grd7reZkb2YCgEI9JxAM1K1e9ptxPpAwqBS55X96NVJWE+ng2sn9ixlRqcCQOn/QzXGH5eyuLudZ0qxfU/qv7sAUDMEIBCOAMIgDEv1YVO9H+W4JqwzAaDGZ4rUbv3L5fWMh/3kEirshAAEViUwJwxG6tgeqJwBGYMraR6of9i5ci9nO3QmAPSLSwdqVFk8XUl2Hujez+yC66ytYQ4EIJApAYkCW6dl0wYnUwkmDBpRYNt5/UFgLBGwlxOMzgRARg/+IfWfU4vGVghAIBkByxYok2uZgh8RBNeuaZrYpgImyQKwZkWdCAC79U8N5tWatqc6nNR/KtLUAwEIZE1AgmAkIbAtJx7q/0r/9+2V1YCxEwGg9P87NY5RBi2DVf8ZBAkTIQABfwROxYCu9bbQuzdTBRrcTo+Pj7/3F5HzFiUXAGoU2Sz+a1b9T89jYwsEIAABCLQhoEu+df5bEgLPe5QV2Nd6gGdt+HS5T/InAWq+aKtLh9vWrYZ6oLkcOv+2wNgPAhCAwAICdnuc3gcaFW/aHLlGyJMFu5W2adcyIN6dSp4ByGXxnxrqphpt7T2A2AcBCEAgNwKWCdYga6x3FneCrcjXHhJkz46ZrXh89MOSZgAU86E8qqJ7tWYFzei/XrMYDocABCAAgQUEbHCljMC2dZAFZwRsutv1YvekAkAwthe0BW+b7Gd+97wZhT0QgAAESiMgHWAL5h5JCOxICNSl+Sd/tjTwdTvtnVQACEYOj/19beq0wIaISxCAAARcEtAl92SNgIwrbvBlWQCJgIFH8MkEQC7pfynRA4+BwiYIQAACpRPQyvmxrsGbhWUDBl6nApIJAAEYeW+8zP17jxD2QQACpROwDKzdMSA/S8oG2FTAyFvskgkAKTr36X/m/r01T+yBAAT6SqC0bIDHqYAkAkDKx275GHluyIz+PUcH2yAAgT4SsGyABo+P5PthAf7bXQG7nvxIIgBu3rw58uT0Ils0+n+9aDvbIAABCECgOwImApQNeCwLSpgSeKrxsJsFgUkEgBZ1jLprPq1qtjY2abUnO0EAAhCAQHICNiWgSu3xurPklYercKAB8Ytwxa1XUhIBoPT6w/XMjHu07CtBWcaFROkQgAAEOiYgEbCvAaU9Trju2JSVq5ft28oCjFYuIOCB0QWAHB3K3iqgzcGLUvp/ErxQCoQABCAAgeAElK2d2rqAnEWABp3Pg4NZocDoAkDpDhMAbl8s/nMbGgyDAAQgsJCAzdnmLALU74w8ZAGiCwBFb2thBJ1s1Oj/rRNTMAMCEIAABFoSKEAEdJ4FiC4ApNIetIxnF7tZGzrsomLqhAAEIACB9QjkLAI8ZAGiCgClOCqF194uXwrAxKVhGAUBCEAAAq0InIoA7TxrdYCjndQHdZoFiCoAvM//k/53dCZgCgQgAIEVCZgIsLsDdHhWIqDrLEBUAaD0/3DFeKY6bJKqIuqBAAQgAIF4BKQBphIB9pyArF5dZgFiCwC39/9LnEzUYLJSi1m1aoyFAAQgkJiArukHqnIvcbVrVddkAQZrFbLiwVEFgBxzmwGQbaz+X7HRcBgEIAABrwSaJwYeerVvkV1d/UZANAGg9X+maDpRNYsAn92mVNHk7Db+hgAEIACB/Ano+r6jLG+dkSed/EZANAEg8G5H/7JtZvNFGTUOTIUABCAAgZYEbHpXAmCn5e4edhsoC7Cd2pBoAkDOuBUAahjvU4OmPghAAAIQSEdAImCi2rJZD6B+6cd0dP6oKZoAUPFVamfa1qf5/0nbfdkPAhCAAATyJGDrAdSxTnKwvlkMmHTgHE0ACLrbJwBqfoj0fw5nBDZCAAIQWJOA+qJsbg1U5nxrTXeXOjyaAJCaGSxlSdqdEQBpeVMbBCAAgU4INOu9cpkKeJoSUjQBICeGKR1Zoq6pLRBZYn92hQAEIACBjAko67uvTECdgQuDlL8SGEUANLcAumStRvCLS8MwCgIQgAAEohDI6a6AlNMAUQSAIuh19H9NUxOk/6OcYhQKAQhAwC8BuytAA8CJXwu/Wvbk66fIH2IJgMhmr168BEC9+tEcCQEIQAACuRKQAMhhLUCyaYBYAqDy2kD0C4C1V9uwCwIQgAAE4hHIJQugaYBRPAp/lhxFAMj46s8q3H2q3VmEQRCAAAQgkIRAJlmAJA8FiiIAFMVBkkiuUIkUYL3CYRwCAQhAAAIFEMgkCzBMsZg+igCQwvIqAOoC2i8uQAACEIDAGgRyyALcvHlzaw0XWx0aRQCo5u9a1Z54JwW9Tlwl1UEAAhCAgDMCmWQBHsbGFksAxLab8iEAAQhAAAIrE9AdYW9XPjjBgRqw5pkB8PoYYC1OrBPEjSogAAEIQMA5AT0d8EAmzhybabcDVjHti5IBcLwGICZLyoYABCAAgUwIaBrAOv/Xns3VOoBRTPuiCICYBq9TtoTJL+scz7EQgAAEIFAOAWUBDj17oz5rGNO+XgmAmCApGwIQgAAE8iJgiwFlsedpgKgLAREAebVXrIUABCAAgbAEPE8DkAEIG2tKgwAEIAABCPxBwPs0gNYBRhMBZAA4CyAAAQhAoM8EpnLe7TSAFgJGEwC3+hx1fI9HoLl9ZaAahs1vQ5w8HEqLWqqmVvvO3rwg0HcC9SkA3UI902dbrDzTyNS223varFjXR16hCRjbzc3NqdiPQpcdoryYCwERACEi1PMyms5+pI5+qMb6QCfSUEgWdu76rue0cB8C5whU57Zog86nr5vv3r0707llndRHCYOJvjBRUH/dgQ9rERBXeyjQaK1CIh08N2gKXgMCIDjS8gtUh2+du43st9Q4f9TJU516TQd/SoL/IRCUwEDn1kglmtB+aiVLFNTaNtFPnFvnNbGRrG3ntTwBE1Xzgmv5EuIdoRg/iFV6rwSAQLr8jYJYwQ1ZbtPpb4nhE72/jvD1OWQ1lAUBCLQnUEmAb6vj2rZDJAgOdT6+PTo6OrC/ebUnIPE0tSyLjrDBjbdXFcugP3NMsWqg3KwJqOMf6cTY10XmWO9XusCM5JDHkyRrzhgPgQAELCP3Sufr53v37r3SuWtCnVdLAmI3bblr8t0UyypGpbEEQB3D2HXLVJpnY90y+nK82tuWFsa8U6f/Tj5bypFOvy/Bx8/cCQyazMAHO4clBrZzdyiF/RrcfExRz4p1VCsed+lhsQTApZV29aUCzBTAFfDtYqERhI323zSj/SuO4GsIQMArATuHm6zAMULg8ihpgOg2A6BbAavLrV/t21gC4JfVzIl+FKPYCxCfdvx2sdAu1QW7sRkCEMiTgK0XsOkBhMDF8XMrABS7KH1XLAFwMeJuv6m6rd5f7Ur1jyxNSMfvLzZYBIEIBL4KgVjzyhFsTlXkLFVFK9RTrXDMlYdEEQBKO9VX1tzRDjT6P8CLw0CjgRc2x0+qv6PGSLUQ6I5ApXPfsgG2WLDqzgw/NetOgFrWuBQBukbfjkEqigDQXIqB9PqKkkrx6uwiu3TSb9nJr+92F33PNghAoB8ElPmz2whZKNiEWzxcCoBYC9ijCADPp07M5yp79ttsOx31q5G/0Z+9F0Le44V9EEhE4GRaoMkG9P26UCdivmw1+WQA5Nl0We9S7a/Or0pVl6d67t+/b0/u+yCbdj3ZhS0QgIAPAk024EPPpwRcLmDXFEAUYRYrAzDz0aTPWyGQvbsVUHP9T/W40HeiUZ0nwhYIQAACXwmcrA3QNYOBwlckLj7kIwCaxRQuqJ01Qip3dHZbyX/bQj/5t693lAZUMjt8g0CPCbzQteN53/zXALHuk8+xMgDX1NF6BWkZruI7Q/PRbu9TY97tU4PGVwhAIBiBsUTAmz5cL4MRy6ygaAJA882eH6s4zCxOS5lrCkf8J1Kzo6UOZGcIQAAC3xKwHwB7Z9eUbzfzVwkEogkAxxmAa+ocixUATedvI/8HJTRQfIAABLolIAFgC4gRAd2GIUrt0QSArK2jWByg0FLXAcx1/lUATBQBAQhA4JSAZRURAac0Cvk/mgDwvJhCtj0sJH5f3aDz/4qCDxCAQBwCiIA4XDsrNZoA0G1nk868urrigXWYV++Wxx5yZSB1fihri/EpD/JYCYHeEag0gGJhYCFhjyYAdCvgTIzs7fKlDnPLpWErGKWnG77SYcz5r8COQyAAgeUI2JoAEwHLHZXH3poervKwNIyV0QSAmadG8j6MmeFLUaB/DF9q+hLtXl35UoyYSU+QGiEAgWUJ6No+ap4xsuyh7L8agSiD6agCQB1TvZqv8Y8yFWup8/g1xatBJ+BTlT6OVwMlQwACELiQwK6uQbsXfpvnF995NFt9aX4CQL9gNPUIs7HJOv+hY/suNa1Zw7B/6U58CQEIQCAugRe6FmV7HT2LRgND6xd684qaARDFiWeSua4DsM7fbsnxzBbbIACBfhDQtaikRYGVx6iJcR3DrqgCwH4TwPM0gIA+iQE1dplSqWPVUcWuh/IhAAEItCBgA5IXLfZzvYvGVTb6d5kBUD/6awx4UQVAY7DbhYAWbAV9FANsrDL1m93bEgBZCpdYTCgXAhDonMC2rqVbnVuxngHD9Q6PevQsRunRBYA6q2kMw0OVqVvosulMdYJVUoLPQ/lOORCAAARCEVAW4JUuUYNQ5aUuR32BW9vVj9YxeEQXAFoIOIlheKgy1aFu5dJoSf2HijrlQAACEQjYA8myHaCoLxhFYBKkSD1Yrw5S0JlCogsALQOwDMDsTL2e/rRGu+3JoEW2SKTYwzeyyVYs8oFtEIBA8QR2da0a5eilBMADx3ZH6UOjCwADKrBvHYM1+9w/FEgi5Y1nhtgGAQhAwAhooJJlFkB2D71GsBlIBzcvlQCYBLc8YIEK/MizarWFf3K30psXBCAAAdcE7HraXLNc2zlvnGVY9fdgfpujz3UsW5IIABl/GMuBUOVqhP00VFmhy1GGIktFHZoD5UEAAnkQsGuWOlWvHeo5iFoAaALA5Uss61iGJREASl/M5MQklhOBynW5GJDRf6DoUgwEIJCSgD0bYDdlhevUpcXqo3WOj3msMiofY5WfRACY8XLC8/MATvh6bLCM/mM1fcqFAAQiE3CbVT3rt/qnh2e3Ofq7jmVLMgHg/XbABvBTT2krRv+xmj3lQgACCQgMclgL0Mz/Vwl4rFRFzN/USSYANA0wiTmXsRLZ8wfZLYFu0laM/s8HiC0QgEA+BNR5ub91Wdf8kXOi01j2XY9V8KJy9dOR+9ruPS00U6PdtHULi3xItU2qdKSG+S5VfanqMRGodJs16E75pvKXeiDQhoDOi0r7DXRuDNvsn9M+up4+sgGgV5vVL32QbV65Tz99+vR9LHa3YhW8qFw1hEN1at4FwGkWYLzIh1TbdCHYTlVXzHp0YZvIl/eK/UT1TLsWVjF9pWwIhCDQiP+hzp0nJQgCXfO3xGUSgk3oMsS6UpleO397Rs0voX2eLy9pBsAq3tzcPFajruyz51eTBai7sFFt0kTI5y7qDlTnTOW8FsMDdfjTQGVSDAR6R8A6KF0vx3q7T6VfEhwXWdVF9mn0v6vtLxZ952TbM2UA9mPZkmwNwKkDasivTz97/l92vurKPt2TutVV3QHqfWniSY12l84/AE2K6DUBnUP18fHxtp1TGg1mce1cEDAb0Gwv2O5hk+uMtOI+iQkpuQCQQ9HUTEhQEgAjie9RyDLbliVG2al9XZw+Srh833T8s7a+sh8EIHA1gTNCoL76CF976Prwoy+L9GjVP67vlTe75uyZxR5EJRcAciiHhwKdxEAiIHlqSI3SFgKN5hpBDh9f6gQf/fzzz9McjMVGCORKoBECm7L/ZU4+NAOqgSebZdO2J3vO2qJravTraXIBYE7KsSxSWWogQ80Rjc8GJubfGkWPYpYfoew9Rv0RqFIkBC4hYOecvt67ZBd3X3ma2tRAy9ZWuM60yr7oP6LXiQBQyzzUe+auhS42yB4OVC3+KvxWpf+3wpcap0Q10B1diMZxSqdUCEDgMgJ27ul6sXPZPs6+e+jFHl27xl5sucgOxXZy0XehtnciAGwaQA7kksKylHyyBYGqy81JckUj2zs6Ojq4Yh++hgAEIhLQtfRAxWeRCVDm18Xgphn9e7/O2mzPNGLTOSm6EwFgNUvdHJxYkME/6pRHze0iUa1VwxyqgipqJWEKt7T/OExRlAIBCKxDoDkXcxhQDVJmUy9iqjsSnui76qLvPWxXnzNJYUdnAsDkjRRhEicDgbSft6wClbWwGM2RmQDw/qrp/L2HCPv6RkDn5G6KRWPrcu16jVNzDd9e14/Yx3/58iX6/L/50JkAsMrVYLNIXZmtetlUwJs/Psb5VzzcCwBlbh7F8Z5SIQCBdQjo+rGzzvEpju36GpfD6L+JwyRFPDoVAEoCTNQgkjgaAqYEQNQOWiwehLAzVhny/8AyN7HKp1wIQGB1Ajo1pzra+1RAZ3Pvzeh/vDrhNEeqH3irWM5S1NapADAH5ezrFI7mUIc62JFjO2dKS+WUsXGMEtMgEIeAMnRjlZyk81jRg2rF49Y+TNfX8dqFJChAWYrDBNWcVNG5AJDSOZAIqFM57LUeqdOhV9vMLp08h4pV7dlGbINA3wk0I0fPWYBOFgLq+jrSNcwW/7l/aaDVHwFg0ZAAYGSpNQaeWyajf8/RwTYI/Ekggzuskg92NKp+9Schv58kUg4aEZfEyM4zAI2XpnhmSTx2WokaaPKToi0KCbSJGmXddn/2gwAEuiNg56qds91ZcHnNuhNgcPkeYb/VLdzPVWIVttQ4pWmglXRK3IUAUHu1n4t8FgdpNqUmPSmWoSJVmuSWlGVsYl8IQOBiAp7PWYmT6mLLw36Ty8K/xmvTbpOwBC4vzYUAMBPleK/XAqQ8KS5vEue/lTibnN/KFghAwCsBz+esxMl3Kbip87efIX6Xoq5AdSQfaLkRAAZQnWCf1wIkOSlWaagSZ9NVjuMYCECgGwLNOTvrpvbLa5U42bh8jzDfqvPPJvVvHovLfhjP25fiSgA0WYBJe/PZMzYBz3OJsX2nfAhkTqB2av/t2Hbdu3dvW3Xsxq4nVPm6ztq9/3Wo8tqW40oAmNF9zQIoLTZoG7TE+/2auD6qgwAEAhDQtfRjgGKCF6FrXRW80LkCbd5fvr+Y2+T+o+xNPvo3KO4EgETQRDAm7iMW2ED57FIAKI32ObCrFAcBCEAgCgHr/Jt5f5fX0wuctsH/5ILvom52JwDMW3WGO1G9pvDWBBSLX1rvzI4QgIAbAhpp126MSWSIOv9DVVUlqi5INYrTXpCCVijk1grHRD/E5JDu3TQotoiDV48JqB2M5X6v24F+6e16j5sArkNgGQKuf09lgSP10dHRwYLtSTa5zACY57YiUqPPOgkFKoEABCAAAQgkJtDl6N9cdSsAlASYSQA8SxwPqoMABCAAAQikINDp6N8cdCsAzDiJgEOJgIl95gUBCEAAAhAohUDXo3/j6FoAmIESADv6b2afeUEAAhCAAAQKIND56N8YuhcAygLUsrOzVZIGiRcEIAABCEAgFAEPo3/zxb0AMCO1CtoWBE7sMy8IQAACEIBAxgRcjP6NXxYCwAxlKsAo8IIABCAAgZwJeBn9G8NsBABTATk3eWyHAAQgAAEROOzyvv+zEchGAJjhzVTA67NO8DcEIAABCEDAOwE938bVre1ZCQALrqYCdvWuvQca+yAAAQhAAAJzBPaaTPbcpm4/ZicABNAeEPS4W2zUDgEIQAACEGhNoLan27beO9GO2QkA4yIRMNV/rlIpieJFNRCAAAQgkBkBW/hng1dvZmcpAAwi6wG8NSXsgQAEIACBswTU+R94Wvg3b1+2AsCcYD3AfCj5DAEIQAACzgjUX758cfsgu6wFQLMe4JEC7i614qwRYg4EIAABCCQm0KT+68TVtq4uawFgXkoE2OIKFgW2Djk7QgACEIBAAgIvvab+T33PXgCYI9IAE/3HokCDwQsCEIAABLomYAPTcddGXFV/EQLAnLRFgfrP7VzLVYHgewhAAAIQKIOAOv9HGpi6n5ouRgBYs5EIGGthIE8KLOMcwgsIQAACORJ4ps6/zsHwogSAAT8+Pt6WCJjmAB8bIQABCECgKAIvm2x0Fk4VJwCMugTAI0RAFu0PIyEAAQiUQiCLef952EUKAJt7kQB4rHc97yyfIQABCEAAAhEIWOefxbz/vO9FCgBz0OZgmkxAPe8wnyEAAQhAAAIhCdy8efOx9Tkhy0xRVrECwOBZQBABKZoRdUAAAhDoLYFnP//8c5brzooWANYcEQG9PSlxHAIQgEBsAns5Lfo7C6N4AWAOIwLOhp2/IQABCEBgTQLW+Y/XLKPTw3shAIwwIqDTdkblEIAABIohoKnl17l3/haM3ggAc3ZOBGQ5X2M+8IIABCAAge4IqPOf2PNmurMgXM29EgCG7VQE6ONhOIyUBAEIQAACpRNQ5/9R72J+fK53AsAaqETATOkbC+LL0hss/kEAAhCAwPoEms5/ZP3H+qX5KKGXAuAUvUTArj7zA0KnQPgfAhCAAATOESix8zcney0ADECzkMN+SrgYVWd+8YIABCAAgfUJqPN/rXdRI/9TKr0XAAZCImBfj3H8XkGuT8HwPwQgAAEI9JuAdf624K+ktP98RG/N/9HnzwpwXVXVIzF4c/369WGfWXjyXcJsX/YceLIJWyAAgV4Q2FPnPy7ZUwTAXHRNBOjP7+/evTvW/8/15tUxAYXEpmaYnuk4DlQPgZ4RyP4hP23ixRTAAkq2LkAjzx19RcezgA+bIAABCBRKYKYM8E6zNqxQF/90CwHwJ4tvPmnkecC6gG+Q8AcEIACBkgnU+lW/R0dHRwclOznvGwJgnsaZzzYloDmgTW3mVsEzbPgTAhCAQCkEtNhvogHfo1x/1W/VOCAAWpBrpgQecZdAC1jsAgEIQCAvAi810HtkA768zF7fWgRAS4ZqGxMJgO9b7s5uEIAABCDgm8BMo/7HGuDt+jYznnXcBbAEW4kAFgUuwYtdIQABCHgkYCl/vXf6OOqfjwcCYJ4GnyEAAQhAoHQCz5Ty3y/dyTb+IQDaUGIfCEAAAhDImoBG/B9v3bq13beFfpcFDQFwGR2+gwAEIACBEggU/1S/VYKEAFiFGsdAAAIQgIB7Asz1Xx4iBMDlfPgWAhCAAATyI2ALtm3Uz1z/JbFDAFwCh68gAAEIQCA7Anu6vW+fu7aujhsC4GpG7AEBCEAAAhkQUMe/2fdb+5YJEw8CWoYW+0IAAhCAgFsCdP7LhQYBsBwv9oYABCAAAQgUQQABUEQYcQICEIAABCCwHAEEwHK82BsCEIAABCBQBAEEQBFhxAkIQAACEIDAcgQQAMvxYm8IQAACEIBAEQQQAEWEEScgAAEIQAACyxFAACzHi70hAAEIQAACRRDgQUBFhDGeE9evX39QVdV2vBooGQIQiEHAzl09Cz9G0ZRZCAEEQCGBjOWGLiBbN27c2IpVPuVCAAJxCND5x+FaUqlMAZQUTXyBAAQgAAEItCSAAGgJit0gAAEIQAACJRFAAJQUTXyBAAQgAAEItCSAAGgJit0gAAEIQAACJRFAAJQUTXyBAAQgAAEItCSAAGgJit0gAAEIQAACJRFAAJQUTXyBAAQgAAEItCSAAGgJit0gAAEIQAACJRFAAJQUTXyBAAQgAAEItCSAAGgJit0gAAEIQAACJRFAAJQUTXyBAAQgAAEItCSAAGgJit0gAAEIQAACJRFAAJQUTXyBAAQgAAEItCSAAGgJit0gAAEIQAACJRFAAJQUTXyBAAQgAAEItCSAAGgJit0gAAEIQAACJRFAAJQUTXyBAAQgAAEItCSAAGgJit0gAAEIQAACJRFAAJQUTXyBAAQgAAEItCSAAGgJit0gAAEIQAACJRFAAJQUTXyBAAQgAAEItCSAAGgJit0gAAEIQAACJRFAAJQUTXyBAAQgAAEItCSAAGgJit0gAAEIQAACJRFAAJQUTXyBAAQgAAEItCSAAGgJit0gAAEIQAACJRFAAJQUTXyBAAQgAAEItCSAAGgJit0gAAEIQAACJRFAAJQUTXyBAAQgAAEItCSAAGgJit0gAAEIQAACJRFAAJQUTXyBAAQgAAEItCSAAGgJit0gAAEIQAACJRFAAJQUTXyBAAQgAAEItCSAAGgJit0gAAEIQAACJRFAAJQUTXyBAAQgAAEItCSAAGgJit0gAAEIQAACJRFAAJQUTXyBAAQgAAEItCRwq+V+7NZfAnufPn0a99d9PIdAngTu3r07luXP87Qeq1MQIAOQgjJ1QAACEIAABJwRQAA4CwjmQAACEIAABFIQQACkoEwdEIAABCAAAWcEEADOAoI5EIAABCAAgRQEEAApKFMHBCAAAQhAwBkBBICzgGAOBCAAAQhAIAUBBEAKytQBAQhAAAIQcEYAAeAsIJgDAQhAAAIQSEEAAZCCMnVAAAIQgAAEnBFAADgLCOZAAAIQgAAEUhBAAKSgTB0QgAAEIAABZwQQAM4CgjkQgAAEIACBFAQQACkoUwcEIAABCEDAGQEEgLOAYA4EIAABCEAgBQEEQArK1AEBCEAAAhBwRgAB4CwgmAMBCEAAAhBIQQABkIIydUAAAhCAAAScEUAAOAsI5kAAAhCAAARSEEAApKBMHRCAAAQgAAFnBBAAzgKCORCAAAQgAIEUBBAAKShTBwQgAAEIQMAZAQSAs4BgDgQgAAEIQCAFgVspKqEOCKxKoKqq0Y0bN0arHl/CcZ8+fRqX4Ac+QAACvgggAHzFA2vOEGg6/+dnNvftz3HfHMZfCEAgPgGmAOIzpgYIQAACEICAOwIIAHchwSAIQAACEIBAfAIIgPiMqQECEIAABCDgjgACwF1IMAgCEIAABCAQnwACID5jaoAABCAAAQi4I4AAcBcSDIIABCAAAQjEJ4AAiM+YGiAAAQhAAALuCCAA3IUEgyAAAQhAAALxCSAA4jOmBghAAAIQgIA7AggAdyHBIAhAAAIQgEB8AgiA+IypAQIQgAAEIOCOAALAXUgwCAIQgAAEIBCfAAIgPmNqgAAEIAABCLgjgABwFxIMggAEIAABCMQngACIz5gaIAABCEAAAu4IIADchQSDIAABCEAAAvEJIADiM6YGCEAAAhCAgDsCCAB3IcEgCEAAAhCAQHwCCID4jKkBAhCAAAQg4I4AAsBdSDAIAhCAAAQgEJ8AAiA+Y2qAAAQgAAEIuCOAAHAXEgyCAAQgAAEIxCeAAIjPmBogAAEIQAAC7gggANyFBIMgAAEIQAAC8QkgAOIzpgYIQAACEICAOwIIAHchwSAIQAACEIBAfAIIgPiMqQECEIAABCDgjgACwF1IMAgCEIAABCAQnwACID5jaoAABCAAAQi4I4AAcBcSDIIABCAAAQjEJ4AAiM+YGiAAAQhAAALuCCAA3IUEgyAAAQhAAALxCdyKXwU1QGB1Ar/99tv0xo0bB6uXwJEQgAAEILCIAAJgERW2zRMYzP+R+nNd14eq0968IAABCEAgIAGmAALCLLGo69ev3y7RL3yCQOkEfv/996p0H/FvPQIIgPX4BTtaHe0sWGEBC1IKfiNgcRQFAQikI/Bduqra1yRhUrffmz1jEkAAxKS7RNk6KVwKAAmTB0u4wa4QgIATAjp3B05MwQynBBAAfgLzix9TvrGk0osLyTdI+AMCvgk05+zQqZW/OrWrd2YhAHoX8pUc9nohWckZDoJADwi4PWd1V8/nHvDPwkUEgJMwKV1XOzHlnBk6YbfObWQDBCDgloCuJ9tejdN0p9dsp1dk0exCAERDu1zBWmxXL3dE0r2fJK2NyiAAgbUISAA8XKuAiAd7HuxEdNtl0QgAP2GZ+jHlnCUDzSmOzm1lAwQg4I5Ac65W7gxrDPry5Uvt1ba+2YUA8BNx1yeFVPtzP6iwBAIQuIiA5/R/Y7Pnwc5FWIvcfr1IrzJ16u7du7Y4ZuDVfE1TPNKT+SZe7cMuCPSdgEb/ldbsHDvmMPv06RPPFnESIDIATgJhZmhxjGtlTBbAUWPBFAgsIKBz9NWCzW42eb/GuQGVyBAEQCLQbarRyfuxzX5d7SP7RspS7HZVP/VCAAIXE7h37962naMX79H9N96vcd0TSmsBAiAt70tr08kxuXQHH18+tzSjD1OwAgIQMAJ2Tmp07X6djqYRJ0TMDwEEgJ9YXNPq2BxOjoGEyhtdb9yuVXAUUkyBQHQCdi5q3v+dKqqiV7Z+BZP1i6CEUAQQAKFIBihHC+xmKsb1OgBzUwJgqAvOiwAuUwQEILAmgeZcrNYsJsXh0+Yal6Iu6mhBAAHQAlLiXd4nrm/V6ra1HsD1gqNVHeM4CORCoDkHtzOxN5drWyY41zcTAbA+w6AlaI7sMGiBcQszEcB0QFzGlA6BcwQs7b+5uWlp/+1zXzrdkNm1zSnFsGZdD1scpYUgoE7V9fMAFvhYN88IqBd8xyYIQCAggfv37w+1XuiNiqwCFhu7qFr3/2/GroTylyNABmA5Xqn2fp2qokD1nDx8RMLF/SrkQP5SDASSE7BRv51j6vw/qPIquQFrVJjJHU5reJjnoQgAh3HLOFU21gXq2O5HdogVkyCQLQE7p7TYzzr+cY5OSLTkNqjJEfPSNl9f+ggOSEIgw2mAs1xqbXhpYkYrf+0zLwhAYAkCze19T3XIrt6DJQ71tivpf28Raey55dQuzFLnKQg5p9Qr2f/CblHSYqWpUoDvJQYm2mZ6wP2tjrKTFwSSElCHX6lCu8V2pIf6PNA5M0pqQLzKGP3HY7tWyWQA1sIX7+BG/X+OV0PnJc90kZt1bgUGQKBjAurobXSf8wj/UoIS/pum+i/diS87IYAA6AR7u0rtNp+CRgHtTKbg0AAABZ1JREFUnGYvCECgGAK6fh0cHR3tFONQYY6wCNBxQDVC3nNsHqZBAAIQuJQAi/8uxdP5lwiAzkNwsQHKmk0kAiYX78E3EIAABHwSsGuXXcN8WodVRgAB4LwdkAVwHiDMgwAEFhLg2rUQi6uNCABX4ThvDFmA80zYAgEI+CbA6N93fE6tQwCcknD8P0racXAwDQIQOEdA1ywW/p2j4m8DAsBfTM5Z1GQBXp/7gg0QgAAEnBGwlf+6ZtXOzMKcBQQQAAugeNwkRb0ru7hv3mNwsAkCEDglUGvlP3cvndJw/j8CwHmATs2ToLbOnxPrFAj/QwACHgm8ZPTvMSyLbbq+eDNbvRLg4UBeI4NdEOg9AZ75n1kTIAOQWcCaxTVMBWQWN8yFQOkE9MjfR6X7WJp/N0tzqHR/ZnptbGz8P/n5Q+m+4h8EIJANgWfHx8c/ZWMthp4QYAog04agnwt+I9O3MjUfsyEAgUII8Lz/fAPJFECmsVO6bUfTAXWm5mM2BCBQBgFW/WccRwRApsGzuwIkAB7LfNYDZBpDzIZA5gRmNu/Pqv98o8gagHxjd03LAf7P7du3/69ScEwFZBxHTIdAjgTU+f+DOv//laPt2PwHAQRA5i1BImCqRYG2lmOUuSuYDwEI5ENgT4v+/iUfc7F0EQEEwCIqmW37/PnzBBGQWdAwFwL5Etj79OnTOF/zsfyUAALglETm/zciYENu/DVzVzAfAhDwS4DO329slrYMAbA0Mr8HSAT8NBgMNrUmYOjXSiyDAARyJKBFx6+V9t/N0XZsXkwAAbCYS7ZbtSbgkOmAbMOH4RDwSsDm/On8vUZnRbsQACuC83wYawI8RwfbIJAdAdL+2YWsncEIgHacstsLEZBdyDAYAh4JPNOCv3/2aBg2rU+ARwGvz9B1CVVVjbQm4JXelWtDMQ4CEPBEwB7y81j3+U88GYUtYQkgAMLydFmaREAlAfAOEeAyPBgFAVcEtNjvo95bPOHPVViiGMOjgKNg9VWonchawLMpq176sgxrIAABZwReqvMf0fk7i0okc1gDEAmsx2LtNkE9OvgX2TZUNmDg0UZsggAEOiFgKf9/0EBhX3cS/a0TC6g0OQEEQHLk3VZojw7WswLeyooNiQCeF9BtOKgdAp0T0HXgsPlRn2nnxmBAUgKsAUiK21dlWhqwrZP/ud6VL8uwBgIQSECgVse/o3T/JEFdVOGQAALAYVBSm3T37t2x5v2eIARSk6c+CHRCYKZaX6rz31fnb5959ZQAAqCngT/rdnOnwFgi4MnZ7/gbAhAoggAdfxFhDOcEAiAcyyJKQggUEUacgMA8ATr+eRp8/koAAfAVBR/mCZgQ0N/2ECHWCMyD4TME8iFAx59PrDqxFAHQCfa8KpUW2JIQsDfTA3mFDmv7R2Cm9TxTvfdY3Ne/4C/rMQJgWWI93l9CYCD3t27cuPGj/d9jFLgOAU8ETjv91zLqkIV9nkLj2xYEgO/4uLZOgmAkMbCl0cZDZQeGro3FOAgURMBG+Trn3msl/6HcmtLpFxTchK4gABLCLrmqJjswlCAwIfBQF6hBIwoGJfuNbxCITMBG97XOpanq+agO3/6nw48MvS/FIwD6EumO/GyEQaXqTQjY/9ckEk7+t8+8IACBPwioc68bFva/vWeM7EWBFwQgAAEIQAACEIAABCAAAQhAAAIQgAAEIAABCEAAAhCAAAQgAAEIQAACEIAABCAAAQhAAAIQgAAEIAABCEAAAhCAAAQgAAEIQAACEIAABCAAAQhAAAIQgAAEIAABCEAAAhCAAAQgAAEIQAACEIAABCAAAQhAAAIQgAAEIAABCEAAAhCAAAQgAAEIQAACEIAABCAAAQhAAAIQgAAEIAABCEAAAhCAAAQgAAEIQAACEIAABCAAAQhAAAIQiEng/wON+YvB5YIDYQAAAABJRU5ErkJggg==;" vertex="1" parent="42">
                    <mxGeometry x="45" y="120" width="60" height="60" as="geometry"/>
                </mxCell>
            </root>
        </mxGraphModel>
    </diagram>
</mxfile>